<svg width="251" height="77" viewBox="0 0 251 77" fill="none" xmlns="http://www.w3.org/2000/svg">
<rect x="1" y="1" width="249" height="75" rx="7" stroke="white" stroke-width="2"/>
<path d="M80.6172 14.3174H84.9678C86.8486 14.3174 88.3164 14.877 89.3711 15.9961C90.4258 17.1094 90.9531 18.6621 90.9531 20.6543C90.9531 22.6523 90.4258 24.2109 89.3711 25.3301C88.3223 26.4434 86.8545 27 84.9678 27H80.6172V14.3174ZM82.1992 15.7412V25.5762H84.8623C86.2744 25.5762 87.373 25.1455 88.1582 24.2842C88.9434 23.4229 89.3359 22.2188 89.3359 20.6719C89.3359 19.1191 88.9404 17.9092 88.1494 17.042C87.3643 16.1748 86.2686 15.7412 84.8623 15.7412H82.1992ZM100.946 25.8574C100.167 26.7305 99.1032 27.167 97.7555 27.167C96.4079 27.167 95.3414 26.7305 94.5563 25.8574C93.777 24.9785 93.3873 23.7803 93.3873 22.2627C93.3873 20.7393 93.777 19.541 94.5563 18.668C95.3356 17.7949 96.402 17.3584 97.7555 17.3584C99.109 17.3584 100.175 17.7949 100.955 18.668C101.734 19.541 102.124 20.7393 102.124 22.2627C102.124 23.7803 101.731 24.9785 100.946 25.8574ZM95.6813 24.8818C96.1676 25.4971 96.859 25.8047 97.7555 25.8047C98.652 25.8047 99.3434 25.4971 99.8297 24.8818C100.316 24.2607 100.559 23.3877 100.559 22.2627C100.559 21.1377 100.316 20.2676 99.8297 19.6523C99.3434 19.0312 98.652 18.7207 97.7555 18.7207C96.859 18.7207 96.1676 19.0312 95.6813 19.6523C95.195 20.2676 94.9518 21.1377 94.9518 22.2627C94.9518 23.3877 95.195 24.2607 95.6813 24.8818ZM116.423 17.5254L113.769 27H112.231L110.113 19.6699H109.972L107.863 27H106.333L103.679 17.5254H105.208L107.072 25.1016H107.212L109.33 17.5254H110.781L112.899 25.1016H113.039L114.903 17.5254H116.423ZM118.805 27V17.5254H120.246V19.0195H120.387C120.891 17.9121 121.84 17.3584 123.234 17.3584C124.295 17.3584 125.112 17.6631 125.686 18.2725C126.261 18.876 126.548 19.7402 126.548 20.8652V27H125.036V21.2344C125.036 20.3848 124.851 19.7549 124.482 19.3447C124.119 18.9287 123.559 18.7207 122.804 18.7207C122.042 18.7207 121.435 18.9609 120.984 19.4414C120.539 19.916 120.316 20.5664 120.316 21.3926V27H118.805ZM129.764 27V13.7637H131.276V27H129.764ZM141.655 25.8574C140.876 26.7305 139.813 27.167 138.465 27.167C137.117 27.167 136.051 26.7305 135.266 25.8574C134.487 24.9785 134.097 23.7803 134.097 22.2627C134.097 20.7393 134.487 19.541 135.266 18.668C136.045 17.7949 137.112 17.3584 138.465 17.3584C139.819 17.3584 140.885 17.7949 141.664 18.668C142.444 19.541 142.833 20.7393 142.833 22.2627C142.833 23.7803 142.441 24.9785 141.655 25.8574ZM136.391 24.8818C136.877 25.4971 137.569 25.8047 138.465 25.8047C139.362 25.8047 140.053 25.4971 140.539 24.8818C141.026 24.2607 141.269 23.3877 141.269 22.2627C141.269 21.1377 141.026 20.2676 140.539 19.6523C140.053 19.0312 139.362 18.7207 138.465 18.7207C137.569 18.7207 136.877 19.0312 136.391 19.6523C135.904 20.2676 135.661 21.1377 135.661 22.2627C135.661 23.3877 135.904 24.2607 136.391 24.8818ZM148.484 25.8398C149.264 25.8398 149.908 25.6143 150.418 25.1631C150.933 24.7119 151.191 24.1465 151.191 23.4668V22.5967L148.642 22.7637C147.928 22.8105 147.403 22.96 147.069 23.2119C146.735 23.4639 146.568 23.8301 146.568 24.3105C146.568 24.7852 146.747 25.1602 147.104 25.4355C147.462 25.7051 147.922 25.8398 148.484 25.8398ZM148.203 27.167C147.271 27.167 146.504 26.9121 145.9 26.4023C145.303 25.8867 145.004 25.2012 145.004 24.3457C145.004 23.502 145.303 22.8398 145.9 22.3594C146.498 21.8789 147.35 21.6064 148.458 21.542L151.191 21.375V20.5137C151.191 19.9277 151.01 19.4795 150.646 19.1689C150.283 18.8584 149.75 18.7031 149.047 18.7031C148.478 18.7031 148.007 18.8057 147.632 19.0107C147.257 19.2158 147.016 19.5059 146.911 19.8809H145.382C145.481 19.125 145.871 18.5156 146.551 18.0527C147.236 17.5898 148.086 17.3584 149.099 17.3584C150.248 17.3584 151.136 17.6367 151.763 18.1934C152.389 18.75 152.703 19.5234 152.703 20.5137V27H151.262V25.6025H151.121C150.816 26.1064 150.412 26.4932 149.908 26.7627C149.404 27.0322 148.836 27.167 148.203 27.167ZM159.365 27.167C158.152 27.167 157.185 26.7217 156.464 25.8311C155.744 24.9404 155.383 23.751 155.383 22.2627C155.383 20.7803 155.744 19.5938 156.464 18.7031C157.191 17.8066 158.158 17.3584 159.365 17.3584C160.027 17.3584 160.619 17.5078 161.14 17.8066C161.667 18.0996 162.066 18.5039 162.335 19.0195H162.467V13.7637H163.979V27H162.538V25.4883H162.397C162.098 26.0156 161.682 26.4287 161.149 26.7275C160.616 27.0205 160.021 27.167 159.365 27.167ZM159.716 18.7207C158.855 18.7207 158.178 19.0371 157.686 19.6699C157.194 20.2969 156.948 21.1611 156.948 22.2627C156.948 23.3701 157.191 24.2373 157.677 24.8643C158.169 25.4912 158.849 25.8047 159.716 25.8047C160.578 25.8047 161.257 25.4883 161.755 24.8555C162.253 24.2227 162.502 23.3584 162.502 22.2627C162.502 21.1787 162.25 20.3174 161.747 19.6787C161.249 19.04 160.572 18.7207 159.716 18.7207ZM179.799 25.8574C179.019 26.7305 177.956 27.167 176.608 27.167C175.261 27.167 174.194 26.7305 173.409 25.8574C172.63 24.9785 172.24 23.7803 172.24 22.2627C172.24 20.7393 172.63 19.541 173.409 18.668C174.188 17.7949 175.255 17.3584 176.608 17.3584C177.962 17.3584 179.028 17.7949 179.807 18.668C180.587 19.541 180.976 20.7393 180.976 22.2627C180.976 23.7803 180.584 24.9785 179.799 25.8574ZM174.534 24.8818C175.02 25.4971 175.712 25.8047 176.608 25.8047C177.505 25.8047 178.196 25.4971 178.682 24.8818C179.169 24.2607 179.412 23.3877 179.412 22.2627C179.412 21.1377 179.169 20.2676 178.682 19.6523C178.196 19.0312 177.505 18.7207 176.608 18.7207C175.712 18.7207 175.02 19.0312 174.534 19.6523C174.048 20.2676 173.804 21.1377 173.804 22.2627C173.804 23.3877 174.048 24.2607 174.534 24.8818ZM183.709 27V17.5254H185.151V19.0195H185.291C185.795 17.9121 186.745 17.3584 188.139 17.3584C189.2 17.3584 190.017 17.6631 190.591 18.2725C191.165 18.876 191.453 19.7402 191.453 20.8652V27H189.941V21.2344C189.941 20.3848 189.756 19.7549 189.387 19.3447C189.024 18.9287 188.464 18.7207 187.708 18.7207C186.947 18.7207 186.34 18.9609 185.889 19.4414C185.444 19.916 185.221 20.5664 185.221 21.3926V27H183.709ZM200.654 15.0732H202.166V17.5254H204.275V18.791H202.166V24.1523C202.166 24.709 202.277 25.1133 202.5 25.3652C202.722 25.6172 203.08 25.7432 203.572 25.7432C203.789 25.7432 204.023 25.7314 204.275 25.708V26.9824C203.941 27.041 203.645 27.0703 203.387 27.0703C202.409 27.0703 201.709 26.874 201.287 26.4814C200.865 26.0889 200.654 25.4414 200.654 24.5391V18.791H199.125V17.5254H200.654V15.0732ZM207.008 27V13.7637H208.52V19.0195H208.66C208.901 18.4863 209.267 18.0762 209.759 17.7891C210.257 17.502 210.864 17.3584 211.578 17.3584C212.586 17.3584 213.383 17.6689 213.969 18.29C214.555 18.9053 214.848 19.7637 214.848 20.8652V27H213.336V21.2344C213.336 19.5586 212.607 18.7207 211.148 18.7207C210.316 18.7207 209.668 18.9639 209.205 19.4502C208.748 19.9307 208.52 20.5781 208.52 21.3926V27H207.008ZM221.747 18.6943C220.991 18.6943 220.37 18.9492 219.884 19.459C219.397 19.9688 219.125 20.6426 219.066 21.4805H224.287C224.269 20.6426 224.029 19.9688 223.566 19.459C223.103 18.9492 222.497 18.6943 221.747 18.6943ZM224.243 24.5479H225.755C225.526 25.3682 225.061 26.0098 224.357 26.4727C223.66 26.9355 222.796 27.167 221.765 27.167C220.452 27.167 219.412 26.7275 218.644 25.8486C217.877 24.9639 217.493 23.7715 217.493 22.2715C217.493 20.7773 217.88 19.585 218.653 18.6943C219.427 17.8037 220.464 17.3584 221.765 17.3584C223.042 17.3584 224.047 17.7832 224.779 18.6328C225.512 19.4824 225.878 20.6455 225.878 22.1221V22.7021H219.066V22.7725C219.107 23.71 219.371 24.4541 219.857 25.0049C220.35 25.5557 220.997 25.8311 221.8 25.8311C223.024 25.8311 223.839 25.4033 224.243 24.5479Z" fill="white"/>
<path d="M95.5312 59L93.2656 52.5469H84.2969L82.0312 59H79.0781L87.3906 36.4531H90.1719L98.4844 59H95.5312ZM88.6562 40.0938L85.125 50.1562H92.4375L88.9062 40.0938H88.6562ZM110.297 41.8594C112.443 41.8594 114.156 42.651 115.438 44.2344C116.729 45.8177 117.375 47.9323 117.375 50.5781C117.375 53.2135 116.729 55.3281 115.438 56.9219C114.146 58.5052 112.432 59.2969 110.297 59.2969C109.099 59.2969 108.036 59.0521 107.109 58.5625C106.182 58.0625 105.49 57.3646 105.031 56.4688H104.781V64.625H102.094V42.1562H104.656V44.9688H104.906C105.448 44 106.193 43.2396 107.141 42.6875C108.099 42.1354 109.151 41.8594 110.297 41.8594ZM109.656 56.875C111.198 56.875 112.406 56.3177 113.281 55.2031C114.156 54.0885 114.594 52.5469 114.594 50.5781C114.594 48.6094 114.156 47.0677 113.281 45.9531C112.417 44.8385 111.214 44.2812 109.672 44.2812C108.151 44.2812 106.943 44.849 106.047 45.9844C105.151 47.1094 104.703 48.6406 104.703 50.5781C104.703 52.5052 105.146 54.0365 106.031 55.1719C106.927 56.3073 108.135 56.875 109.656 56.875ZM129.797 41.8594C131.943 41.8594 133.656 42.651 134.938 44.2344C136.229 45.8177 136.875 47.9323 136.875 50.5781C136.875 53.2135 136.229 55.3281 134.938 56.9219C133.646 58.5052 131.932 59.2969 129.797 59.2969C128.599 59.2969 127.536 59.0521 126.609 58.5625C125.682 58.0625 124.99 57.3646 124.531 56.4688H124.281V64.625H121.594V42.1562H124.156V44.9688H124.406C124.948 44 125.693 43.2396 126.641 42.6875C127.599 42.1354 128.651 41.8594 129.797 41.8594ZM129.156 56.875C130.698 56.875 131.906 56.3177 132.781 55.2031C133.656 54.0885 134.094 52.5469 134.094 50.5781C134.094 48.6094 133.656 47.0677 132.781 45.9531C131.917 44.8385 130.714 44.2812 129.172 44.2812C127.651 44.2812 126.443 44.849 125.547 45.9844C124.651 47.1094 124.203 48.6406 124.203 50.5781C124.203 52.5052 124.646 54.0365 125.531 55.1719C126.427 56.3073 127.635 56.875 129.156 56.875ZM149.391 53.1094H152.234C152.411 54.2865 153.021 55.224 154.062 55.9219C155.104 56.6198 156.427 56.9688 158.031 56.9688C159.552 56.9688 160.807 56.6042 161.797 55.875C162.797 55.1354 163.297 54.2083 163.297 53.0938C163.297 52.1354 162.932 51.3438 162.203 50.7188C161.474 50.0833 160.333 49.5677 158.781 49.1719L155.891 48.4219C153.849 47.9115 152.365 47.1719 151.438 46.2031C150.51 45.2344 150.047 43.9479 150.047 42.3438C150.047 40.4271 150.776 38.8802 152.234 37.7031C153.703 36.5156 155.63 35.9219 158.016 35.9219C160.193 35.9219 162.016 36.5052 163.484 37.6719C164.953 38.8385 165.745 40.3333 165.859 42.1562H163.031C162.833 41 162.281 40.099 161.375 39.4531C160.479 38.7969 159.328 38.4688 157.922 38.4688C156.422 38.4688 155.214 38.8177 154.297 39.5156C153.391 40.2031 152.938 41.1146 152.938 42.25C152.938 43.1354 153.271 43.8542 153.938 44.4062C154.615 44.9583 155.729 45.4323 157.281 45.8281L159.641 46.4531C161.974 47.0365 163.646 47.8177 164.656 48.7969C165.677 49.776 166.188 51.0938 166.188 52.75C166.188 54.8229 165.427 56.474 163.906 57.7031C162.385 58.9219 160.339 59.5312 157.766 59.5312C155.38 59.5312 153.422 58.9479 151.891 57.7812C150.37 56.6146 149.536 55.0573 149.391 53.1094ZM171.656 37.7969H174.344V42.1562H178.094V44.4062H174.344V53.9375C174.344 54.9271 174.542 55.6458 174.938 56.0938C175.333 56.5417 175.969 56.7656 176.844 56.7656C177.229 56.7656 177.646 56.7448 178.094 56.7031V58.9688C177.5 59.0729 176.974 59.125 176.516 59.125C174.776 59.125 173.531 58.776 172.781 58.0781C172.031 57.3802 171.656 56.2292 171.656 54.625V44.4062H168.938V42.1562H171.656V37.7969ZM194.5 56.9688C193.115 58.5208 191.224 59.2969 188.828 59.2969C186.432 59.2969 184.536 58.5208 183.141 56.9688C181.755 55.4062 181.062 53.276 181.062 50.5781C181.062 47.8698 181.755 45.7396 183.141 44.1875C184.526 42.6354 186.422 41.8594 188.828 41.8594C191.234 41.8594 193.13 42.6354 194.516 44.1875C195.901 45.7396 196.594 47.8698 196.594 50.5781C196.594 53.276 195.896 55.4062 194.5 56.9688ZM185.141 55.2344C186.005 56.3281 187.234 56.875 188.828 56.875C190.422 56.875 191.651 56.3281 192.516 55.2344C193.38 54.1302 193.812 52.5781 193.812 50.5781C193.812 48.5781 193.38 47.0312 192.516 45.9375C191.651 44.8333 190.422 44.2812 188.828 44.2812C187.234 44.2812 186.005 44.8333 185.141 45.9375C184.276 47.0312 183.844 48.5781 183.844 50.5781C183.844 52.5781 184.276 54.1302 185.141 55.2344ZM200.812 59V42.1562H203.375V44.6562H203.625C203.875 43.8333 204.438 43.1615 205.312 42.6406C206.188 42.1198 207.182 41.8594 208.297 41.8594C208.807 41.8594 209.255 41.8854 209.641 41.9375V44.625C209.276 44.5208 208.703 44.4688 207.922 44.4688C206.641 44.4688 205.583 44.8542 204.75 45.625C203.917 46.3958 203.5 47.375 203.5 48.5625V59H200.812ZM219.25 44.2344C217.906 44.2344 216.802 44.6875 215.938 45.5938C215.073 46.5 214.589 47.6979 214.484 49.1875H223.766C223.734 47.6979 223.307 46.5 222.484 45.5938C221.661 44.6875 220.583 44.2344 219.25 44.2344ZM223.688 54.6406H226.375C225.969 56.099 225.141 57.2396 223.891 58.0625C222.651 58.8854 221.115 59.2969 219.281 59.2969C216.948 59.2969 215.099 58.5156 213.734 56.9531C212.37 55.3802 211.688 53.2604 211.688 50.5938C211.688 47.9375 212.375 45.8177 213.75 44.2344C215.125 42.651 216.969 41.8594 219.281 41.8594C221.552 41.8594 223.339 42.6146 224.641 44.125C225.943 45.6354 226.594 47.7031 226.594 50.3281V51.3594H214.484V51.4844C214.557 53.151 215.026 54.474 215.891 55.4531C216.766 56.4323 217.917 56.9219 219.344 56.9219C221.521 56.9219 222.969 56.1615 223.688 54.6406Z" fill="white"/>
<path d="M36.7295 61C29.4368 60.958 23.4045 46.0712 23.4045 38.4897C23.4045 26.1053 32.6949 23.394 36.2753 23.394C37.8889 23.394 39.6118 24.0277 41.1315 24.5884C42.1942 24.9795 43.2932 25.3833 43.9045 25.3833C44.2703 25.3833 45.1325 25.0398 45.8938 24.7385C47.5172 24.0922 49.5373 23.2889 51.8897 23.2889C51.8939 23.2889 51.8995 23.2889 51.9036 23.2889C53.6602 23.2889 58.986 23.6744 62.188 28.4829L62.938 29.61L61.8586 30.4246C60.3165 31.5881 57.5028 33.7106 57.5028 37.915C57.5028 42.8945 60.6894 44.8095 62.2202 45.7306C62.896 46.1371 63.5955 46.5563 63.5955 47.4731C63.5955 48.0717 58.8178 60.9257 51.8798 60.9257C50.1821 60.9257 48.9821 60.4154 47.9236 59.9654C46.8526 59.5098 45.9287 59.1173 44.402 59.1173C43.6282 59.1173 42.6496 59.4832 41.6136 59.8716C40.1979 60.3999 38.5954 61 36.7772 61H36.7295Z" fill="white"/>
<path d="M52.6246 12C52.8053 18.5151 48.146 23.035 43.4922 22.7515C42.7253 17.5522 48.1454 12 52.6246 12Z" fill="white"/>
</svg>
