<svg width="39" height="39" viewBox="0 0 39 39" fill="none" xmlns="http://www.w3.org/2000/svg">
<path d="M28.8677 11.1262L20.7487 19.2452L28.8677 27.3643C29.2829 27.7795 29.2829 28.4527 28.8677 28.8679C28.4525 29.2831 27.7794 29.2831 27.3642 28.8679L19.2451 20.7488L11.126 28.8679C10.7108 29.2831 10.0377 29.2831 9.6225 28.8679C9.2073 28.4527 9.2073 27.7795 9.6225 27.3643L17.7416 19.2452L9.6225 11.1262C9.2073 10.711 9.2073 10.0378 9.6225 9.62262C10.0377 9.20742 10.7108 9.20742 11.126 9.62262L19.2451 17.7417L27.3642 9.62262C27.7794 9.20742 28.4525 9.20742 28.8677 9.62262C29.2829 10.0378 29.2829 10.711 28.8677 11.1262Z" fill="white" fill-opacity="0.5"/>
</svg>
