<svg xmlns="http://www.w3.org/2000/svg" viewBox="0 0 179.15 39">
    <defs>
        <style>.cls-1{fill:#56bfbd;}.cls-2{fill:#fff;}</style>
    </defs>

    <g id="Слой_2" data-name="Слой 2">
        <g id="Слой_1-2" data-name="Слой 1">
            <path class="cls-1"
                  d="M33.81,28.93l0,9.71H32.66l0-10.16.18-.17a15.45,15.45,0,0,0,5-11.39,16.07,16.07,0,0,0-16-15.85A16.44,16.44,0,0,0,10.25,5.62a15.47,15.47,0,0,0-4.6,13.89l0,.18L1.19,27.91a.56.56,0,0,0,.5.81H4.44a1,1,0,0,1,1,1v5.47a2.7,2.7,0,0,0,1,2.09,2.88,2.88,0,0,0,2.28.63l14.52-2.28a2.77,2.77,0,0,0,2.38-2.72v-9a6.76,6.76,0,1,1,1.12,0v9a3.86,3.86,0,0,1-3.32,3.8L8.87,39a4,4,0,0,1-3.19-.87,3.81,3.81,0,0,1-1.39-2.93V29.82H1.69A1.73,1.73,0,0,1,.24,29a1.64,1.64,0,0,1,0-1.63L4.51,19.5a17.83,17.83,0,0,1-.22-2.63A17,17,0,0,1,17.22.56a17.56,17.56,0,0,1,19.51,8A16.55,16.55,0,0,1,33.81,28.93Zm-2-11.62a5.64,5.64,0,1,0-5.64,5.5A5.56,5.56,0,0,0,31.79,17.31Z"/>
            <path class="cls-2" d="M62.44,27.28H59.18v-6.5h-7v6.5H48.91V11.72h3.26V18h7V11.72h3.26Z"/>
            <path class="cls-2"
                  d="M67.38,31.61q-1,0-1.2,0V29.05a5.06,5.06,0,0,0,.71,0,2.79,2.79,0,0,0,1.41-.3,1.65,1.65,0,0,0,.7-1l.1-.43-4.17-12h3.46l2.5,9h.2l2.5-9h3.32l-4.1,12.09a6.48,6.48,0,0,1-2,3.21A5.63,5.63,0,0,1,67.38,31.61Z"/>
            <path class="cls-2"
                  d="M86,15.19a4.27,4.27,0,0,1,3.55,1.63,7,7,0,0,1,1.3,4.51,7.09,7.09,0,0,1-1.29,4.5A4.21,4.21,0,0,1,86,27.47a4.43,4.43,0,0,1-2.21-.53,3.23,3.23,0,0,1-1.38-1.48h-.2v5.77H79.09V15.38h3v2h.19a3.61,3.61,0,0,1,1.44-1.58A4.27,4.27,0,0,1,86,15.19ZM84.9,24.84a2.34,2.34,0,0,0,2-.93,4.12,4.12,0,0,0,.71-2.58,4.17,4.17,0,0,0-.71-2.57,2.54,2.54,0,0,0-3.95,0,4.07,4.07,0,0,0-.73,2.57,4.15,4.15,0,0,0,.72,2.57A2.37,2.37,0,0,0,84.9,24.84Z"/>
            <path class="cls-2"
                  d="M93.37,27.28V15.38h3v1.91h.19a3.33,3.33,0,0,1,1.32-1.59,4,4,0,0,1,2.2-.57,3.85,3.85,0,0,1,3,1.16,4.73,4.73,0,0,1,1,3.3v7.69h-3.14V20.34c0-1.67-.72-2.51-2.18-2.51a2.22,2.22,0,0,0-1.73.71,2.72,2.72,0,0,0-.63,1.88v6.86Z"/>
            <path class="cls-2"
                  d="M116.81,25.89a6.43,6.43,0,0,1-8.6,0,6.37,6.37,0,0,1-1.56-4.56,6.38,6.38,0,0,1,1.57-4.55,6.4,6.4,0,0,1,8.58,0,6.34,6.34,0,0,1,1.57,4.55A6.37,6.37,0,0,1,116.81,25.89Zm-4.3-.92a2.23,2.23,0,0,0,1.94-.95,4.53,4.53,0,0,0,.69-2.69,4.52,4.52,0,0,0-.69-2.68,2.44,2.44,0,0,0-3.88,0,4.52,4.52,0,0,0-.69,2.68,4.61,4.61,0,0,0,.68,2.69A2.25,2.25,0,0,0,112.51,25Z"/>
            <path class="cls-2"
                  d="M127.8,15.19a4.3,4.3,0,0,1,3.56,1.63,7.1,7.1,0,0,1,1.29,4.51,7.15,7.15,0,0,1-1.28,4.5,4.24,4.24,0,0,1-3.52,1.64,4.43,4.43,0,0,1-2.21-.53,3.23,3.23,0,0,1-1.38-1.48h-.2v5.77h-3.14V15.38h3v2h.19a3.63,3.63,0,0,1,1.45-1.58A4.21,4.21,0,0,1,127.8,15.19Zm-1.07,9.65a2.34,2.34,0,0,0,2-.93,4.12,4.12,0,0,0,.71-2.58,4.11,4.11,0,0,0-.71-2.57,2.54,2.54,0,0,0-4,0,4.07,4.07,0,0,0-.73,2.57,4.15,4.15,0,0,0,.72,2.57A2.38,2.38,0,0,0,126.73,24.84Z"/>
            <path class="cls-2"
                  d="M142.9,23.9h2.92A4.18,4.18,0,0,1,144,26.57a6.33,6.33,0,0,1-3.63,1,5.51,5.51,0,0,1-4.23-1.62,6.34,6.34,0,0,1-1.53-4.53,6.51,6.51,0,0,1,1.54-4.58,6.09,6.09,0,0,1,8.29-.1,6.26,6.26,0,0,1,1.47,4.42v1h-8.17v.17a3,3,0,0,0,.76,2.09,2.55,2.55,0,0,0,2,.77,3.4,3.4,0,0,0,1.55-.31A1.85,1.85,0,0,0,142.9,23.9Zm-2.55-6.37a2.47,2.47,0,0,0-1.79.7,2.85,2.85,0,0,0-.8,1.86h5.07a2.73,2.73,0,0,0-.71-1.87A2.35,2.35,0,0,0,140.35,17.53Z"/>
            <path class="cls-2"
                  d="M152.75,27.47a4.28,4.28,0,0,1-3.55-1.65,7.13,7.13,0,0,1-1.3-4.5,7.06,7.06,0,0,1,1.3-4.48,4.28,4.28,0,0,1,3.55-1.65,4.11,4.11,0,0,1,2.14.56,3.47,3.47,0,0,1,1.41,1.53h.18V10.84h3.14V27.28h-3V25.42h-.2a3.45,3.45,0,0,1-1.43,1.5A4.43,4.43,0,0,1,152.75,27.47Zm3-8.7a2.36,2.36,0,0,0-2-.95,2.31,2.31,0,0,0-2,.94,4.11,4.11,0,0,0-.72,2.57,4.19,4.19,0,0,0,.71,2.58,2.56,2.56,0,0,0,3.95,0,4.11,4.11,0,0,0,.72-2.57A4.13,4.13,0,0,0,155.79,18.77Z"/>
            <path class="cls-2"
                  d="M164.47,13.72a2,2,0,0,1-1.35-.44,1.56,1.56,0,0,1,0-2.29,2.29,2.29,0,0,1,2.7,0,1.54,1.54,0,0,1,0,2.29A2,2,0,0,1,164.47,13.72ZM162.9,27.28V15.38H166v11.9Z"/>
            <path class="cls-2"
                  d="M172.47,27.47a4,4,0,0,1-2.81-1,3.31,3.31,0,0,1-1.09-2.6,3,3,0,0,1,1.19-2.52,6.11,6.11,0,0,1,3.42-1.06l2.88-.17v-1a1.39,1.39,0,0,0-.52-1.15,2.38,2.38,0,0,0-1.49-.4c-1.16,0-1.88.36-2.15,1.1H169a3.43,3.43,0,0,1,1.56-2.62,6.37,6.37,0,0,1,3.65-1,5.62,5.62,0,0,1,3.64,1,3.65,3.65,0,0,1,1.29,3v8.12h-3V25.73h-.19A3.18,3.18,0,0,1,174.54,27,4.69,4.69,0,0,1,172.47,27.47Zm1-2.37a2.72,2.72,0,0,0,1.82-.61,1.92,1.92,0,0,0,.74-1.52v-.88l-2.41.16c-1.34.09-2,.57-2,1.43a1.22,1.22,0,0,0,.51,1A2.15,2.15,0,0,0,173.5,25.1Z"/>
        </g>
    </g>
</svg>