<svg id="Слой_1" data-name="Слой 1" xmlns="http://www.w3.org/2000/svg" viewBox="0 0 26.38 26.38"><defs><style>.cls-1{fill:#a997df;}.cls-2{fill:#fff;}</style></defs><title>1</title><circle class="cls-1" cx="13.19" cy="13.19" r="13"/><path class="cls-2" d="M20.81,18.93A8,8,0,0,0,15.35,13a4.36,4.36,0,0,0,2-3.69A4.25,4.25,0,0,0,13.19,5,4.25,4.25,0,0,0,9,9.34,4.38,4.38,0,0,0,11,13a8,8,0,0,0-5.46,5.9,2,2,0,0,0,.35,1.65,1.93,1.93,0,0,0,1.54.79H18.92a1.92,1.92,0,0,0,1.54-.79A2,2,0,0,0,20.81,18.93ZM10,9.34A3.32,3.32,0,0,1,13.19,6a3.32,3.32,0,0,1,3.24,3.38,3.31,3.31,0,0,1-3.24,3.37A3.31,3.31,0,0,1,10,9.34ZM19.75,20a1.09,1.09,0,0,1-.83.42H7.45A1.07,1.07,0,0,1,6.63,20a1,1,0,0,1-.18-.84,7,7,0,0,1,6.74-5.5,7,7,0,0,1,6.74,5.5A1,1,0,0,1,19.75,20Z"/></svg>