<svg id="Слой_1" data-name="Слой 1" xmlns="http://www.w3.org/2000/svg" viewBox="0 0 26.38 26.38"><defs><style>.cls-1{fill:#ef626c;}.cls-2{fill:#fff;}</style></defs><title>3</title><circle class="cls-1" cx="13.19" cy="13.19" r="13"/><path class="cls-2" d="M21.62,14.18a4.19,4.19,0,0,1-4.27,4.09.48.48,0,0,1-.43-.27.44.44,0,0,1,.08-.5.53.53,0,0,1,.4-.15,3.17,3.17,0,1,0,0-6.34H16.27a.48.48,0,0,1-.45-.31A5.25,5.25,0,0,0,9.75,7.51a5,5,0,0,0-4,5.41,5.14,5.14,0,0,0,5.15,4.44.48.48,0,0,1,.46.26.44.44,0,0,1-.1.51.48.48,0,0,1-.34.14,6.09,6.09,0,0,1-6.11-5.12,5.91,5.91,0,0,1,4.5-6.48,6.24,6.24,0,0,1,7.29,3.42h.75A4.19,4.19,0,0,1,21.62,14.18Zm-6.08,1.33H12.43l1.49-2.32a.44.44,0,0,0-.16-.61.5.5,0,0,0-.65.13l-1.94,3a.43.43,0,0,0,0,.46.46.46,0,0,0,.41.24h3.16L13.1,19.24a.43.43,0,0,0,0,.45.45.45,0,0,0,.41.22.47.47,0,0,0,.41-.23l2-3.49a.43.43,0,0,0,0-.45.49.49,0,0,0-.41-.23Z"/></svg>