<?xml version="1.0" encoding="utf-8"?>
<!-- Generator: Adobe Illustrator 22.1.0, SVG Export Plug-In . SVG Version: 6.00 Build 0)  -->
<svg version="1.1" id="Слой_1" xmlns="http://www.w3.org/2000/svg" xmlns:xlink="http://www.w3.org/1999/xlink" x="0px" y="0px"
	 viewBox="0 0 92 92" style="enable-background:new 0 0 92 92;" xml:space="preserve">
<style type="text/css">
	.st0{fill:#56BFBD;}
</style>
<g>
	<path class="st0" d="M46,1.1C21.2,1.1,1,21.2,1,46s20.1,45,45,45s45-20.1,45-45S70.8,1.1,46,1.1z M46,85.8C24,85.8,6.2,68,6.2,46
		S24,6.2,46,6.2S85.8,24.1,85.8,46S68,85.8,46,85.8z"/>
	<path class="st0" d="M62.6,44.2l-22.5-13c-1.4-0.8-3.3,0.2-3.3,1.9v26c0,1.7,1.8,2.7,3.3,1.9l22.5-13C64,47.1,64,45,62.6,44.2z"/>
</g>
</svg>
