<svg width="70" height="54" viewBox="0 0 70 54" fill="none" xmlns="http://www.w3.org/2000/svg">
<path d="M35.0001 53.25C26.2707 53.2484 17.5499 52.7223 8.88412 51.6748C4.98708 51.1599 1.90352 48.1243 1.32719 44.2363C-0.442397 32.811 -0.442397 21.181 1.32719 9.75568C1.90352 5.86764 4.98708 2.8321 8.88412 2.31718C26.2317 0.227607 43.7679 0.227607 61.116 2.31718C65.0125 2.8321 68.0961 5.86764 68.6724 9.75568C70.4425 21.181 70.4425 32.811 68.6724 44.2363C68.0961 48.1243 65.0125 51.1599 61.116 51.6748C52.4497 52.7223 43.7289 53.2484 35.0001 53.25Z" fill="#FF4C4D"/>
<path d="M26.25 42.3125V12.7812L50.3125 27.5466L26.25 42.3125Z" fill="white"/>
</svg>
