<?xml version="1.0" encoding="utf-8"?>
<!-- Generator: Adobe Illustrator 23.0.1, SVG Export Plug-In . SVG Version: 6.00 Build 0)  -->
<svg version="1.1" id="Слой_1" xmlns="http://www.w3.org/2000/svg" xmlns:xlink="http://www.w3.org/1999/xlink" x="0px" y="0px"
	 viewBox="0 0 173 38" style="enable-background:new 0 0 173 38;" xml:space="preserve">
<style type="text/css">
	.st0{fill:#56BFBD;}
	.st1{fill:#222222;}
</style>
<path class="st0" d="M20.48,18.33c-0.2-1.66,0.38-3.31,1.59-4.49c1.2-1.18,2.89-1.75,4.58-1.54c2.48,0.38,4.43,2.28,4.83,4.72
	c0.21,1.66-0.37,3.33-1.58,4.51c-1.2,1.19-2.89,1.77-4.59,1.57C22.81,22.72,20.85,20.79,20.48,18.33L20.48,18.33z M36.34,8.31
	c-3.95-6.53-11.83-9.69-19.3-7.74C9.6,2.37,4.35,8.89,4.27,16.42c0,0.88,0.07,1.75,0.21,2.62l-4.26,7.61
	c-0.29,0.49-0.29,1.09,0,1.58c0.32,0.48,0.86,0.77,1.44,0.77h2.61v5.23c0,1.09,0.48,2.13,1.33,2.84c0.89,0.73,2.05,1.05,3.19,0.88
	l14.36-2.21c1.88-0.26,3.28-1.84,3.29-3.7l0-7.85c3.3-0.27,5.9-2.88,6.1-6.12c0.12-1.83-0.56-3.63-1.88-4.92
	c-1.32-1.3-3.15-1.97-5.01-1.85c-3.35,0.27-5.95,2.98-6.04,6.28c-0.09,3.3,2.37,6.13,5.7,6.57l0,7.85c0.01,1.33-1,2.46-2.34,2.62
	L8.62,36.83c-0.8,0.13-1.63-0.09-2.25-0.6c-0.64-0.49-1.01-1.23-1.02-2.03v-5.32c-0.01-0.52-0.44-0.94-0.97-0.94l-2.66,0
	c-0.19,0.01-0.38-0.09-0.48-0.25c-0.1-0.17-0.1-0.37,0-0.54l4.43-7.98v-0.18c-0.89-4.96,0.8-10.03,4.5-13.51
	c3.1-2.89,7.23-4.48,11.5-4.42c8.66,0.04,15.69,6.89,15.81,15.4c-0.02,4.2-1.82,8.2-4.96,11.04l-0.17,0.16v9.88h1.12v-9.38
	C38.99,23,40.19,14.78,36.34,8.31L36.34,8.31z"/>
<polygon class="st1" points="61.45,27.04 58.29,27.04 58.29,20.74 51.52,20.74 51.52,27.04 48.35,27.04 48.35,11.98 51.5,11.98 
	51.5,18.05 58.28,18.05 58.28,11.98 61.43,11.98 "/>
<path class="st1" d="M65.95,31.1c-0.64,0-1.02,0-1.16,0v-2.48c0.23,0.01,0.46,0.01,0.69,0c0.46,0.02,0.92-0.09,1.33-0.31
	c0.34-0.22,0.58-0.56,0.68-0.94l0.11-0.41L63.6,15.38h3.35l2.41,8.74h0.19l2.48-8.72h3.21L71.24,27.1c-0.32,1.2-1,2.28-1.96,3.07
	C68.31,30.84,67.13,31.17,65.95,31.1z"/>
<path class="st1" d="M82.64,24.55c0.75,0.04,1.46-0.3,1.92-0.89c0.5-0.73,0.75-1.61,0.69-2.5c0.05-0.88-0.19-1.76-0.69-2.49
	c-0.47-0.57-1.17-0.91-1.91-0.91c-0.74,0-1.44,0.33-1.91,0.91c-0.5,0.73-0.75,1.6-0.71,2.49c-0.04,0.88,0.2,1.75,0.71,2.48
	c0.44,0.61,1.15,0.96,1.9,0.93L82.64,24.55z M83.68,15.23c1.34-0.04,2.62,0.57,3.43,1.64c0.9,1.27,1.35,2.81,1.25,4.37
	c0.09,1.55-0.35,3.08-1.24,4.35c-0.82,1.01-2.07,1.58-3.37,1.52c-0.75,0.02-1.49-0.16-2.14-0.52c-0.59-0.31-1.06-0.81-1.33-1.42
	h-0.2v5.58h-3.06V15.42h2.94v1.89h0.2c0.3-0.64,0.79-1.18,1.4-1.53C82.21,15.41,82.94,15.22,83.68,15.23L83.68,15.23z"/>
<path class="st1" d="M90.59,27V15.48h2.94v1.85h0.19c0.27-0.64,0.73-1.18,1.33-1.54c0.64-0.39,1.38-0.58,2.13-0.56
	c1.09-0.08,2.16,0.33,2.91,1.12c0.72,0.92,1.06,2.08,0.96,3.25l0,7.44h-3.03v-6.65c0-1.62-0.71-2.42-2.12-2.42
	c-0.63-0.03-1.24,0.22-1.66,0.68c-0.42,0.51-0.64,1.16-0.61,1.82v6.65L90.59,27z"/>
<path class="st1" d="M108.86,24.76c0.74,0.03,1.45-0.32,1.88-0.93c0.49-0.77,0.72-1.68,0.67-2.6c0.05-0.91-0.18-1.82-0.68-2.58
	c-0.44-0.59-1.14-0.93-1.87-0.93c-0.73,0-1.43,0.34-1.87,0.93c-0.5,0.77-0.73,1.67-0.68,2.58c-0.05,0.91,0.18,1.82,0.67,2.6
	C107.4,24.44,108.11,24.79,108.86,24.76L108.86,24.76z M113.01,25.64c-2.36,2.13-5.95,2.13-8.32,0c-1.04-1.22-1.57-2.8-1.46-4.41
	c-0.09-1.61,0.46-3.19,1.52-4.41c2.35-2.13,5.94-2.13,8.29,0c1.06,1.21,1.61,2.8,1.52,4.41C114.65,22.85,114.09,24.43,113.01,25.64
	L113.01,25.64z"/>
<path class="st1" d="M122.36,24.55c0.74,0.04,1.46-0.29,1.92-0.88c0.5-0.73,0.75-1.61,0.69-2.5c0.05-0.88-0.19-1.76-0.69-2.49
	c-0.47-0.57-1.17-0.91-1.91-0.91s-1.44,0.33-1.91,0.91c-0.5,0.73-0.75,1.6-0.71,2.49c-0.05,0.88,0.19,1.75,0.69,2.48
	c0.45,0.61,1.16,0.95,1.92,0.92L122.36,24.55z M123.39,15.23c1.34-0.04,2.62,0.57,3.43,1.64c0.9,1.27,1.35,2.81,1.25,4.37
	c0.09,1.55-0.35,3.08-1.24,4.35c-0.81,1.05-2.08,1.64-3.41,1.58c-0.74,0.02-1.48-0.16-2.13-0.52c-0.59-0.32-1.05-0.82-1.33-1.42
	l-0.19,0v5.58h-3.05V15.42h2.94v1.89h0.19c0.29-0.63,0.75-1.16,1.33-1.53C121.87,15.4,122.63,15.21,123.39,15.23z"/>
<path class="st1" d="M135.3,17.56c-0.65-0.02-1.28,0.22-1.74,0.68c-0.47,0.48-0.74,1.12-0.76,1.8h4.9c0-0.67-0.24-1.32-0.69-1.81
	C136.55,17.77,135.93,17.53,135.3,17.56L135.3,17.56z M137.76,23.71h2.82c-0.22,1.05-0.85,1.96-1.74,2.54
	c-1.05,0.67-2.27,1-3.51,0.94c-1.53,0.09-3.02-0.48-4.1-1.57c-1.04-1.21-1.57-2.77-1.46-4.37c-0.09-1.62,0.44-3.2,1.48-4.45
	c1.04-1.09,2.49-1.68,3.99-1.62c1.49-0.09,2.95,0.47,3.99,1.53c1.01,1.19,1.52,2.73,1.42,4.29v0.93h-7.89v0.15
	c-0.02,0.75,0.24,1.47,0.73,2.04c0.5,0.5,1.18,0.77,1.89,0.75c0.52,0.02,1.03-0.09,1.5-0.31C137.27,24.39,137.58,24.09,137.76,23.71
	z"/>
<path class="st1" d="M149.64,18.81c-0.47-0.57-1.17-0.91-1.91-0.91c-0.74,0-1.44,0.33-1.91,0.91c-0.5,0.73-0.74,1.61-0.69,2.49
	c-0.05,0.89,0.19,1.77,0.69,2.5c0.45,0.59,1.16,0.93,1.9,0.89c0.75,0.03,1.46-0.3,1.92-0.89c0.5-0.73,0.74-1.61,0.69-2.49
	C150.38,20.42,150.14,19.54,149.64,18.81L149.64,18.81z M146.7,27.22c-1.34,0.05-2.61-0.54-3.43-1.6c-0.9-1.27-1.34-2.8-1.25-4.35
	c-0.09-1.55,0.36-3.08,1.25-4.34c0.83-1.05,2.1-1.64,3.43-1.58c0.72-0.01,1.44,0.17,2.06,0.53c0.59,0.35,1.05,0.87,1.33,1.49h0.19
	v-6.23h3.03v15.97h-2.94v-1.88h-0.19c-0.28,0.61-0.75,1.12-1.33,1.45C148.2,27.06,147.45,27.24,146.7,27.22L146.7,27.22z"/>
<path class="st1" d="M156.52,27.05V15.54h3.03v11.51H156.52z M158.05,13.93c-0.48,0.04-0.96-0.12-1.33-0.43
	c-0.31-0.28-0.49-0.68-0.49-1.1s0.18-0.82,0.49-1.1c0.37-0.31,0.85-0.46,1.33-0.43c0.48-0.03,0.96,0.12,1.33,0.43
	c0.32,0.28,0.49,0.68,0.48,1.1c0.02,0.43-0.16,0.84-0.49,1.1C159,13.81,158.53,13.96,158.05,13.93L158.05,13.93z"/>
<path class="st1" d="M166.77,24.88c0.64,0.02,1.26-0.19,1.76-0.59c0.45-0.35,0.71-0.9,0.71-1.48l0-0.84l-2.32,0.15
	c-1.33,0.08-1.94,0.55-1.94,1.33c-0.02,0.39,0.17,0.77,0.49,1c0.37,0.3,0.83,0.46,1.3,0.47V24.88z M165.76,27.17
	c-0.97,0.02-1.92-0.32-2.66-0.94c-0.7-0.65-1.08-1.56-1.05-2.52c-0.04-0.96,0.39-1.87,1.16-2.45c0.97-0.66,2.12-1.02,3.3-1.02
	l2.78-0.16v-0.94c0.02-0.43-0.16-0.84-0.49-1.1c-0.42-0.29-0.93-0.43-1.44-0.4c-1.13,0-1.82,0.36-2.08,1.06h-2.8
	c0.08-1.03,0.63-1.97,1.5-2.53c1.06-0.66,2.28-0.98,3.53-0.93c1.26-0.08,2.51,0.29,3.53,1.02c0.84,0.71,1.3,1.78,1.24,2.87l0,7.87
	h-2.94v-1.5h-0.19c-0.31,0.53-0.78,0.96-1.33,1.24C167.18,27.04,166.47,27.19,165.76,27.17z"/>
</svg>
