<svg id="Слой_1" data-name="Слой 1" xmlns="http://www.w3.org/2000/svg" viewBox="0 0 26.38 26.38"><defs><style>.cls-1{fill:#6f9ceb;}.cls-2{fill:#fff;}</style></defs><title>2</title><circle class="cls-1" cx="13.19" cy="13.19" r="13"/><path class="cls-2" d="M18.22,8.76h-.79C16.07,6,12.58,4.6,9.25,5.38s-5.48,3.54-5,6.47S7.61,17,11.07,17h7.15c2.65,0,4.8-1.83,4.8-4.09s-2.15-4.1-4.8-4.1ZM18.28,16H11c-2.9,0-5.33-1.9-5.64-4.37S7,6.84,9.79,6.29a5.94,5.94,0,0,1,6.67,3.14.6.6,0,0,0,.56.33h1.2a3.39,3.39,0,0,1,3.6,3.07,3.36,3.36,0,0,1-3.54,3.11Zm-6.8,2.56-1.09,2.56a.57.57,0,0,1-.45.33.65.65,0,0,1-.57-.17.46.46,0,0,1-.09-.51l1.09-2.56a.6.6,0,0,1,.46-.34.66.66,0,0,1,.56.18.44.44,0,0,1,.09.51Zm3.7,0-1.77,4.14A.6.6,0,0,1,13,23a.68.68,0,0,1-.57-.18.46.46,0,0,1-.09-.51l1.77-4.14a.6.6,0,0,1,.45-.34.68.68,0,0,1,.57.18A.46.46,0,0,1,15.18,18.51Zm3.69,0-1.09,2.56a.57.57,0,0,1-.45.33.67.67,0,0,1-.57-.17.46.46,0,0,1-.09-.51l1.09-2.56a.57.57,0,0,1,.45-.33.68.68,0,0,1,.57.17A.46.46,0,0,1,18.87,18.51Z"/></svg>