<svg xmlns="http://www.w3.org/2000/svg" viewBox="0 0 158.95 100"><defs><style>.cls-1{fill:#fff;}.cls-2{fill:#56bfbd;}</style></defs><title>Синхрон</title><g id="Слой_2" data-name="Слой 2"><g id="Слой_1-2" data-name="Слой 1"><path class="cls-1" d="M150.5,0H113.73a8.45,8.45,0,0,0-8.45,8.45v83.1a8.45,8.45,0,0,0,8.45,8.45H150.5A8.45,8.45,0,0,0,159,91.55V8.45A8.45,8.45,0,0,0,150.5,0ZM154,91.55A3.49,3.49,0,0,1,150.5,95H113.73a3.49,3.49,0,0,1-3.49-3.49V8.45A3.49,3.49,0,0,1,113.73,5h3.62a1,1,0,0,1,.94.67l1.22,3.49v0h25.21v0l1.22-3.49a1,1,0,0,1,.94-.67h3.62A3.49,3.49,0,0,1,154,8.45Z"/><path class="cls-1" d="M41.09,81H9.8A9.81,9.81,0,0,1,0,71.17V39.37a9.82,9.82,0,0,1,9.8-9.8H41.09a9.82,9.82,0,0,1,9.8,9.8v31.8A9.81,9.81,0,0,1,41.09,81ZM9.8,34.53A4.84,4.84,0,0,0,5,39.37v31.8A4.84,4.84,0,0,0,9.8,76H41.09a4.84,4.84,0,0,0,4.84-4.84V39.37a4.84,4.84,0,0,0-4.84-4.84Z"/><path class="cls-1" d="M41.91,34.53H9l1.51-16.1a5,5,0,0,1,4.94-4.5h20a5,5,0,0,1,4.94,4.5Zm-27.48-5h22l-.88-9.33A1.48,1.48,0,0,0,34.1,18.9H16.79a1.48,1.48,0,0,0-1.48,1.34Z"/><path class="cls-1" d="M41.91,76.1H9l1.51,16.1a5,5,0,0,0,4.94,4.5h20a5,5,0,0,0,4.94-4.5Zm-27.48,5h22l-.88,9.32a1.48,1.48,0,0,1-1.48,1.35H16.79a1.48,1.48,0,0,1-1.48-1.35Z"/><circle class="cls-1" cx="89.32" cy="53.44" r="3.47"/><path class="cls-1" d="M82,61.52a1.72,1.72,0,0,0-.35-1,11.68,11.68,0,0,1,0-14.13,1.67,1.67,0,0,0,.35-1v-.09a1.72,1.72,0,0,0-3.1-1,15.17,15.17,0,0,0,0,18.38,1.72,1.72,0,0,0,3.1-1Z"/><path class="cls-1" d="M72.88,65.56a1.7,1.7,0,0,0-.49-1.18,15.71,15.71,0,0,1,0-21.89,1.7,1.7,0,0,0,.49-1.18v-.08A1.71,1.71,0,0,0,70,40a19.17,19.17,0,0,0,0,26.86,1.72,1.72,0,0,0,2.92-1.23Z"/><path class="cls-2" d="M25.44,47.33a7.95,7.95,0,1,0,8,7.94A7.94,7.94,0,0,0,25.44,47.33Zm3,8.54H26v2.4a.6.6,0,1,1-1.19,0v-2.4H22.44a.59.59,0,0,1-.59-.6.58.58,0,0,1,.59-.59h2.41V52.27a.6.6,0,1,1,1.19,0v2.41h2.41a.58.58,0,0,1,.59.59A.59.59,0,0,1,28.45,55.87Z"/></g></g></svg>