<svg id="Слой_1" data-name="Слой 1" xmlns="http://www.w3.org/2000/svg" xmlns:xlink="http://www.w3.org/1999/xlink" viewBox="0 0 1440 401.12"><defs><style>.cls-1{fill:none;}.cls-2{clip-path:url(#clip-path);}.cls-3{fill:#24375f;}.cls-4{fill:#3b5793;}.cls-5{fill:#2c4177;}.cls-6{fill:#283d6c;}.cls-7{fill:#1c2d43;}.cls-8{fill:#324e86;}</style><clipPath id="clip-path"><rect class="cls-1" width="1440" height="401.12"/></clipPath></defs><title>Forest</title><g class="cls-2"><path class="cls-3" d="M782.68,146.52a1.58,1.58,0,0,1,.73-.56,1.54,1.54,0,0,1,.46-.11,2.62,2.62,0,0,1,.57.05,4.3,4.3,0,0,0,1.89,0,5,5,0,0,0,1.64-.81,14.69,14.69,0,0,0,2.26-2.28,5.19,5.19,0,0,1,2.16-1.63,10.6,10.6,0,0,1,2.9-.27,8.14,8.14,0,0,0,1.6-.2,6.79,6.79,0,0,0,1.5-.59,17,17,0,0,0,2.62-1.66,5.15,5.15,0,0,0,1.14-1.1,1.44,1.44,0,0,0,.11-1.58l-.17.11a1.19,1.19,0,0,1-.19,1.29,5,5,0,0,1-1.14.93,16.83,16.83,0,0,1-2.65,1.41,5.84,5.84,0,0,1-2.82.49,11.2,11.2,0,0,0-3.2.08,6.43,6.43,0,0,0-2.84,1.77,13.22,13.22,0,0,1-2.18,1.9,3.21,3.21,0,0,1-1.12.46,2.47,2.47,0,0,1-1.14-.11,4.07,4.07,0,0,0-.95-.14,3.27,3.27,0,0,0-1,.14,3.57,3.57,0,0,0-1.76,1.14Z"/><path class="cls-3" d="M791.75,141a6.08,6.08,0,0,0,1.45.8.85.85,0,0,1,.34.34,3.1,3.1,0,0,0,.41.77,1.65,1.65,0,0,0,.92.55,3.2,3.2,0,0,0,.92,0,14,14,0,0,0,1.57-.35c2-.53,3.93-1.27,5.87-1l.11-.7a9,9,0,0,0-3.19.12c-1,.2-2,.5-3,.73a11.65,11.65,0,0,1-1.44.27,1.1,1.1,0,0,1-1-.25,4.25,4.25,0,0,1-.27-.6,1.75,1.75,0,0,0-.7-.77,7.32,7.32,0,0,1-1.23-.69Z"/><path class="cls-3" d="M783.13,152.77a1.55,1.55,0,0,0-.37-1,1.76,1.76,0,0,0-.66-.48,2.16,2.16,0,0,0-1.27-.1,7.67,7.67,0,0,1-1,.27c-.07,0-.29-.12-.48-.4a4.58,4.58,0,0,1-.48-1.06c-.3-.81-.51-1.71-.83-2.64a7.8,7.8,0,0,0-1.44-2.62,4.2,4.2,0,0,1-1.12-2.18,13.25,13.25,0,0,0-.54-2.82,3,3,0,0,0-1-1.25,11.64,11.64,0,0,0-1.23-.73,3.74,3.74,0,0,1-1-.78,3.42,3.42,0,0,1-.39-.51,2.54,2.54,0,0,1-.16-.28l-.07-.14,0-.08s0-.05-.12,0l-.28.1c-.08.07-.07.09-.06.12l0,.09.06.17.16.33a4.44,4.44,0,0,0,.41.62,4.18,4.18,0,0,0,1.11,1c.82.52,1.52,1,1.74,1.72a12.78,12.78,0,0,1,.29,2.65,4.61,4.61,0,0,0,.39,1.52,8.55,8.55,0,0,0,.77,1.27c1.07,1.38,1.16,3.08,1.68,5a6.14,6.14,0,0,0,.59,1.49,2.59,2.59,0,0,0,1.62,1.3,2.42,2.42,0,0,0,1.12,0c.29-.07.49-.13.62-.15s.07,0,.08,0,0,0-.1-.07a.58.58,0,0,1-.13-.34Z"/><path class="cls-3" d="M777.29,146.4l-1.23-.38a8.87,8.87,0,0,1-1-.27c-.41-.13-.59-.91-1-1.73a1.91,1.91,0,0,0-1.18-.9,9.9,9.9,0,0,1-1.12-.26,4,4,0,0,1-1.79-1.27l-.34.24a4.46,4.46,0,0,0,1.86,1.66,11.83,11.83,0,0,0,1.14.42,1,1,0,0,1,.59.57c.13.29.21.66.36,1.08a2.32,2.32,0,0,0,.88,1.25,8.2,8.2,0,0,0,1.24.52l1,.43Z"/><path class="cls-3" d="M810.65,136.86a1.71,1.71,0,0,0-1-1.13c.74-1.59-.1-3.52-1.33-4.76a2.25,2.25,0,0,0-1-.65.92.92,0,0,0-1,.36,8.58,8.58,0,0,0-1.55-3,2.23,2.23,0,0,0-.93-.77c-.94-.33-1.87.48-2.54,1.21l-1.65,1.8a16.71,16.71,0,0,0-1.47-3.15c-.12-.19-.26-.4-.48-.45a.8.8,0,0,0-.54.1,3.44,3.44,0,0,0-1.89,2.85,1,1,0,0,0-1.07-.91,2.7,2.7,0,0,0-1.43.62,4.1,4.1,0,0,0-1.65,1.83,1.68,1.68,0,0,0,.54,1.88.52.52,0,0,0-.28,0,1.49,1.49,0,0,0,1,1.52,14.42,14.42,0,0,0,.42,1.84,2.11,2.11,0,0,0,1,1.47,1.76,1.76,0,0,0,1.89-.68c.47-.54.77-1.22,1.28-1.72a6.6,6.6,0,0,0-.09,3.58,5.49,5.49,0,0,0,1.67-1.36,4.23,4.23,0,0,0,.46,1.7,1.62,1.62,0,0,0,1,.92.81.81,0,0,0,.83-.41,12.61,12.61,0,0,0,0,2.88,1.81,1.81,0,0,0,.35,1.05,1.28,1.28,0,0,0,1.36.27,3.18,3.18,0,0,0,1.18-.85,11.82,11.82,0,0,0,1.63-2.1c.44.52.52,1.34,1.13,1.64a1.71,1.71,0,0,0,1.66-.38,7,7,0,0,0,2.16-2.23A3.88,3.88,0,0,0,810.65,136.86Z"/><path class="cls-3" d="M794.11,127.87a9.51,9.51,0,0,0-1.13-1.75,1.71,1.71,0,0,0-1-.72c-.42-.06-.91.32-.8.73a27.08,27.08,0,0,0-2.45-2.46,2.58,2.58,0,0,0-.71-.47,1.59,1.59,0,0,0-1.72.74,4.44,4.44,0,0,0-.58,1.9,3.78,3.78,0,0,0-7,2.85,6.16,6.16,0,0,0-4.36-2.24,2.22,2.22,0,0,0-1.28.09,1.92,1.92,0,0,0-.73,2.2,21.23,21.23,0,0,1,.72,2.4,3.74,3.74,0,0,0-1.77-1.86,3.27,3.27,0,0,0-2.48.41,13.56,13.56,0,0,0-3.43,2.44,2.18,2.18,0,0,0-.84,2,.47.47,0,0,0-.41.07,8.36,8.36,0,0,0-2.89,3.92,4.16,4.16,0,0,0,1.26,4.47,1.2,1.2,0,0,0,.8.28.56.56,0,0,0,.53-.55,11.39,11.39,0,0,0,1.67,2.56,1.9,1.9,0,0,0,1.37.81,1.37,1.37,0,0,0,1.14-1,3.92,3.92,0,0,0,.07-1.6,3.44,3.44,0,0,0,2.12,1.6,2.75,2.75,0,0,0,1.83.12,1.19,1.19,0,0,0,.76-1.48,2.26,2.26,0,0,0,1.75,1,2.16,2.16,0,0,0,1.21,0,1.68,1.68,0,0,0,.94-1.65,4.91,4.91,0,0,0-.58-1.92,4.68,4.68,0,0,0,1.9-.2,1.6,1.6,0,0,0,1.08-1.44,13.71,13.71,0,0,0,2.59,2.15.91.91,0,0,0,.62.2c.33-.06.5-.42.57-.74a3.05,3.05,0,0,0-.15-1.69c.48.31.54,1,.92,1.43a1.53,1.53,0,0,0,1.64.33,3.1,3.1,0,0,0,1.36-1.1,12,12,0,0,0,2-5.65l.12.76a1.41,1.41,0,0,0,1.11.81,3.85,3.85,0,0,0,1.43-.13,2.38,2.38,0,0,0,1.12-.5,1.67,1.67,0,0,0,.21-1.88,5,5,0,0,0-1.31-1.52c1.19-.08,2.63-.33,3.09-1.44A2.88,2.88,0,0,0,794.11,127.87Z"/><path class="cls-3" d="M803.68,127a1.19,1.19,0,0,0-.31-1,5.09,5.09,0,0,0-3.52-2,1.06,1.06,0,0,0,.79-1.44,2.72,2.72,0,0,0-1.35-1.3,14.21,14.21,0,0,0-2-1,2.32,2.32,0,0,0-2.2,0,2.52,2.52,0,0,0-1.73-2.26,2.69,2.69,0,0,0-2.81.8c.2-.21-.07-.51-.32-.66a11.44,11.44,0,0,0-4.56-1.47,3.27,3.27,0,0,0-1.84.2,1.32,1.32,0,0,0-.8,1.47,4.35,4.35,0,0,0-.92-1.25,1.63,1.63,0,0,0-1.48-.41,2.14,2.14,0,0,0-.94.69,12.16,12.16,0,0,0-2.25,3.51c-.39-.53-1-1.13-1.63-.9a1.18,1.18,0,0,0-.49.37,3,3,0,0,0-.74,1.57,1.1,1.1,0,0,0-1.16.59,2.84,2.84,0,0,0-.26,1.32l-.11,2.45a1.76,1.76,0,0,0-2.42,0,2.85,2.85,0,0,0-.79,2.4,15,15,0,0,0,.63,2.54l27.13.62c1.88-.2,4,.56,5.57-.38a1,1,0,0,0,.42-.41,1,1,0,0,0-.13-.81A8.94,8.94,0,0,0,802,128.2C802.54,127.77,803.51,127.71,803.68,127Z"/><path class="cls-3" d="M391.26,151.75c-2.28,4.45-5,8.92-9.11,11.71a7.76,7.76,0,0,1-4.07,1.52,3.79,3.79,0,0,1-3.59-2.07c-.55-1.31-.15-3-1.05-4.07a7.46,7.46,0,0,1-1,4.08c-.4.71-1.09,1.42-1.9,1.29a2.32,2.32,0,0,1-1.3-1,32.86,32.86,0,0,1-4.41-7.09,3.94,3.94,0,0,1-3.67,2.55,11.45,11.45,0,0,1-4.61-1,12.45,12.45,0,0,1-.14,5,4.21,4.21,0,0,1-3.51,3.13,5.5,5.5,0,0,1-2.86-.89c-1.53-.84-3.1-2-3.32-3.76.17,1.54-1.41,2.84-2.95,2.89a6.85,6.85,0,0,1-4.21-1.73c-1.79-1.36-3.47-3.18-3.72-5.42a9.83,9.83,0,0,1-1.41,3.71,3.38,3.38,0,0,1-3.45,1.46c-1.32-.37-2.08-1.72-2.6-3a27.53,27.53,0,0,1-1.91-7.32,1.39,1.39,0,0,1-1.7.88,3,3,0,0,1-1.63-1.29c-2.38-3.32-1.8-8.12.53-11.48s6.05-5.48,9.85-7c.54-.2,1.48.25,1,.58-.29-2,1.73-3.59,3.57-4.49a33.38,33.38,0,0,1,9.95-3.05c2.12-.3,4.47-.33,6.16,1s2.26,3.64,2.69,5.77c.45-2,0-4.14.2-6.21s1.39-4.35,3.45-4.6a5.57,5.57,0,0,1,3.07.8c3.73,1.86,7.36,4.66,8.5,8.67a9.34,9.34,0,0,1,18.59-1.23,11.46,11.46,0,0,1,2.85-4,3.92,3.92,0,0,1,4.62-.37,5.37,5.37,0,0,1,1.31,1.67,64.86,64.86,0,0,1,3.84,7.69c.05-1.06,1.5-1.57,2.45-1.1a4.29,4.29,0,0,1,1.83,2.51,23.84,23.84,0,0,1,1.28,5c.27,2,.24,4.14-1.05,5.63-1.95,2.24-5.51,1.69-8.39,1a12,12,0,0,1,1.9,4.59,4.16,4.16,0,0,1-2,4.26,5.81,5.81,0,0,1-3,.29,9.18,9.18,0,0,1-3.44-.82,3.48,3.48,0,0,1-2-2.77"/><path class="cls-4" d="M1132,28.81s26.25,22.82,58.87,35.78a203.44,203.44,0,0,1,28.51,13.79l143.11,84.53s-77.07-31.41-101.91-43.51l-36-24,9,23-11.88-14.12S1206.35,80,1193,73.77s-27.2,6.14-27.2,6.14-6.7-14.93-18.25-19.84c-2-.85-4-1.67-5.89-2.45A48.5,48.5,0,0,0,1108,56.55l-85.69,28.62Z"/><path class="cls-4" d="M222.89,7.82s-11,30.92-55.72,44.32c0,0-61.08,34-69.84,45s-69.75,47.45-69.75,47.45a339.31,339.31,0,0,0,56.47-21.86l42.06-28.84L115.66,121.6l13.85-17s18-29.29,33.6-36.7,17.55,3.63,17.55,3.63,22.18-14.09,35.7-20S229.63,36,229.63,36L342.41,56.83Z"/><path class="cls-5" d="M1417.89,188.25c-61.21-27.86-93.49-39.77-168.7-90.09-6.61-4.42-112.19-62.68-119.67-63.33-10.87-.95-74.59,36.87-89.41,42.82C927.27,122.93,830,206.64,752.34,235.38V482.82l957.61,78,72-181.74c-87.18-34.58-175-69.46-252.16-116.54C1491.17,239,1460.11,207.47,1417.89,188.25Z"/><path class="cls-5" d="M-3.23,163,157.56,67c3.52-2.1,7.12-4.23,11.22-5.22,5.28-1.28,10.88-.55,16.35-.26C200.62,62.39,209,36,222.89,29.94c13-5.71,32.37,9.13,46.86,8.1,9.5-.69,18.84,2.07,27.86,4.79C385.35,69.29,517,120.93,593.2,167.48c0,0-59.51,159.37-57.15,163.23C537.74,333.5,190,351-3.23,360.5Z"/><path class="cls-6" d="M1004.7,210.84c-29.12-9.63-57.93-19.91-84.06-32.8-22.4-11.06-49.5-21.25-72.13-32.11-31.16-14.94-59.42-28.46-94.29-39.18C748.73,105.07,735,95.17,729,94.89c-18.82-.87-32.65,5-49.18,11.07-18.13,6.66-26.78,5.06-45,14.35-20.87,10.64-55.58,21.29-77.44,31-47.76,21.25-93.93,44-140.08,66.82l-99,48.87C255.77,297.86,169.73,370,91.42,402.06L1314.1,303.6C1211.83,285.14,1099.61,242.25,1004.7,210.84Z"/><path class="cls-3" d="M1131.56,260.85a15.11,15.11,0,0,0,9.32-5.31,42.57,42.57,0,0,0,5.79-9.29,39.32,39.32,0,0,1-6.6,3.87,14,14,0,0,1,2.22-4.43l-6.61,2.25a37.75,37.75,0,0,0,8-6.36,17.52,17.52,0,0,1-11.7,2.61,24.31,24.31,0,0,0,7.92-4.8c.9-.77,1.79-1.51,2.68-2.24a66.22,66.22,0,0,0,4.76-5.27,28,28,0,0,1-6.83-.4,35.3,35.3,0,0,0,5.52-1.72,17.74,17.74,0,0,0,6.55-5c1.09-1.65,1.71-2.71,1.71-2.71-4.74,2.93-9.15,2.74-15.12,1.46a19.69,19.69,0,0,0,11.68-6.55,10.78,10.78,0,0,1-7,.73,39.15,39.15,0,0,0,7.35-4.79,13.1,13.1,0,0,1-10.38.87c4.75-1.85,8.21-5.63,11-10a11,11,0,0,1-5.72.32,16.81,16.81,0,0,0,9.38-6.77q.44-.82.84-1.65a6.27,6.27,0,0,1-7.22,2.87l3-2.24a4.81,4.81,0,0,1-3.7.78,18.1,18.1,0,0,0,5.5-5.85,20,20,0,0,1-11.4.2,24,24,0,0,0,17.2-16.86A24,24,0,0,0,1177,191.46a20,20,0,0,1-11.4-.2,18.1,18.1,0,0,0,5.5,5.85,4.81,4.81,0,0,1-3.7-.78l3,2.24a6.27,6.27,0,0,1-7.22-2.87q.41.83.84,1.65a16.81,16.81,0,0,0,9.38,6.77,11,11,0,0,1-5.72-.32c2.83,4.35,6.28,8.13,11,10a13.1,13.1,0,0,1-10.38-.87,39.15,39.15,0,0,0,7.35,4.79,10.78,10.78,0,0,1-7-.73,19.69,19.69,0,0,0,11.68,6.55c-6,1.28-10.38,1.47-15.12-1.46,0,0,.62,1.06,1.71,2.71a17.74,17.74,0,0,0,6.55,5,35.3,35.3,0,0,0,5.52,1.72,28,28,0,0,1-6.83.4,66.22,66.22,0,0,0,4.76,5.27c.89.73,1.78,1.47,2.68,2.24a24.31,24.31,0,0,0,7.92,4.8,17.52,17.52,0,0,1-11.7-2.61,37.75,37.75,0,0,0,8,6.36l-6.61-2.25a14,14,0,0,1,2.22,4.43,39.32,39.32,0,0,1-6.6-3.87,42.57,42.57,0,0,0,5.79,9.29,15.11,15.11,0,0,0,9.32,5.31,21.7,21.7,0,0,1-14.11-2.09,9.89,9.89,0,0,0,4.51,4.72c-.88-.31-3.18-.81-4.07-1.11.25,1.52-.14,2.72,2.15,4.75a21.7,21.7,0,0,0-5-1.48,27.62,27.62,0,0,0,1.8,3.4,4,4,0,0,1-4.49-2.64c.08,1.28.17,2.56.25,3.84l-2-2.58a3.39,3.39,0,0,1-.3,1.8l-1.26-2.15a22.88,22.88,0,0,1-1.79,4.59c.08-2.11.1-4.4-1.14-6.11a6.68,6.68,0,0,1-3.28,4.57c.22-1.24.44-2.47.65-3.71a10.53,10.53,0,0,1-1.72,2.64c-.11-.83-.19-1.68-.22-2.52a8.29,8.29,0,0,1-3.6,3.23,24.08,24.08,0,0,1-4.63,1.58,17.71,17.71,0,0,0,3.56-3.87,6.6,6.6,0,0,1-3.23,2.32,2.13,2.13,0,0,1,.84-1.86,14.67,14.67,0,0,1-3.63,1.81c.7-.68,1.37-1.38,2-2.11a17.34,17.34,0,0,1-3.54,1.52c-1,.39-3.47,1.38-4.31.66a16.42,16.42,0,0,0,3.62-3.68,9.92,9.92,0,0,0-2,.75c.25-1.51.49-3,.74-4.55l-2.66.91a9.89,9.89,0,0,0,4.51-4.72A21.7,21.7,0,0,1,1131.56,260.85Z"/><path class="cls-3" d="M526.8,265.53a15.94,15.94,0,0,0,9.88-5.62,44.65,44.65,0,0,0,6.13-9.85,41.14,41.14,0,0,1-7,4.1,15.09,15.09,0,0,1,2.35-4.69l-7,2.38a40.56,40.56,0,0,0,8.53-6.73,18.67,18.67,0,0,1-12.4,2.76,26,26,0,0,0,8.39-5.09c.95-.82,1.89-1.6,2.83-2.37a70.3,70.3,0,0,0,5.05-5.58,30.39,30.39,0,0,1-7.24-.43,37.09,37.09,0,0,0,5.85-1.83,18.65,18.65,0,0,0,6.94-5.28c1.16-1.75,1.82-2.87,1.82-2.87-5,3.11-9.7,2.91-16,1.54A20.78,20.78,0,0,0,547.28,219a11.41,11.41,0,0,1-7.37.78,41.38,41.38,0,0,0,7.79-5.08,13.89,13.89,0,0,1-11,.93c5-2,8.7-6,11.69-10.58a11.77,11.77,0,0,1-6.06.34,17.94,17.94,0,0,0,9.94-7.18l.89-1.75a6.63,6.63,0,0,1-7.65,3l3.14-2.37a5.05,5.05,0,0,1-3.92.83,19.2,19.2,0,0,0,5.83-6.2,21.23,21.23,0,0,1-12.08.21,25.42,25.42,0,0,0,18.22-17.87A25.45,25.45,0,0,0,574.93,192a21.23,21.23,0,0,1-12.08-.21,19.1,19.1,0,0,0,5.83,6.2,5.05,5.05,0,0,1-3.92-.83l3.14,2.37a6.63,6.63,0,0,1-7.65-3l.89,1.75a17.9,17.9,0,0,0,9.94,7.18,11.77,11.77,0,0,1-6.06-.34c3,4.61,6.65,8.61,11.69,10.58a13.88,13.88,0,0,1-11-.93,41.38,41.38,0,0,0,7.79,5.08,11.41,11.41,0,0,1-7.37-.78A20.78,20.78,0,0,0,578.5,226c-6.33,1.37-11,1.57-16-1.54,0,0,.66,1.12,1.82,2.87a18.65,18.65,0,0,0,6.94,5.28,37.09,37.09,0,0,0,5.85,1.83,30.39,30.39,0,0,1-7.24.43,70.3,70.3,0,0,0,5,5.58c.94.77,1.88,1.55,2.83,2.37a26,26,0,0,0,8.39,5.09,18.67,18.67,0,0,1-12.4-2.76,40.56,40.56,0,0,0,8.53,6.73l-7-2.38a15.09,15.09,0,0,1,2.35,4.69,41.14,41.14,0,0,1-7-4.1,45,45,0,0,0,6.12,9.85c2.58,2.9,6,5.2,9.89,5.62a23.08,23.08,0,0,1-15-2.21,10.52,10.52,0,0,0,4.79,5c-.94-.32-3.38-.85-4.32-1.17.26,1.61-.15,2.87,2.27,5a22.79,22.79,0,0,0-5.3-1.57,28.75,28.75,0,0,0,1.9,3.6,4.22,4.22,0,0,1-4.76-2.79l.27,4.07-2.08-2.74a3.59,3.59,0,0,1-.33,1.91l-1.33-2.28a24.81,24.81,0,0,1-1.89,4.87c.08-2.24.1-4.67-1.22-6.48a7,7,0,0,1-3.47,4.84l.69-3.93a11.05,11.05,0,0,1-1.82,2.8c-.12-.89-.2-1.78-.24-2.68a8.74,8.74,0,0,1-3.81,3.43,26.34,26.34,0,0,1-4.91,1.68,18.65,18.65,0,0,0,3.77-4.11,6.87,6.87,0,0,1-3.42,2.46,2.24,2.24,0,0,1,.89-2,15.07,15.07,0,0,1-3.85,1.92c.74-.72,1.45-1.46,2.14-2.24a18.4,18.4,0,0,1-3.76,1.62c-1.09.41-3.68,1.46-4.56.7a17.71,17.71,0,0,0,3.83-3.9,9.76,9.76,0,0,0-2.11.79c.26-1.61.51-3.22.77-4.83l-2.82,1a10.52,10.52,0,0,0,4.79-5A23.08,23.08,0,0,1,526.8,265.53Z"/><path class="cls-3" d="M943.35,228.17l-6.84,2a103.49,103.49,0,0,0,16-17.52,24.27,24.27,0,0,1-2.37.93,35.72,35.72,0,0,1-5,1.28,12.61,12.61,0,0,0,5.83-4.08c.11-.11.21-.22.31-.34L950,211a13.07,13.07,0,0,0,1.39-2.9L943.57,211A52.74,52.74,0,0,0,952,201.6l-1.2.2-5.49.91a24.76,24.76,0,0,0,8.87-4.54,43.4,43.4,0,0,0,3.25-7l-3.83,2.2a4.09,4.09,0,0,1,0-2.14,19.14,19.14,0,0,1-6,1.82,10.91,10.91,0,0,0,3.63-1.87l.93-.64a42.94,42.94,0,0,1-9.49.49,42.93,42.93,0,0,0,12.78-12.64,15.25,15.25,0,0,1-7.35,1,15,15,0,0,0,8.52-5.9l-1,.31-.12-1.81-.35.25a12.74,12.74,0,0,1-1.4.89,9.74,9.74,0,0,1-1.83.66,28.94,28.94,0,0,1-5.13.94,17.8,17.8,0,0,0,4.62-2.5,10.52,10.52,0,0,0,.92-.85,15.49,15.49,0,0,1-8.19.09c6.6-3,11.8-7.58,14.55-12.88l-3.48,1c.21-.93.41-1.86.62-2.78a15.43,15.43,0,0,1-4.8,1.73,7.91,7.91,0,0,0,3.75-3.72c.17-.3.34-.59.5-.89l-5.61,1.1c7.14-4.86,14.21-10.87,14.14-18h0c-.08,7.13,7,13.14,14.13,18l-6-1.18c.33.81.67,1.61,1,2.42l-1.41-.55.87,3.87-1.68-.49a11.58,11.58,0,0,0,.88,1.11,9,9,0,0,0,5.57,3.07,5,5,0,0,1-3.09.92c-.35,0-.7,0-1.05,0a33.59,33.59,0,0,0,10.44,7.22,15.37,15.37,0,0,1-9.79-.66l1.5,2.77-3-1.95-.14,2.17-1.58-.49a23.68,23.68,0,0,0,3.79,3.7,20.24,20.24,0,0,0,8.72,3.95,13.46,13.46,0,0,1-7.77-.42,13.72,13.72,0,0,1-2.35-1.13A43.56,43.56,0,0,0,984.91,191a42.56,42.56,0,0,1-7.9-.27,24.33,24.33,0,0,0,5.74,3.21,20.24,20.24,0,0,1-4-.17,6.71,6.71,0,0,1-3.56-1.65,9.82,9.82,0,0,1-1.06-1.26l-.51-.68h0a4.15,4.15,0,0,1,.36,3.17l-3.82-2.2.05.14c.35.66.7,1.3,1.07,1.94a24.06,24.06,0,0,0,4.35,5.7,11.88,11.88,0,0,0,6.34,3.18,30.15,30.15,0,0,1-5.86-.56l-.71-.18A53.8,53.8,0,0,0,984,211l-7.85-2.84a13,13,0,0,0,1.38,2.9l-1.72-.93a1.09,1.09,0,0,0,.27,1.26l-2.8-1.4c.76,1.14,1.54,2.26,2.36,3.37.47.32,1,.62,1.45.9a57.8,57.8,0,0,0,6,3,11.81,11.81,0,0,0,4.8,1.29,35.63,35.63,0,0,1-6.34.75c-.37,0-.75,0-1.13,0a106.31,106.31,0,0,0,10.68,10.77l-6.85-2a5.61,5.61,0,0,0,.07,3.17l-4.69-2.86a5.36,5.36,0,0,1-.44,2.38,20.48,20.48,0,0,0-5-2.16c-4.32-.92-7.07.82-10.37-2.94-3.31,3.76-6,2-10.37,2.94a20.72,20.72,0,0,0-5,2.16,5.21,5.21,0,0,1-.43-2.38l-4.69,2.86A5.69,5.69,0,0,0,943.35,228.17Z"/><path class="cls-3" d="M282.84,228.39l-7.12,2a107.35,107.35,0,0,0,16.61-18.23,22.42,22.42,0,0,1-2.46,1,37.57,37.57,0,0,1-5.21,1.34,13.17,13.17,0,0,0,6.06-4.25c.11-.11.22-.23.32-.35l-1.24.68a14.14,14.14,0,0,0,1.44-3l-8.17,2.95a55.11,55.11,0,0,0,8.75-9.76l-1.24.22-5.72.94a25.64,25.64,0,0,0,9.23-4.73,43.89,43.89,0,0,0,3.37-7.33l-4,2.29a4.22,4.22,0,0,1,0-2.23,19.55,19.55,0,0,1-6.21,1.9,11.16,11.16,0,0,0,3.78-1.95l1-.66a44.58,44.58,0,0,1-9.87.51,44.63,44.63,0,0,0,13.28-13.14,15.94,15.94,0,0,1-7.64,1,15.65,15.65,0,0,0,8.87-6.15l-1.06.33-.12-1.88-.36.25a12.42,12.42,0,0,1-1.46.93,10.51,10.51,0,0,1-1.9.69,31.36,31.36,0,0,1-5.34,1,18.52,18.52,0,0,0,4.81-2.61,11.13,11.13,0,0,0,.95-.87,16.2,16.2,0,0,1-8.52.08c6.87-3.09,12.28-7.88,15.14-13.4L295.15,157l.65-2.9a16.25,16.25,0,0,1-5,1.81A8.32,8.32,0,0,0,294.7,152c.18-.3.35-.61.52-.92l-5.83,1.14c7.43-5,14.78-11.3,14.7-18.72h0c-.08,7.42,7.28,13.67,14.7,18.72L312.56,151c.35.84.7,1.67,1,2.51l-1.46-.57.89,4-1.74-.51a12.53,12.53,0,0,0,.91,1.16,9.4,9.4,0,0,0,5.8,3.19,5.26,5.26,0,0,1-3.22,1c-.36,0-.72,0-1.08,0a34.83,34.83,0,0,0,10.85,7.5,16,16,0,0,1-10.18-.68l1.56,2.88-3.17-2-.15,2.25-1.64-.51a24.74,24.74,0,0,0,3.94,3.85,21,21,0,0,0,9.07,4.1,13.92,13.92,0,0,1-8.08-.43,13.72,13.72,0,0,1-2.44-1.18,45.08,45.08,0,0,0,12.6,12.11,44.25,44.25,0,0,1-8.22-.28,25.93,25.93,0,0,0,6,3.34,21.9,21.9,0,0,1-4.13-.17,7.12,7.12,0,0,1-3.7-1.72,12.5,12.5,0,0,1-1.1-1.31c-.17-.24-.35-.48-.53-.71h0a4.37,4.37,0,0,1,.38,3.29q-2-1.14-4-2.29l0,.15c.36.68.73,1.36,1.12,2a24.71,24.71,0,0,0,4.52,5.93,12.45,12.45,0,0,0,6.59,3.31,32,32,0,0,1-6.1-.59l-.73-.19a54.88,54.88,0,0,0,8.95,10L317,207.56a13.24,13.24,0,0,0,1.44,3l-1.79-1a1.14,1.14,0,0,0,.28,1.32L314,209.46c.78,1.18,1.6,2.35,2.45,3.51.49.33,1,.64,1.5.94a63.63,63.63,0,0,0,6.21,3.17,12.46,12.46,0,0,0,5,1.34,38.49,38.49,0,0,1-6.59.78c-.39,0-.79,0-1.18,0a110.64,110.64,0,0,0,11.1,11.21l-7.11-2a5.88,5.88,0,0,0,.06,3.3l-4.87-3a5.5,5.5,0,0,1-.46,2.48,21.45,21.45,0,0,0-5.21-2.24c-4.48-1-7.34.84-10.78-3.06-3.44,3.9-6.29,2.09-10.78,3.06a21.62,21.62,0,0,0-5.21,2.24,5.64,5.64,0,0,1-.46-2.48l-4.87,3A5.88,5.88,0,0,0,282.84,228.39Z"/><path class="cls-3" d="M680.38,234.68l-7.12,2a107.68,107.68,0,0,0,16.61-18.22,23.64,23.64,0,0,1-2.46,1,36.21,36.21,0,0,1-5.21,1.34c2.42-.63,4.38-2.39,6.06-4.24l.32-.36-1.24.68a14.3,14.3,0,0,0,1.44-3l-8.17,2.94a55,55,0,0,0,8.75-9.75l-1.24.21-5.72.95a25.8,25.8,0,0,0,9.23-4.73,44.76,44.76,0,0,0,3.38-7.33l-4,2.29a4.22,4.22,0,0,1,0-2.23,20.21,20.21,0,0,1-6.22,1.9,11.49,11.49,0,0,0,3.79-1.95l1-.67a45.19,45.19,0,0,1-9.87.52A44.7,44.7,0,0,0,693,182.85a15.86,15.86,0,0,1-7.65,1,15.65,15.65,0,0,0,8.87-6.14l-1.06.32-.12-1.88-.36.26a11.57,11.57,0,0,1-1.46.92,9.81,9.81,0,0,1-1.9.69,30.41,30.41,0,0,1-5.34,1,18.2,18.2,0,0,0,4.81-2.6,11.25,11.25,0,0,0,1-.88,16.1,16.1,0,0,1-8.52.08c6.87-3.09,12.28-7.88,15.14-13.39l-3.62,1.06c.22-1,.43-1.93.65-2.89a15.89,15.89,0,0,1-5,1.8,8.36,8.36,0,0,0,3.9-3.87l.51-.92-5.83,1.14c7.43-5.05,14.78-11.31,14.7-18.73h0c-.07,7.42,7.28,13.68,14.7,18.73l-6.23-1.22,1,2.51-1.47-.57.9,4-1.75-.51a12.65,12.65,0,0,0,.92,1.16,9.37,9.37,0,0,0,5.79,3.2,5.25,5.25,0,0,1-3.22,1c-.36,0-.72,0-1.08,0a34.94,34.94,0,0,0,10.85,7.5,15.82,15.82,0,0,1-10.18-.68l1.56,2.89-3.17-2-.15,2.25-1.64-.5a24.67,24.67,0,0,0,3.94,3.84,21,21,0,0,0,9.07,4.11,14,14,0,0,1-8.08-.44,13.72,13.72,0,0,1-2.44-1.18A45.25,45.25,0,0,0,723.6,196a45,45,0,0,1-8.21-.28,25.47,25.47,0,0,0,6,3.33,21.1,21.1,0,0,1-4.13-.17,7,7,0,0,1-3.7-1.72,10.74,10.74,0,0,1-1.1-1.31l-.53-.71h0a4.39,4.39,0,0,1,.38,3.3l-4-2.29a.88.88,0,0,1,0,.15c.36.68.73,1.35,1.12,2a25.18,25.18,0,0,0,4.52,5.93,12.37,12.37,0,0,0,6.59,3.3,31,31,0,0,1-6.09-.59c-.25,0-.49-.11-.73-.18a54.72,54.72,0,0,0,8.94,10l-8.17-2.94a13.82,13.82,0,0,0,1.44,3l-1.79-1a1.14,1.14,0,0,0,.28,1.32l-2.91-1.46c.78,1.18,1.6,2.35,2.45,3.51.49.33,1,.63,1.51.93a64.65,64.65,0,0,0,6.2,3.18,12.46,12.46,0,0,0,5,1.34,38.49,38.49,0,0,1-6.59.78H718.9A111.61,111.61,0,0,0,730,236.7l-7.11-2A5.79,5.79,0,0,0,723,238l-4.88-3a5.5,5.5,0,0,1-.46,2.48,21.18,21.18,0,0,0-5.2-2.25c-4.49-1-7.35.85-10.79-3.06-3.44,3.91-6.29,2.1-10.78,3.06a21.42,21.42,0,0,0-5.21,2.25,5.49,5.49,0,0,1-.45-2.48l-4.88,3A5.88,5.88,0,0,0,680.38,234.68Z"/><path class="cls-3" d="M1084.73,275.46l-6.72,1.91a101.76,101.76,0,0,0,15.68-17.2,22,22,0,0,1-2.33.91,36.11,36.11,0,0,1-4.91,1.27,12.48,12.48,0,0,0,5.72-4l.3-.34-1.17.64a13.44,13.44,0,0,0,1.36-2.84l-7.71,2.78a52.34,52.34,0,0,0,8.26-9.21c-.39.08-.79.14-1.18.21l-5.39.89a24.36,24.36,0,0,0,8.71-4.46,41.76,41.76,0,0,0,3.18-6.92l-3.75,2.16a3.94,3.94,0,0,1,0-2.1,19,19,0,0,1-5.87,1.79,10.88,10.88,0,0,0,3.58-1.84l.91-.63a42.65,42.65,0,0,1-9.32.49,42.17,42.17,0,0,0,12.54-12.41,14.92,14.92,0,0,1-7.21,1,14.72,14.72,0,0,0,8.36-5.79l-1,.3-.12-1.77-.34.24a10.92,10.92,0,0,1-1.37.87,9.68,9.68,0,0,1-1.8.65,28.85,28.85,0,0,1-5,.93,17.5,17.5,0,0,0,4.54-2.46,10.05,10.05,0,0,0,.9-.83,15.23,15.23,0,0,1-8,.08c6.48-2.92,11.58-7.43,14.29-12.64l-3.42,1,.61-2.74a15.22,15.22,0,0,1-4.71,1.71,7.91,7.91,0,0,0,3.68-3.66q.25-.43.48-.87l-5.5,1.08c7-4.77,13.95-10.67,13.88-17.67h0c-.08,7,6.86,12.9,13.87,17.67l-5.88-1.16,1,2.37-1.38-.53.84,3.8-1.64-.49a11.24,11.24,0,0,0,.86,1.1,8.86,8.86,0,0,0,5.47,3,4.89,4.89,0,0,1-3,.9c-.34,0-.69,0-1,0a33,33,0,0,0,10.24,7.08,15,15,0,0,1-9.61-.64l1.48,2.72-3-1.91c0,.71-.1,1.42-.14,2.12l-1.55-.48a22.75,22.75,0,0,0,3.71,3.63,19.85,19.85,0,0,0,8.56,3.88,13,13,0,0,1-9.92-1.52A42.79,42.79,0,0,0,1125.52,239a41.89,41.89,0,0,1-7.76-.27,24.38,24.38,0,0,0,5.64,3.15,20.28,20.28,0,0,1-3.9-.16,6.73,6.73,0,0,1-3.49-1.63,9.4,9.4,0,0,1-1-1.23l-.5-.67h0a4.09,4.09,0,0,1,.35,3.11l-3.75-2.16,0,.14c.34.64.69,1.28,1.05,1.9a23.67,23.67,0,0,0,4.27,5.6,11.65,11.65,0,0,0,6.22,3.12,29.88,29.88,0,0,1-5.75-.55l-.69-.18a51.82,51.82,0,0,0,8.44,9.46l-7.71-2.78a12.53,12.53,0,0,0,1.36,2.84l-1.69-.91a1.06,1.06,0,0,0,.26,1.24l-2.74-1.38c.74,1.12,1.51,2.22,2.31,3.31.46.32.94.61,1.42.89a60.9,60.9,0,0,0,5.86,3,11.58,11.58,0,0,0,4.71,1.27,36.16,36.16,0,0,1-6.22.73c-.37,0-.74,0-1.11,0a106.55,106.55,0,0,0,10.48,10.57l-6.72-1.91a5.58,5.58,0,0,0,.07,3.11l-4.6-2.81a5.32,5.32,0,0,1-.43,2.34A20.37,20.37,0,0,0,1115,276c-4.23-.91-6.93.8-10.17-2.89-3.25,3.69-5.94,2-10.18,2.89a20.29,20.29,0,0,0-4.91,2.12,5,5,0,0,1-.43-2.34l-4.61,2.81A5.49,5.49,0,0,0,1084.73,275.46Z"/><path class="cls-3" d="M1030.34,261.78a32.72,32.72,0,0,1-3.68-8.59,39.22,39.22,0,0,1-1.29-8.94,54.13,54.13,0,0,1,2.57-17.07c.8-2.69,1.81-5.34,2.71-7.82a33.35,33.35,0,0,0,1.95-7.33c.62-4.94-.39-10.21-1.47-15.5l2.78-.7c.79,2.6,1.58,5.23,2.17,8a35.92,35.92,0,0,1,.91,8.55,38.49,38.49,0,0,1-1.4,8.53c-.7,2.69-1.39,5.19-1.9,7.75a47.5,47.5,0,0,0-.87,15.09,27,27,0,0,0,5,13Z"/><path class="cls-3" d="M1033.62,210.19a15.51,15.51,0,0,1,2.36-2.25,7.07,7.07,0,0,1,1.67-.93,5.43,5.43,0,0,1,2-.35,12.55,12.55,0,0,1,1.56.22l.44.06a1.05,1.05,0,0,0,.3,0,11.71,11.71,0,0,0,2.12-1.28,10,10,0,0,0,3.6-3.68,23,23,0,0,0,.93-2.6,8.28,8.28,0,0,1,1.38-2.73l.75.56c-.93,1.48-.85,3.39-1.48,5.39a9.05,9.05,0,0,1-1.54,2.79,19.2,19.2,0,0,1-2.11,2.2l-1.1,1a6.56,6.56,0,0,1-1.46,1,3.63,3.63,0,0,1-1.09.33,5.76,5.76,0,0,1-1,0,9.59,9.59,0,0,0-1.28,0,2.67,2.67,0,0,0-1.47.85,12.48,12.48,0,0,0-1.51,1.93Z"/><path class="cls-3" d="M1034.39,204.38l-3.74,2.2-.94.55-.47.27a2.31,2.31,0,0,1-.79.34,1.68,1.68,0,0,1-1-.13l-.53-.28-1-.54c-1.27-.72-2.52-1.47-3.74-2.26l-.92-.6a1.3,1.3,0,0,0-.79-.31,10.27,10.27,0,0,1-2.2-.4l.14-.57a10.4,10.4,0,0,0,2.09.15,2.18,2.18,0,0,1,.65.06,2.75,2.75,0,0,1,.59.25l1,.49c1.28.64,2.58,1.24,3.9,1.81l1,.41.45.18c.12,0,.09,0,0,0a7,7,0,0,1,.61-.47l.87-.64,3.48-2.6Z"/><path class="cls-3" d="M1044.56,205.84a1.61,1.61,0,0,1,.78-.65,2.09,2.09,0,0,1,.79-.12,2.49,2.49,0,0,1,.68.14l.48.2a1.84,1.84,0,0,0,.57.21,1,1,0,0,0,.5-.08,11.64,11.64,0,0,0,1.42-.88,6.16,6.16,0,0,1,1.85-.79,4.66,4.66,0,0,1,1-.1,4.22,4.22,0,0,0,.77-.06,2.6,2.6,0,0,0,1.24-.75,6.09,6.09,0,0,0,1.34-3l.79.15a7,7,0,0,1-1.35,3.54,3.67,3.67,0,0,1-1.71,1.18,4.47,4.47,0,0,1-1,.16,3.15,3.15,0,0,0-.76.13,4.35,4.35,0,0,0-1.38.72,11.64,11.64,0,0,1-1.57,1.09,2.71,2.71,0,0,1-1.22.29,3.32,3.32,0,0,1-1.14-.28l-.36-.13a.68.68,0,0,0-.19,0c-.06,0-.1,0-.09,0a.22.22,0,0,0,.1-.09Z"/><path class="cls-3" d="M1047.3,203.32c0,.08.1.1.06.05a.56.56,0,0,0-.26-.13c-.23-.07-.72,0-1.31-.18a1.87,1.87,0,0,1-.84-.48,2.47,2.47,0,0,1-.48-.71,7.62,7.62,0,0,1-.41-1.32,3.49,3.49,0,0,1-.09-.74c0-.27,0-.48,0-.64a.55.55,0,0,0-.09-.37,2.41,2.41,0,0,0-.34-.42,5.22,5.22,0,0,0-2-1.27l.09-.34a5.69,5.69,0,0,1,2.41,1.07,3.34,3.34,0,0,1,.52.49,1.43,1.43,0,0,1,.33.79c0,.27,0,.48,0,.63a2.51,2.51,0,0,0,.14.5,5.8,5.8,0,0,0,.49,1,1,1,0,0,0,.27.3.48.48,0,0,0,.27.09c.24,0,.6,0,1.2,0a2.32,2.32,0,0,1,.93.27,1.63,1.63,0,0,1,.8,1Z"/><path class="cls-3" d="M1026,206.21a12.91,12.91,0,0,1-1.86,1.49,4.6,4.6,0,0,1-2.44.76,8.55,8.55,0,0,1-2.28-.56,1.77,1.77,0,0,0-1.86.32l-.25-.17a1.75,1.75,0,0,1,1-.73,3.4,3.4,0,0,1,1.23-.09,7.71,7.71,0,0,0,2.1.19,3.44,3.44,0,0,0,1.67-.86,13.6,13.6,0,0,0,1.39-1.57Z"/><path class="cls-3" d="M1006.75,191.83a4.94,4.94,0,0,1,2.56-2.28,2.45,2.45,0,0,1,3,1.15,6.15,6.15,0,0,1-.66-2.39,3,3,0,0,1,.82-2.29,4,4,0,0,1,2.64-.86,11.26,11.26,0,0,1,4.72.88,6.24,6.24,0,0,1,.17-1.93,2,2,0,0,1,1.28-1.36,2.88,2.88,0,0,1,2.37.81c.94.72,1.85,1.48,2.71,2.28a8.18,8.18,0,0,1,.8-2.32,2.65,2.65,0,0,1,1.94-1.36,3.84,3.84,0,0,1,2.7,1.27,3.21,3.21,0,0,1,1.36,2.12c.13-1.05.45-2.32,1.47-2.57a1.79,1.79,0,0,1,1.64.59,5.21,5.21,0,0,1,.93,1.56,2.54,2.54,0,0,1,.3,1.13,1,1,0,0,1-.07.3,1.69,1.69,0,0,1,.47.49,5.37,5.37,0,0,1,.93,1.75,1.88,1.88,0,0,1-.46,1.84c-.58.51-1.57.56-1.85,1.26a.67.67,0,0,1,.44.67l.26-.57c-.14,1,.2,2.13-.17,3.1a2.93,2.93,0,0,1-2.39,1.68,6.49,6.49,0,0,1-3-.52,2.77,2.77,0,0,1-4.54,1.92c.14.85.17,1.93-.59,2.31a1.76,1.76,0,0,1-.82.15,9.5,9.5,0,0,1-4.06-.89,2.29,2.29,0,0,1-.08,2.13,1.26,1.26,0,0,1-1.9.23,2.64,2.64,0,0,1-.12,2.4,2.13,2.13,0,0,1-2.12,1,1.76,1.76,0,0,1-1.41-1.79c-.24.91-.67,2-1.6,2.11a2.13,2.13,0,0,1-1.26-.34,8.22,8.22,0,0,1-4.1-6.3,1.76,1.76,0,0,1-.06.39,1.5,1.5,0,0,1-1.26,1.08c-.72,0-1.28-.63-1.61-1.27A8,8,0,0,1,1006.75,191.83Z"/><path class="cls-3" d="M1063.33,189a22.18,22.18,0,0,1,2.11,8.1,5.06,5.06,0,0,1-.34,2.62,5.8,5.8,0,0,1-2.87,2.29,4.1,4.1,0,0,1-2.63.6c-.89-.21-1.56-1.39-1-2.07a7.85,7.85,0,0,1,.42,2.5,1.2,1.2,0,0,1-.19.77c-.31.38-.92.26-1.38.08a14.65,14.65,0,0,1-4.25-2.53,1.72,1.72,0,0,1-2.22,1.1,3.58,3.58,0,0,1-1.94-1.92,22.63,22.63,0,0,0-1.26-2.51.84.84,0,1,1-1.63.19,7.2,7.2,0,0,1-1,2.59,2.46,2.46,0,0,1-2.4,1.1c-1.39-.32-1.88-2.06-1.85-3.49a2.31,2.31,0,0,1-2.19,1.72,4.28,4.28,0,0,1-4.45-3.38,1.42,1.42,0,0,1-1.81,1.1,3.32,3.32,0,0,1-1.79-1.58c-1.72-2.73-2.09-6.56-.08-9.08a3.22,3.22,0,0,1,2-1.29,1.7,1.7,0,0,1,1.88,1.24,8.69,8.69,0,0,1-1.5-5.14,6,6,0,0,1,2.49-4.62,4.54,4.54,0,0,1,5.11,0c-.42-1.79,1.31-3.55,3.13-3.73a7,7,0,0,1,5,2,5.6,5.6,0,0,1,1.21-2.58,2.68,2.68,0,0,1,2.6-.88,3.9,3.9,0,0,1,1.49,1,29.06,29.06,0,0,1,4,4.33,3.69,3.69,0,0,1,4.75-.9,5.59,5.59,0,0,1,2.57,4.43,3.7,3.7,0,1,1,3.36,6.26c-.2-.47.47-.92.94-.73a1.73,1.73,0,0,1,.86,1.19,4.41,4.41,0,0,1,.14,2.66,2.12,2.12,0,0,1-2,1.52,3,3,0,0,1-.28,2.59c-.7.78-2,.58-3,.33-.14,1.06.86,2.29.17,3.11a1.87,1.87,0,0,1-1.26.49,15.16,15.16,0,0,1-4.41-.17"/><path class="cls-3" d="M468.92,293.79a101.75,101.75,0,0,1,3.5-26.94c2.17-8.59,5-16.8,7.67-24.94a202.55,202.55,0,0,0,6.79-24.46,78,78,0,0,0,1.24-25l2.72-.48a81.8,81.8,0,0,1,1.07,26.26,210.92,210.92,0,0,1-4.7,25.71c-2,8.39-4,16.68-5.28,24.91a90.61,90.61,0,0,0-1,24.23Z"/><path class="cls-3" d="M489.26,209.31a2.14,2.14,0,0,0-1-.74,1.92,1.92,0,0,0-.62-.14,2.68,2.68,0,0,0-.75.06,5.65,5.65,0,0,1-2.52,0,6.32,6.32,0,0,1-2.19-1.08,18.79,18.79,0,0,1-3-3,6.89,6.89,0,0,0-2.89-2.17,14.59,14.59,0,0,0-3.86-.37,11.37,11.37,0,0,1-2.14-.26,9.47,9.47,0,0,1-2-.79,22.27,22.27,0,0,1-3.5-2.22,6.55,6.55,0,0,1-1.52-1.46,2,2,0,0,1-.15-2.11l.22.14a1.61,1.61,0,0,0,.27,1.73,6.34,6.34,0,0,0,1.51,1.23,22.4,22.4,0,0,0,3.55,1.89,7.71,7.71,0,0,0,3.76.65,15.47,15.47,0,0,1,4.27.11,8.5,8.5,0,0,1,3.78,2.36,18.28,18.28,0,0,0,2.91,2.54,4.28,4.28,0,0,0,1.5.61,3.07,3.07,0,0,0,1.52-.14,5,5,0,0,1,1.27-.19,4.62,4.62,0,0,1,1.39.18,4.8,4.8,0,0,1,2.35,1.53Z"/><path class="cls-3" d="M477.16,202a8.45,8.45,0,0,1-1.94,1.08,1,1,0,0,0-.44.45,5.36,5.36,0,0,1-.55,1,2.23,2.23,0,0,1-1.24.73,3.89,3.89,0,0,1-1.22,0,17.41,17.41,0,0,1-2.09-.46c-2.67-.72-5.25-1.7-7.85-1.34l-.14-.93a11.93,11.93,0,0,1,4.26.16c1.38.27,2.7.66,4,1,.65.14,1.35.31,1.93.37a1.52,1.52,0,0,0,1.33-.35,4.93,4.93,0,0,0,.37-.8,2.4,2.4,0,0,1,.92-1,9.1,9.1,0,0,0,1.64-.92Z"/><path class="cls-3" d="M488.66,217.66a2,2,0,0,1,.5-1.3,2.23,2.23,0,0,1,.88-.63,2.88,2.88,0,0,1,1.7-.15,8.43,8.43,0,0,0,1.29.36c.09,0,.39-.15.64-.53a6.43,6.43,0,0,0,.64-1.41c.39-1.08.68-2.28,1.1-3.52a10.72,10.72,0,0,1,1.92-3.51,5.5,5.5,0,0,0,1.5-2.9,18.31,18.31,0,0,1,.72-3.76,4.1,4.1,0,0,1,1.32-1.67,16.37,16.37,0,0,1,1.65-1,5.17,5.17,0,0,0,1.36-1,5.82,5.82,0,0,0,.52-.68c.07-.12.15-.25.21-.38l.1-.19,0-.1s0-.07.17-.06l.37.14c.11.08.09.12.08.16l-.05.11-.09.23a3.68,3.68,0,0,1-.21.45,6.56,6.56,0,0,1-.54.83,6.18,6.18,0,0,1-1.48,1.32c-1.09.68-2,1.26-2.33,2.28a18.28,18.28,0,0,0-.38,3.54,6.4,6.4,0,0,1-.52,2,12.34,12.34,0,0,1-1,1.7c-1.42,1.84-1.55,4.11-2.24,6.68a8.56,8.56,0,0,1-.79,2,3.46,3.46,0,0,1-2.16,1.74,3.21,3.21,0,0,1-1.5,0c-.38-.09-.65-.18-.82-.2s-.1,0-.11,0a.29.29,0,0,0,.13-.1.71.71,0,0,0,.18-.45Z"/><path class="cls-3" d="M496.46,209.16l1.64-.51a10.2,10.2,0,0,0,1.32-.36c.55-.18.79-1.22,1.38-2.31a2.58,2.58,0,0,1,1.58-1.2,12.92,12.92,0,0,0,1.5-.35,5.44,5.44,0,0,0,2.39-1.69l.45.32a6.1,6.1,0,0,1-2.48,2.21,15.62,15.62,0,0,1-1.52.56,1.29,1.29,0,0,0-.79.76,14.42,14.42,0,0,0-.47,1.44,3.17,3.17,0,0,1-1.19,1.67,10.57,10.57,0,0,1-1.65.69l-1.32.58Z"/><path class="cls-3" d="M451.94,196.43a2.3,2.3,0,0,1,1.31-1.52c-1-2.12.12-4.69,1.77-6.35a3,3,0,0,1,1.29-.86,1.23,1.23,0,0,1,1.38.48,11.5,11.5,0,0,1,2.06-4,3,3,0,0,1,1.25-1c1.25-.45,2.49.63,3.39,1.61.74.8,1.47,1.61,2.2,2.41a21.78,21.78,0,0,1,2-4.21,1.22,1.22,0,0,1,.64-.61,1.09,1.09,0,0,1,.72.14,4.6,4.6,0,0,1,2.53,3.81c-.05-.71.72-1.24,1.42-1.23a3.66,3.66,0,0,1,1.91.84,5.51,5.51,0,0,1,2.2,2.44,2.23,2.23,0,0,1-.71,2.51.78.78,0,0,1,.37,0,2,2,0,0,1-1.28,2,19,19,0,0,1-.56,2.46,2.82,2.82,0,0,1-1.35,2,2.36,2.36,0,0,1-2.52-.91c-.63-.72-1-1.63-1.71-2.3a8.82,8.82,0,0,1,.12,4.78,7.15,7.15,0,0,1-2.23-1.82,5.87,5.87,0,0,1-.62,2.28,2.11,2.11,0,0,1-1.31,1.22,1.05,1.05,0,0,1-1.1-.54,18.26,18.26,0,0,1,0,3.84,2.44,2.44,0,0,1-.48,1.4,1.7,1.7,0,0,1-1.81.36,4.19,4.19,0,0,1-1.58-1.13,16.13,16.13,0,0,1-2.18-2.81c-.57.69-.69,1.8-1.49,2.2a2.33,2.33,0,0,1-2.23-.52,9.15,9.15,0,0,1-2.87-3A5.05,5.05,0,0,1,451.94,196.43Z"/><path class="cls-3" d="M474,184.43a13.68,13.68,0,0,1,1.5-2.34,2.34,2.34,0,0,1,1.37-1c.57-.08,1.22.43,1.06,1a34.91,34.91,0,0,1,3.28-3.27,2.82,2.82,0,0,1,.95-.63,2.12,2.12,0,0,1,2.3,1,6.26,6.26,0,0,1,.77,2.55,5,5,0,0,1,9.29,3.8c1.27-1.86,3.6-2.67,5.82-3a3,3,0,0,1,1.71.12c1,.48,1.23,1.85,1,2.94a28.59,28.59,0,0,0-1,3.2,5,5,0,0,1,2.36-2.49,4.35,4.35,0,0,1,3.31.56,17.69,17.69,0,0,1,4.57,3.25c.74.72,1.44,1.76,1.13,2.7a.64.64,0,0,1,.55.08,11.28,11.28,0,0,1,3.85,5.24,5.5,5.5,0,0,1-1.69,6,1.55,1.55,0,0,1-1,.38.74.74,0,0,1-.72-.73,15,15,0,0,1-2.22,3.41,2.47,2.47,0,0,1-1.84,1.08,1.81,1.81,0,0,1-1.52-1.33,5.49,5.49,0,0,1-.08-2.14,4.57,4.57,0,0,1-2.83,2.13,3.68,3.68,0,0,1-2.44.17,1.58,1.58,0,0,1-1-2,4,4,0,0,1-3.95,1.33,2.27,2.27,0,0,1-1.26-2.2,6.61,6.61,0,0,1,.78-2.57,6.38,6.38,0,0,1-2.54-.26,2.15,2.15,0,0,1-1.44-1.93,17.67,17.67,0,0,1-3.46,2.87,1.22,1.22,0,0,1-.83.27c-.43-.07-.66-.56-.75-1a4.11,4.11,0,0,1,.19-2.25c-.64.41-.72,1.33-1.22,1.9a2,2,0,0,1-2.19.45,4.21,4.21,0,0,1-1.82-1.47c-1.65-2.14-2.26-4.88-2.67-7.54l-.16,1a1.89,1.89,0,0,1-1.48,1.08,5.08,5.08,0,0,1-1.9-.17,3.19,3.19,0,0,1-1.5-.66,2.25,2.25,0,0,1-.28-2.52,6.49,6.49,0,0,1,1.75-2c-1.6-.12-3.51-.44-4.12-1.92A3.79,3.79,0,0,1,474,184.43Z"/><path class="cls-3" d="M461.23,183.31a1.65,1.65,0,0,1,.43-1.31,6.78,6.78,0,0,1,4.69-2.61,1.42,1.42,0,0,1-1.06-1.91,3.72,3.72,0,0,1,1.81-1.75,19,19,0,0,1,2.74-1.29c1-.36,2.13-.63,2.93,0a3.35,3.35,0,0,1,2.31-3,3.58,3.58,0,0,1,3.75,1.06c-.27-.27.09-.68.42-.87a15.38,15.38,0,0,1,6.09-2,4.54,4.54,0,0,1,2.46.26,1.77,1.77,0,0,1,1.06,2,6,6,0,0,1,1.23-1.67,2.18,2.18,0,0,1,2-.54,2.93,2.93,0,0,1,1.26.91,16.16,16.16,0,0,1,3,4.69c.53-.71,1.33-1.51,2.18-1.2a1.56,1.56,0,0,1,.65.49,4,4,0,0,1,1,2.1,1.47,1.47,0,0,1,1.55.78,3.79,3.79,0,0,1,.35,1.77c0,1.09.09,2.18.14,3.26a2.36,2.36,0,0,1,3.23-.05,3.77,3.77,0,0,1,1,3.21,19.3,19.3,0,0,1-.84,3.39l-36.2.82c-2.51-.26-5.28.75-7.43-.51a1.22,1.22,0,0,1-.56-.54,1.35,1.35,0,0,1,.16-1.08,11.83,11.83,0,0,1,1.92-2.84C462.76,184.29,461.46,184.21,461.23,183.31Z"/><path class="cls-3" d="M797.92,209.81a76.28,76.28,0,0,0-2.62-20.18c-1.63-6.44-3.74-12.59-5.74-18.68a154.81,154.81,0,0,1-5.1-18.34,58.21,58.21,0,0,1-.92-18.75l-2-.36a61.28,61.28,0,0,0-.8,19.67,157.63,157.63,0,0,0,3.52,19.27c1.47,6.29,3,12.5,4,18.66a68,68,0,0,1,.75,18.16Z"/><path class="cls-3" d="M313.2,214c23.31,3.49,42.94,20.14,65.55,26.4a11.65,11.65,0,0,1,4.56-4.87c1.3-.74,2.82-1.3,3.6-2.57a8.93,8.93,0,0,1,1-1.84c1.07-1.08,2.88-.52,4.26.11a2.33,2.33,0,0,1,.83.52c.66.71.29,1.83.2,2.8a4.24,4.24,0,0,0,.75,2.71c1.44-3.91,1.28-8.34,1.06-12.56a10.87,10.87,0,0,1,4,6.9,84.17,84.17,0,0,0,.79-11.88c.6.21.77,1,.83,1.58a31.31,31.31,0,0,1-.94,11.32c1.47-4.37,5.14-7.57,8.65-10.55,0,5-5,8.74-5.83,13.68A6.25,6.25,0,0,1,405.7,232a18.75,18.75,0,0,1,4.71-1.62,21.85,21.85,0,0,0-8.05,7.84,9.38,9.38,0,0,1,5.53.7,4.25,4.25,0,0,0,1.52.53c1.2.07,2.14-1.08,3.32-1.3a4.5,4.5,0,0,1,2.71.65,18.68,18.68,0,0,1,4.94,3,16.39,16.39,0,0,1,3.16,4.77,151.87,151.87,0,0,1,23,3.68c21.78,5.54,42.7,18.65,65,15.55,13.2-1.84,25-9.27,38.07-11.93,23.51-4.78,47.3,6.36,71.28,6.51,40.68.27,74.47-30.27,101.29-60.84,7.09-8.08,14.49-16.62,24.41-20.57a2.85,2.85,0,0,0-.15-1.35,1.85,1.85,0,0,1-.24-.88,1.38,1.38,0,0,1,.47-.73,19,19,0,0,1,7-4.24c-.43-1.36.46-2.79,1.51-3.76a10.59,10.59,0,0,1,9.2-2.56,2.25,2.25,0,0,1,1.27-1,8.44,8.44,0,0,1,10.71,5c1.59-.93,3.86-1.76,5.06-.36a4,4,0,0,1,.68,1.51l1,3.29a3,3,0,0,1,5.69.29c.42-1,.84-2.83,2-2.73,1.05.34.77,2.11.75,3.23,1.9-.82,2.84-3.68,4.89-3.47,1.5.14,2.22,1.86,2.64,3.31a4.94,4.94,0,0,1,1.52-2.66,1.89,1.89,0,0,1,2.26.06,3,3,0,0,1,.7-3.36,4.41,4.41,0,0,1,4-.88,4.07,4.07,0,1,1,7.73.07l0,0a2,2,0,0,1,3.59.25,11.16,11.16,0,0,1,.76,3.42c.21-.88,1.52-1.08,2.23-.52a3.26,3.26,0,0,1,1,2.46,9.08,9.08,0,0,0,.26,2.71,8,8,0,0,0,1.32-1.66,1.69,1.69,0,0,1,1.84-.75c.68.29.83,1.18.83,1.92a16.35,16.35,0,0,1-.32,3l14.51.53,8.3.33a14.31,14.31,0,0,0-1.52-3.3,8.52,8.52,0,0,1,3.71,2.48,5.42,5.42,0,0,0-1.08-3.36,5.3,5.3,0,0,1,2.92,2.4,33.85,33.85,0,0,1-.2-6.6,53.14,53.14,0,0,0,1.8,6,8.86,8.86,0,0,1,1.52-4.86,12.37,12.37,0,0,0-.33,5.83,9.42,9.42,0,0,1,1.69-4.57,24.78,24.78,0,0,0,1.07,6.4h.09c.06-.18.11-.37.19-.55a2.36,2.36,0,0,1,2-1.6,5.86,5.86,0,0,1,1.63.57,5.08,5.08,0,0,0,3.51-.42l.58-.22c.37-1,.78-2.09,1.2-3.11a1.28,1.28,0,0,1,.34-.56,1.07,1.07,0,0,1,1.25.08c.38.24.68.6,1.08.8,1.16.58,2.63-.32,3.85.14,1.39.53,1.63,2.42,2.71,3.43a3.38,3.38,0,0,0,1,.61,5.78,5.78,0,0,1,1-2.34,2.08,2.08,0,0,1,2.36-.68,4.35,4.35,0,0,1,5.12-4.18,6,6,0,0,1,1-3.42,3.09,3.09,0,0,1,3.16-1.28A2.27,2.27,0,0,1,892.7,169a2.2,2.2,0,0,1,2-1.12,4,4,0,0,1,2.8,1.83c.35.47.76,1.05,1.35,1a3.15,3.15,0,0,0,.88-.34,2.32,2.32,0,0,1,2.69,1.17,6.75,6.75,0,0,1,.68,3.09,2.63,2.63,0,0,1,2-2.42,5.69,5.69,0,0,1,3.33.29,15,15,0,0,1,9.94,12.42l-11.27-.44c29.58,4.76,57.67,14,80.32,33.14,8.19,6.93,15.58,15.1,25.22,19.8.71.35,1.42.65,2.14,1a17.94,17.94,0,0,1,1.49-5.55,5.84,5.84,0,0,0,1.65,5.29,27.91,27.91,0,0,0-1.12-3.46c.85,1.82,3.23,2.83,3.46,4.83a9.16,9.16,0,0,0-1-3.48,5.36,5.36,0,0,1,3.15,3.48,24.92,24.92,0,0,0-2.44-5.2c2.09.53,3.52,2.47,4.4,4.44a12.35,12.35,0,0,0-2.91-7,5.27,5.27,0,0,1,2.1,2.41,26,26,0,0,1,3,7.71c.86.16,1.72.31,2.59.45a23.36,23.36,0,0,1,1.07-2.82,2.53,2.53,0,0,1,.91-1.19,2,2,0,0,1,2.49,1,6.62,6.62,0,0,0,1.09,1.72,4.17,4.17,0,0,0,2,.63,2.27,2.27,0,0,1,1.75,1,2,2,0,0,1,.16.84c8.13.83,16.36,1.46,24.14,3.74,14.32,4.21,26.62,13.88,41.07,17.61,17.69,4.56,36.24-.28,54.44-1.82,52.2-4.43,170.51,19.79,221.26,12.46l-64.8,288H158.42L-15,233.57C37.52,230,114.42,184.16,313.2,214Z"/><path class="cls-6" d="M914.71,349a118.65,118.65,0,0,0-4.1-31.58c-2.55-10.08-5.85-19.71-9-29.25a240.91,240.91,0,0,1-8-28.69,91.32,91.32,0,0,1-1.44-29.35l-3.19-.57c-2.25,10.08-2.33,20.57-1.26,30.8a247.47,247.47,0,0,0,5.52,30.15c2.28,9.85,4.65,19.56,6.18,29.21s2.21,19.23,1.18,28.41Z"/><path class="cls-6" d="M890.86,250a2.53,2.53,0,0,1,1.14-.88,2.73,2.73,0,0,1,.73-.16,3.32,3.32,0,0,1,.88.07,6.58,6.58,0,0,0,3,0,7.53,7.53,0,0,0,2.57-1.26,22.87,22.87,0,0,0,3.54-3.57,8.14,8.14,0,0,1,3.38-2.55,17.4,17.4,0,0,1,4.53-.43,12.83,12.83,0,0,0,2.51-.3,11.17,11.17,0,0,0,2.34-.92,27,27,0,0,0,4.11-2.61,8.07,8.07,0,0,0,1.79-1.72,2.28,2.28,0,0,0,.17-2.47l-.26.17a1.89,1.89,0,0,1-.31,2,7.73,7.73,0,0,1-1.78,1.45A25.83,25.83,0,0,1,915,239a9.09,9.09,0,0,1-4.42.77,18,18,0,0,0-5,.12,10,10,0,0,0-4.44,2.77,21.06,21.06,0,0,1-3.41,3,5.2,5.2,0,0,1-1.76.72,3.73,3.73,0,0,1-1.79-.17,6,6,0,0,0-1.49-.22,5.5,5.5,0,0,0-1.62.21,5.63,5.63,0,0,0-2.76,1.79Z"/><path class="cls-6" d="M905.06,241.37a9.28,9.28,0,0,0,2.26,1.26,1.2,1.2,0,0,1,.53.54,5.81,5.81,0,0,0,.64,1.21,2.48,2.48,0,0,0,1.45.84,4.36,4.36,0,0,0,1.43.05,20.83,20.83,0,0,0,2.46-.53c3.12-.85,6.16-2,9.2-1.58l.17-1.09a14,14,0,0,0-5,.19c-1.61.32-3.17.77-4.71,1.14a20.28,20.28,0,0,1-2.26.43,1.75,1.75,0,0,1-1.55-.4,6.25,6.25,0,0,1-.44-.94,2.82,2.82,0,0,0-1.08-1.21,11.7,11.7,0,0,1-1.93-1.07Z"/><path class="cls-6" d="M891.56,259.76a2.4,2.4,0,0,0-.57-1.53,2.8,2.8,0,0,0-1-.74,3.28,3.28,0,0,0-2-.16,13.3,13.3,0,0,1-1.52.42c-.11,0-.45-.18-.74-.63a7.5,7.5,0,0,1-.76-1.65c-.46-1.27-.79-2.68-1.29-4.13a12.29,12.29,0,0,0-2.25-4.11,6.54,6.54,0,0,1-1.76-3.41,21.16,21.16,0,0,0-.85-4.41,4.63,4.63,0,0,0-1.54-1.95,16.14,16.14,0,0,0-1.93-1.14,6,6,0,0,1-1.59-1.22,5.91,5.91,0,0,1-.62-.8l-.25-.44-.11-.23,0-.12s0-.08-.19-.06l-.44.16c-.14.1-.11.14-.09.18l0,.14.11.27a5,5,0,0,0,.25.52,6.2,6.2,0,0,0,.63,1,7.27,7.27,0,0,0,1.73,1.55c1.29.8,2.39,1.48,2.73,2.68a21,21,0,0,1,.45,4.15,7.48,7.48,0,0,0,.61,2.37,12.61,12.61,0,0,0,1.21,2c1.67,2.16,1.81,4.82,2.62,7.84a10.09,10.09,0,0,0,.93,2.33,4.06,4.06,0,0,0,2.54,2,3.72,3.72,0,0,0,1.75,0c.45-.11.77-.21,1-.23s.11,0,.13,0a.36.36,0,0,1-.16-.11.91.91,0,0,1-.21-.53Z"/><path class="cls-6" d="M882.43,249.79l-1.93-.6a13.39,13.39,0,0,1-1.55-.42c-.64-.21-.93-1.43-1.62-2.71a3,3,0,0,0-1.85-1.4,16.41,16.41,0,0,1-1.76-.42,6.41,6.41,0,0,1-2.8-2l-.53.38a7.09,7.09,0,0,0,2.91,2.59,14.25,14.25,0,0,0,1.79.65,1.57,1.57,0,0,1,.92.9c.21.46.33,1,.56,1.68a3.58,3.58,0,0,0,1.39,2,12.14,12.14,0,0,0,1.93.82l1.55.68Z"/><path class="cls-6" d="M934.63,234.86a2.66,2.66,0,0,0-1.54-1.77c1.17-2.5-.14-5.51-2.08-7.46a3.57,3.57,0,0,0-1.51-1,1.44,1.44,0,0,0-1.61.57,13.23,13.23,0,0,0-2.42-4.7,3.42,3.42,0,0,0-1.47-1.2c-1.47-.53-2.92.74-4,1.89L917.45,224a25.43,25.43,0,0,0-2.3-4.93,1.39,1.39,0,0,0-.75-.72,1.32,1.32,0,0,0-.84.16,5.4,5.4,0,0,0-3,4.47,1.54,1.54,0,0,0-1.67-1.43,4.26,4.26,0,0,0-2.23,1,6.38,6.38,0,0,0-2.58,2.87,2.61,2.61,0,0,0,.83,2.94.94.94,0,0,0-.44.06,2.34,2.34,0,0,0,1.51,2.38,22.31,22.31,0,0,0,.65,2.89,3.35,3.35,0,0,0,1.58,2.29,2.78,2.78,0,0,0,3-1.06c.74-.85,1.21-1.91,2-2.7a10.34,10.34,0,0,0-.14,5.6,8.2,8.2,0,0,0,2.62-2.13,6.91,6.91,0,0,0,.73,2.67,2.41,2.41,0,0,0,1.53,1.43,1.24,1.24,0,0,0,1.3-.63,20.61,20.61,0,0,0,0,4.51,2.87,2.87,0,0,0,.56,1.64,2,2,0,0,0,2.13.42,4.91,4.91,0,0,0,1.84-1.33,19,19,0,0,0,2.56-3.29c.68.81.81,2.1,1.75,2.57a2.73,2.73,0,0,0,2.62-.6,10.84,10.84,0,0,0,3.36-3.48A6,6,0,0,0,934.63,234.86Z"/><path class="cls-6" d="M908.75,220.79a15.77,15.77,0,0,0-1.76-2.74,2.79,2.79,0,0,0-1.6-1.14c-.67-.09-1.44.51-1.25,1.15a42.17,42.17,0,0,0-3.84-3.84,3.58,3.58,0,0,0-1.12-.74,2.46,2.46,0,0,0-2.69,1.15,7.3,7.3,0,0,0-.91,3,5.9,5.9,0,0,0-10.9,4.46c-1.48-2.18-4.21-3.14-6.82-3.51a3.6,3.6,0,0,0-2,.14c-1.18.56-1.44,2.17-1.14,3.45a31.17,31.17,0,0,1,1.12,3.76c-.68-1.19-1.47-2.47-2.77-2.92a5.12,5.12,0,0,0-3.88.64,21.36,21.36,0,0,0-5.36,3.82c-.86.85-1.68,2.07-1.32,3.17a.71.71,0,0,0-.64.1,13.07,13.07,0,0,0-4.52,6.14c-.72,2.48-.11,5.47,2,7a2,2,0,0,0,1.24.45.89.89,0,0,0,.84-.87,17.4,17.4,0,0,0,2.6,4,2.91,2.91,0,0,0,2.16,1.27,2.11,2.11,0,0,0,1.77-1.56,6.23,6.23,0,0,0,.11-2.51,5.32,5.32,0,0,0,3.31,2.5,4.32,4.32,0,0,0,2.87.2,1.86,1.86,0,0,0,1.19-2.32,3.58,3.58,0,0,0,2.74,1.59,3.5,3.5,0,0,0,1.9,0,2.65,2.65,0,0,0,1.47-2.58,7.78,7.78,0,0,0-.91-3,7.24,7.24,0,0,0,3-.31,2.5,2.5,0,0,0,1.69-2.26,20.85,20.85,0,0,0,4.06,3.37,1.46,1.46,0,0,0,1,.31c.51-.08.78-.64.88-1.15a4.75,4.75,0,0,0-.22-2.64c.75.48.85,1.55,1.44,2.23A2.4,2.4,0,0,0,895,241a4.92,4.92,0,0,0,2.14-1.72c1.93-2.51,2.64-5.72,3.12-8.84l.19,1.18a2.2,2.2,0,0,0,1.74,1.26,5.63,5.63,0,0,0,2.23-.2,3.56,3.56,0,0,0,1.75-.77,2.64,2.64,0,0,0,.34-2.95,7.77,7.77,0,0,0-2.06-2.37c1.87-.14,4.11-.52,4.83-2.25A4.46,4.46,0,0,0,908.75,220.79Z"/><path class="cls-6" d="M923.73,219.47a1.88,1.88,0,0,0-.49-1.52,8,8,0,0,0-5.51-3.07,1.67,1.67,0,0,0,1.24-2.25,4.3,4.3,0,0,0-2.12-2,22.94,22.94,0,0,0-3.21-1.51c-1.11-.43-2.5-.74-3.43,0a4,4,0,0,0-2.72-3.54,4.2,4.2,0,0,0-4.39,1.25c.31-.32-.11-.8-.5-1a17.92,17.92,0,0,0-7.14-2.31,5.24,5.24,0,0,0-2.89.31,2.08,2.08,0,0,0-1.24,2.31,7,7,0,0,0-1.44-2,2.57,2.57,0,0,0-2.31-.63,3.32,3.32,0,0,0-1.47,1.07,18.93,18.93,0,0,0-3.53,5.5c-.61-.83-1.56-1.77-2.55-1.41a2,2,0,0,0-.77.57,4.82,4.82,0,0,0-1.15,2.47,1.72,1.72,0,0,0-1.82.91,4.61,4.61,0,0,0-.41,2.08c-.06,1.27-.11,2.55-.16,3.83a2.76,2.76,0,0,0-3.79-.06,4.45,4.45,0,0,0-1.24,3.76,24,24,0,0,0,1,4l42.45,1c2.94-.31,6.19.87,8.72-.6a1.51,1.51,0,0,0,.66-.64,1.59,1.59,0,0,0-.2-1.26,14.1,14.1,0,0,0-2.24-3.33C922,220.63,923.47,220.53,923.73,219.47Z"/><path class="cls-6" d="M738.42,312.88c4.14-.46,7.86-2.93,10.63-6.06a48.42,48.42,0,0,0,6.6-10.6,44.07,44.07,0,0,1-7.53,4.42,16,16,0,0,1,2.54-5.05l-7.55,2.56a43.21,43.21,0,0,0,9.18-7.25,20.08,20.08,0,0,1-13.34,3,28,28,0,0,0,9-5.48c1-.88,2-1.72,3-2.56a75.41,75.41,0,0,0,5.44-6,33,33,0,0,1-7.8-.46,39.34,39.34,0,0,0,6.3-2,20.19,20.19,0,0,0,7.47-5.69c1.25-1.88,2-3.08,2-3.08C759,272,754,271.76,747.15,270.29a22.38,22.38,0,0,0,13.31-7.47,12.31,12.31,0,0,1-7.93.84,44.23,44.23,0,0,0,8.38-5.47,15,15,0,0,1-11.84,1c5.42-2.12,9.36-6.42,12.58-11.39a12.57,12.57,0,0,1-6.52.37,19.22,19.22,0,0,0,10.7-7.73c.33-.63.65-1.26,1-1.88a7.16,7.16,0,0,1-8.24,3.27l3.39-2.55a5.46,5.46,0,0,1-4.22.89A20.72,20.72,0,0,0,764,233.5a22.83,22.83,0,0,1-13,.22,27.36,27.36,0,0,0,19.61-19.23,27.39,27.39,0,0,0,19.62,19.23,22.83,22.83,0,0,1-13-.22,20.72,20.72,0,0,0,6.27,6.67,5.46,5.46,0,0,1-4.22-.89l3.39,2.55a7.16,7.16,0,0,1-8.24-3.27c.31.62.63,1.25,1,1.88a19.22,19.22,0,0,0,10.7,7.73,12.57,12.57,0,0,1-6.52-.37c3.22,5,7.16,9.27,12.58,11.39a15,15,0,0,1-11.85-1,44.63,44.63,0,0,0,8.39,5.47,12.31,12.31,0,0,1-7.93-.84,22.38,22.38,0,0,0,13.31,7.47c-6.81,1.47-11.84,1.69-17.25-1.65,0,0,.71,1.2,2,3.08a20.19,20.19,0,0,0,7.47,5.69,39.34,39.34,0,0,0,6.3,2,33,33,0,0,1-7.8.46,75.41,75.41,0,0,0,5.44,6c1,.84,2,1.68,3.05,2.56a28,28,0,0,0,9,5.48,20.08,20.08,0,0,1-13.34-3,43.21,43.21,0,0,0,9.18,7.25l-7.55-2.56a16,16,0,0,1,2.54,5.05,44.07,44.07,0,0,1-7.53-4.42,48.42,48.42,0,0,0,6.6,10.6c2.77,3.13,6.48,5.6,10.63,6.06a24.82,24.82,0,0,1-16.1-2.38,11.27,11.27,0,0,0,5.16,5.38c-1-.35-3.64-.92-4.65-1.26.28,1.73-.16,3.09,2.45,5.42a24.41,24.41,0,0,0-5.71-1.7,31.15,31.15,0,0,0,2,3.88,4.53,4.53,0,0,1-5.12-3l.29,4.38-2.24-3a3.9,3.9,0,0,1-.35,2.05l-1.44-2.44a26,26,0,0,1-2,5.23c.09-2.41.12-5-1.3-7a7.57,7.57,0,0,1-3.74,5.22c.25-1.41.5-2.82.74-4.23a12.18,12.18,0,0,1-2,3c-.13-.95-.21-1.91-.25-2.88a9.29,9.29,0,0,1-4.11,3.68,27.92,27.92,0,0,1-5.28,1.82,20.13,20.13,0,0,0,4.06-4.43,7.53,7.53,0,0,1-3.69,2.66,2.46,2.46,0,0,1,1-2.13,16.38,16.38,0,0,1-4.14,2.07c.8-.77,1.56-1.58,2.3-2.41a20.19,20.19,0,0,1-4,1.74c-1.17.44-4,1.57-4.9.75a18.87,18.87,0,0,0,4.12-4.2,10.48,10.48,0,0,0-2.28.86l.84-5.2-3,1a11.27,11.27,0,0,0,5.16-5.38A24.82,24.82,0,0,1,738.42,312.88Z"/><path class="cls-6" d="M786.54,330.94l-7.09,2A107.42,107.42,0,0,0,796,314.79a24.55,24.55,0,0,1-2.46,1,37,37,0,0,1-5.2,1.33,13,13,0,0,0,6-4.23c.11-.12.22-.23.32-.35l-1.24.67a14,14,0,0,0,1.44-3l-8.15,2.94a55.13,55.13,0,0,0,8.73-9.73l-1.24.21-5.7.94a25.62,25.62,0,0,0,9.2-4.71,43.28,43.28,0,0,0,3.36-7.31l-4,2.29a4.22,4.22,0,0,1,0-2.23,19.73,19.73,0,0,1-6.2,1.89,11.09,11.09,0,0,0,3.77-1.94l1-.66a44.22,44.22,0,0,1-9.83.51,44.6,44.6,0,0,0,13.24-13.1,15.86,15.86,0,0,1-7.62,1,15.58,15.58,0,0,0,8.84-6.12l-1,.32c0-.62-.09-1.25-.13-1.87l-.36.25a12.22,12.22,0,0,1-1.45.92,10,10,0,0,1-1.89.69,31.24,31.24,0,0,1-5.33,1,18,18,0,0,0,4.8-2.6,11.13,11.13,0,0,0,1-.87,16.13,16.13,0,0,1-8.5.08c6.85-3.08,12.24-7.85,15.1-13.35l-3.61,1.06c.21-1,.43-1.93.64-2.89a15.86,15.86,0,0,1-5,1.8,8.3,8.3,0,0,0,3.88-3.86c.18-.3.35-.61.51-.92L793.07,255c7.41-5,14.74-11.27,14.66-18.67h0c-.08,7.4,7.25,13.63,14.66,18.67l-6.22-1.22,1,2.5-1.46-.57.9,4-1.75-.51a14.63,14.63,0,0,0,.92,1.16,9.36,9.36,0,0,0,5.78,3.18,5.16,5.16,0,0,1-3.21.95c-.36,0-.72,0-1.08,0a34.64,34.64,0,0,0,10.82,7.48,15.86,15.86,0,0,1-10.15-.68l1.55,2.88-3.16-2c0,.75-.09,1.5-.14,2.24l-1.64-.5a24.14,24.14,0,0,0,3.93,3.83,20.83,20.83,0,0,0,9,4.09,13.85,13.85,0,0,1-8.06-.43,14.31,14.31,0,0,1-2.43-1.17,45,45,0,0,0,12.57,12.07,44.88,44.88,0,0,1-8.2-.27,26.1,26.1,0,0,0,5.95,3.32,21.69,21.69,0,0,1-4.11-.17,7.06,7.06,0,0,1-3.69-1.72,10.5,10.5,0,0,1-1.1-1.3c-.18-.24-.36-.47-.53-.71h0a4.32,4.32,0,0,1,.37,3.29l-4-2.29a.88.88,0,0,0,0,.15q.54,1,1.11,2a25.35,25.35,0,0,0,4.51,5.92,12.36,12.36,0,0,0,6.57,3.29,31.71,31.71,0,0,1-6.08-.58l-.72-.19a55.13,55.13,0,0,0,8.91,10l-8.14-2.94a13.49,13.49,0,0,0,1.43,3l-1.78-1a1.14,1.14,0,0,0,.28,1.32l-2.9-1.46c.78,1.18,1.59,2.35,2.44,3.5q.74.49,1.5.93a62.19,62.19,0,0,0,6.19,3.17,12.36,12.36,0,0,0,5,1.33,38.14,38.14,0,0,1-6.57.78c-.39,0-.78,0-1.17,0A110,110,0,0,0,836,333l-7.1-2a5.81,5.81,0,0,0,.07,3.28l-4.86-3a5.5,5.5,0,0,1-.46,2.48,20.72,20.72,0,0,0-5.19-2.24c-4.47-1-7.32.84-10.75-3.06-3.43,3.9-6.28,2.1-10.75,3.06a20.72,20.72,0,0,0-5.19,2.24,5.5,5.5,0,0,1-.46-2.48l-4.86,3A5.81,5.81,0,0,0,786.54,330.94Z"/><path class="cls-6" d="M724.55,302.16l-4.55,1.3a68.85,68.85,0,0,0,10.61-11.65,15.05,15.05,0,0,1-1.57.62,25.43,25.43,0,0,1-3.33.86,8.41,8.41,0,0,0,3.88-2.72l.2-.22-.8.43a9,9,0,0,0,.92-1.93l-5.22,1.89a35.52,35.52,0,0,0,5.6-6.24l-.8.14-3.65.6a16.26,16.26,0,0,0,5.89-3,27.39,27.39,0,0,0,2.16-4.68L731.35,279a2.74,2.74,0,0,1,0-1.42,12.7,12.7,0,0,1-4,1.21,7.32,7.32,0,0,0,2.42-1.24l.61-.43a28.8,28.8,0,0,1-6.3.33,28.58,28.58,0,0,0,8.49-8.4,10.16,10.16,0,0,1-4.89.65,10,10,0,0,0,5.67-3.92l-.68.21c0-.4,0-.81-.08-1.21l-.23.17a8.12,8.12,0,0,1-.93.59,7.28,7.28,0,0,1-1.21.44,18.93,18.93,0,0,1-3.41.62,11.84,11.84,0,0,0,3.07-1.66,6.42,6.42,0,0,0,.61-.56,10.29,10.29,0,0,1-5.45.05,20,20,0,0,0,9.68-8.55l-2.32.68.42-1.85a10.34,10.34,0,0,1-3.19,1.15,5.26,5.26,0,0,0,2.49-2.48l.33-.59-3.73.73c4.75-3.22,9.45-7.22,9.4-12h0c0,4.74,4.64,8.74,9.39,12l-4-.78.66,1.61-.93-.37.57,2.58-1.12-.33a7.09,7.09,0,0,0,.59.74,6,6,0,0,0,3.7,2,3.31,3.31,0,0,1-2,.61c-.23,0-.47,0-.7,0a22.1,22.1,0,0,0,6.94,4.79,10.13,10.13,0,0,1-6.51-.43l1,1.84-2-1.29c0,.48-.07,1-.1,1.44l-1.05-.33a15.85,15.85,0,0,0,2.52,2.46,13.38,13.38,0,0,0,5.79,2.62,8.9,8.9,0,0,1-5.16-.28,8.29,8.29,0,0,1-1.56-.75,29,29,0,0,0,8,7.74,28.76,28.76,0,0,1-5.25-.18,16.44,16.44,0,0,0,3.82,2.13,13.67,13.67,0,0,1-2.64-.11,4.52,4.52,0,0,1-2.37-1.1,7,7,0,0,1-.7-.83l-.34-.46h0a2.76,2.76,0,0,1,.24,2.1l-2.54-1.46,0,.1c.23.43.47.86.72,1.28a15.73,15.73,0,0,0,2.89,3.79,7.87,7.87,0,0,0,4.21,2.11,20.37,20.37,0,0,1-3.9-.37l-.46-.12a34.89,34.89,0,0,0,5.71,6.41l-5.22-1.89a9,9,0,0,0,.92,1.93l-1.14-.62a.71.71,0,0,0,.17.84l-1.85-.93c.5.75,1,1.5,1.56,2.24.31.21.64.41,1,.6a40,40,0,0,0,4,2,7.83,7.83,0,0,0,3.19.86,23.73,23.73,0,0,1-4.21.5h-.75a71.41,71.41,0,0,0,7.09,7.16l-4.54-1.3a3.7,3.7,0,0,0,0,2.11l-3.12-1.9a3.49,3.49,0,0,1-.29,1.58,14,14,0,0,0-3.32-1.44c-2.87-.61-4.7.55-6.89-1.95-2.2,2.5-4,1.34-6.89,1.95a13.9,13.9,0,0,0-3.33,1.44,3.49,3.49,0,0,1-.29-1.58l-3.12,1.9A3.79,3.79,0,0,0,724.55,302.16Z"/><path class="cls-6" d="M596.66,472l-150-63.81q11.16-22.67,22.34-45.33c6.92-14,14.09-28.42,25.59-39,15.57-14.39,37-20.1,57.57-25.32,7.63-1.94,15.43-3.9,23.26-3.15s15.1,4.14,22.84,5.31c13.73,2.09,27.4-2.87,41-5.85.88-.2,1.78-.38,2.69-.56,15-9.88,34.62-14.47,53.34-12.23,15.66,1.88,30.57,8.22,46.38,8,11-.15,22.39-3.48,32.8-.36,11.1,3.33,17.79,13,27.75,18.4,16,8.62,36.66,4.7,54.87.5,21.69-5,44.07-10.3,61.52-22.44,10.85-7.54,19.3-17.42,30.38-24.71s26.53-11.7,39-6.3c6.94,3,11.81,8.55,17.22,13.34,14.41,12.8,33.53,20.91,52.92,27.19a373.74,373.74,0,0,0,83,16.68c26.75,2.3,53.91,1.78,80.23,6.45s52.68,15.53,67,35.07l9.27,121.29L635.1,472.18l-3.72,14.58L596.72,472h-.07Z"/><path class="cls-7" d="M407.33,307.21c5.66-.63,10.74-4,14.52-8.26s6.44-9.38,9-14.47a60.16,60.16,0,0,1-10.28,6,22.21,22.21,0,0,1,3.46-6.89l-10.29,3.49a58.75,58.75,0,0,0,12.53-9.89,27.42,27.42,0,0,1-18.21,4.07,38.15,38.15,0,0,0,12.32-7.48c1.4-1.21,2.78-2.35,4.17-3.49a101.87,101.87,0,0,0,7.41-8.19,44.19,44.19,0,0,1-10.63-.63,55.54,55.54,0,0,0,8.59-2.68,27.58,27.58,0,0,0,10.19-7.77c1.7-2.57,2.67-4.21,2.67-4.21-7.38,4.56-14.24,4.27-23.54,2.26a30.59,30.59,0,0,0,18.18-10.19,16.84,16.84,0,0,1-10.83,1.15A62.16,62.16,0,0,0,438,232.59,20.38,20.38,0,0,1,421.87,234c7.39-2.88,12.77-8.76,17.16-15.53a17.25,17.25,0,0,1-8.9.5,26.24,26.24,0,0,0,14.61-10.55c.44-.86.88-1.71,1.31-2.57a9.75,9.75,0,0,1-11.24,4.47l4.62-3.49a7.49,7.49,0,0,1-5.77,1.23,28.13,28.13,0,0,0,8.56-9.11,31.06,31.06,0,0,1-17.74.3A37.35,37.35,0,0,0,451.25,173,37.35,37.35,0,0,0,478,199.2a31.06,31.06,0,0,1-17.74-.3,28.13,28.13,0,0,0,8.56,9.11,7.46,7.46,0,0,1-5.76-1.23l4.61,3.49a9.76,9.76,0,0,1-11.24-4.47c.43.86.87,1.71,1.31,2.57a26.24,26.24,0,0,0,14.61,10.55,17.25,17.25,0,0,1-8.9-.5c4.39,6.77,9.77,12.65,17.16,15.53a20.39,20.39,0,0,1-16.16-1.36,62.16,62.16,0,0,0,11.44,7.47,16.81,16.81,0,0,1-10.82-1.15,30.53,30.53,0,0,0,18.17,10.19c-9.29,2-16.16,2.3-23.54-2.26,0,0,1,1.64,2.67,4.21a27.58,27.58,0,0,0,10.19,7.77,55.32,55.32,0,0,0,8.6,2.68,44.27,44.27,0,0,1-10.64.63,102,102,0,0,0,7.42,8.19c1.38,1.14,2.76,2.28,4.16,3.49a38.09,38.09,0,0,0,12.33,7.48,27.44,27.44,0,0,1-18.22-4.07,59,59,0,0,0,12.53,9.89l-10.29-3.49a22,22,0,0,1,3.46,6.89,60.55,60.55,0,0,1-10.28-6c2.57,5.09,5.22,10.21,9,14.47s8.85,7.63,14.51,8.26a33.86,33.86,0,0,1-22-3.25,15.41,15.41,0,0,0,7,7.34c-1.38-.47-5-1.25-6.34-1.72.38,2.36-.22,4.22,3.34,7.4-1.24-.75-4.23-1.54-7.78-2.32a41.61,41.61,0,0,0,2.78,5.29,6.18,6.18,0,0,1-7-4.1l.4,6-3.06-4a5.29,5.29,0,0,1-.48,2.8l-2-3.34a36.81,36.81,0,0,1-2.79,7.15c.12-3.3.16-6.86-1.78-9.52a10.39,10.39,0,0,1-5.09,7.11c.33-1.92.67-3.85,1-5.77a16.17,16.17,0,0,1-2.68,4.11c-.17-1.3-.29-2.61-.34-3.93a12.77,12.77,0,0,1-5.6,5,38.59,38.59,0,0,1-7.21,2.47,27.2,27.2,0,0,0,5.54-6,10.21,10.21,0,0,1-5,3.62,3.33,3.33,0,0,1,1.31-2.89,23,23,0,0,1-5.65,2.82q1.64-1.59,3.13-3.3a26.67,26.67,0,0,1-5.51,2.38c-1.61.6-5.4,2.14-6.7,1a25.42,25.42,0,0,0,5.62-5.72,14,14,0,0,0-3.1,1.17l1.14-7.1-4.14,1.42a15.36,15.36,0,0,0,7-7.34A33.86,33.86,0,0,1,407.33,307.21Z"/><path class="cls-7" d="M231.8,244.68c5.66-.63,10.73-4,14.52-8.26s6.43-9.38,9-14.47A60.55,60.55,0,0,1,245,228a22,22,0,0,1,3.46-6.89l-10.29,3.49a58.75,58.75,0,0,0,12.53-9.89,27.37,27.37,0,0,1-18.22,4.06,37.89,37.89,0,0,0,12.33-7.47c1.4-1.21,2.78-2.35,4.16-3.49a100.17,100.17,0,0,0,7.42-8.19,44.27,44.27,0,0,1-10.64-.63,55.32,55.32,0,0,0,8.6-2.68,27.58,27.58,0,0,0,10.19-7.77c1.7-2.57,2.67-4.21,2.67-4.21-7.38,4.56-14.25,4.27-23.54,2.26a30.53,30.53,0,0,0,18.17-10.19,16.81,16.81,0,0,1-10.82,1.15,62.16,62.16,0,0,0,11.44-7.47,20.39,20.39,0,0,1-16.16,1.36c7.39-2.88,12.77-8.76,17.16-15.53a17.25,17.25,0,0,1-8.9.5,26.24,26.24,0,0,0,14.61-10.55c.44-.86.88-1.71,1.31-2.57a9.76,9.76,0,0,1-11.24,4.47l4.61-3.49a7.46,7.46,0,0,1-5.76,1.23,28.13,28.13,0,0,0,8.56-9.11,31.06,31.06,0,0,1-17.74.3,37.35,37.35,0,0,0,26.77-26.23,37.35,37.35,0,0,0,26.77,26.23,31.06,31.06,0,0,1-17.74-.3,28.13,28.13,0,0,0,8.56,9.11,7.46,7.46,0,0,1-5.76-1.23l4.61,3.49a9.76,9.76,0,0,1-11.24-4.47c.43.86.87,1.71,1.31,2.57a26.24,26.24,0,0,0,14.61,10.55,17.25,17.25,0,0,1-8.9-.5c4.39,6.77,9.77,12.65,17.16,15.53a20.39,20.39,0,0,1-16.16-1.36,62.16,62.16,0,0,0,11.44,7.47,16.8,16.8,0,0,1-10.82-1.15,30.53,30.53,0,0,0,18.17,10.19c-9.3,2-16.16,2.3-23.54-2.26,0,0,1,1.64,2.67,4.21a27.58,27.58,0,0,0,10.19,7.77,55.32,55.32,0,0,0,8.6,2.68,44.3,44.3,0,0,1-10.64.63,101.87,101.87,0,0,0,7.41,8.19c1.39,1.14,2.77,2.28,4.17,3.49a38,38,0,0,0,12.32,7.47,27.36,27.36,0,0,1-18.21-4.06,58.75,58.75,0,0,0,12.53,9.89l-10.29-3.49A22.21,22.21,0,0,1,306.4,228a60.55,60.55,0,0,1-10.28-6c2.56,5.09,5.22,10.21,9,14.47s8.86,7.63,14.52,8.26a33.86,33.86,0,0,1-22-3.25,15.36,15.36,0,0,0,7,7.34c-1.38-.47-5-1.25-6.34-1.72.38,2.36-.22,4.22,3.34,7.4-1.24-.75-4.23-1.54-7.79-2.32a43,43,0,0,0,2.79,5.29,6.18,6.18,0,0,1-7-4.1l.4,6-3.06-4a5.29,5.29,0,0,1-.48,2.8c-.65-1.11-1.3-2.23-2-3.34a35.83,35.83,0,0,1-2.78,7.14c.12-3.29.16-6.85-1.78-9.51a10.37,10.37,0,0,1-5.1,7.11c.34-1.92.68-3.85,1-5.77a16.44,16.44,0,0,1-2.68,4.11c-.17-1.3-.29-2.61-.34-3.93a12.77,12.77,0,0,1-5.6,5,38.69,38.69,0,0,1-7.22,2.47,27.24,27.24,0,0,0,5.55-6,10.21,10.21,0,0,1-5,3.62,3.33,3.33,0,0,1,1.31-2.89,23,23,0,0,1-5.65,2.82q1.63-1.59,3.13-3.3a26.52,26.52,0,0,1-5.52,2.38c-1.6.6-5.4,2.14-6.69,1a25.42,25.42,0,0,0,5.62-5.72,14,14,0,0,0-3.1,1.17l1.14-7.1-4.14,1.42a15.41,15.41,0,0,0,7-7.34A33.86,33.86,0,0,1,231.8,244.68Z"/><path class="cls-7" d="M482.67,340.57l-9,2.55a135.79,135.79,0,0,0,21-23,30.85,30.85,0,0,1-3.11,1.22A46.49,46.49,0,0,1,485,323c3.06-.81,5.54-3,7.67-5.36l.4-.45-1.57.85a17.72,17.72,0,0,0,1.82-3.81L483,318A69.73,69.73,0,0,0,494,305.64l-1.58.27-7.22,1.19a32.47,32.47,0,0,0,11.66-6,55.5,55.5,0,0,0,4.27-9.26l-5,2.89a5.4,5.4,0,0,1,0-2.82,24.75,24.75,0,0,1-7.85,2.4,14.4,14.4,0,0,0,4.78-2.46l1.22-.84a56.46,56.46,0,0,1-12.47.65,56.72,56.72,0,0,0,16.79-16.61c-3.13,1-6.43,1.85-9.66,1.29a19.76,19.76,0,0,0,11.2-7.77l-1.33.42c-.06-.8-.11-1.59-.16-2.38l-.46.32a14.68,14.68,0,0,1-1.84,1.17,12.75,12.75,0,0,1-2.4.87,38.74,38.74,0,0,1-6.75,1.24,23.08,23.08,0,0,0,6.08-3.29,14.08,14.08,0,0,0,1.2-1.11,20.36,20.36,0,0,1-10.76.11c8.67-3.91,15.51-10,19.13-16.93l-4.58,1.34c.27-1.22.55-2.44.82-3.66a20.35,20.35,0,0,1-6.31,2.29c2.21-.84,3.74-2.86,4.93-4.9.22-.38.44-.77.65-1.17L491,244.36c9.38-6.37,18.67-14.28,18.57-23.65h0c-.1,9.37,9.19,17.28,18.58,23.65l-7.88-1.54,1.32,3.17-1.85-.71c.38,1.69.75,3.39,1.13,5.08l-2.21-.65a16.66,16.66,0,0,0,1.16,1.47,11.89,11.89,0,0,0,7.33,4,6.58,6.58,0,0,1-4.07,1.2c-.45,0-.91.06-1.37.05A44.1,44.1,0,0,0,535.39,266a20.07,20.07,0,0,1-12.87-.87c.65,1.22,1.31,2.43,2,3.65l-4-2.56c-.07.95-.13,1.9-.19,2.85l-2.07-.65a30.47,30.47,0,0,0,5,4.86,26.57,26.57,0,0,0,11.46,5.19,17.61,17.61,0,0,1-10.21-.55,16.82,16.82,0,0,1-3.08-1.49,57.09,57.09,0,0,0,15.93,15.31,57.21,57.21,0,0,1-10.39-.35,32.62,32.62,0,0,0,7.54,4.21,26.78,26.78,0,0,1-5.22-.22,9,9,0,0,1-4.67-2.17,13.64,13.64,0,0,1-1.39-1.65l-.67-.9h0a5.47,5.47,0,0,1,.48,4.16l-5-2.89.06.19q.69,1.29,1.41,2.55a31.73,31.73,0,0,0,5.72,7.49,15.74,15.74,0,0,0,8.32,4.18,40.52,40.52,0,0,1-7.7-.75l-.92-.23A69.67,69.67,0,0,0,536.1,318l-10.32-3.73a16.82,16.82,0,0,0,1.82,3.81l-2.27-1.23a1.45,1.45,0,0,0,.36,1.67L522,316.65c1,1.49,2,3,3.09,4.43.63.42,1.27.81,1.91,1.18a79.39,79.39,0,0,0,7.85,4,15.63,15.63,0,0,0,6.31,1.7,49.58,49.58,0,0,1-8.33,1c-.49,0-1,0-1.49,0a141.78,141.78,0,0,0,14,14.15l-9-2.55a7.4,7.4,0,0,0,.09,4.17L530.32,341a7.11,7.11,0,0,1-.58,3.13,27.65,27.65,0,0,0-6.58-2.84c-5.67-1.21-9.28,1.08-13.63-3.86-4.34,4.94-7.95,2.65-13.62,3.86a27.55,27.55,0,0,0-6.59,2.84,7,7,0,0,1-.57-3.13l-6.16,3.77A7.4,7.4,0,0,0,482.67,340.57Z"/><path class="cls-3" d="M644,268.25a33.71,33.71,0,0,0,1.36-9.49,39.52,39.52,0,0,0-1.12-9.19,55.33,55.33,0,0,0-7.09-16.22c-1.51-2.46-3.22-4.81-4.77-7a35,35,0,0,1-3.89-6.74c-1.92-4.73-2.33-10.23-2.67-15.74l-3,0c-.08,2.78-.17,5.6,0,8.48a36.32,36.32,0,0,0,1.38,8.7,39.31,39.31,0,0,0,3.66,8.07c1.42,2.48,2.77,4.78,4,7.18A48.63,48.63,0,0,1,636.74,251a27.59,27.59,0,0,1-1.45,14.22Z"/><path class="cls-3" d="M627,218a16.16,16.16,0,0,0-2.94-1.6,7.35,7.35,0,0,0-1.9-.47,5.47,5.47,0,0,0-2.12.2,10.18,10.18,0,0,0-1.49.64,4.09,4.09,0,0,1-.42.17.94.94,0,0,1-.3.05,12.17,12.17,0,0,1-2.44-.7,10.22,10.22,0,0,1-4.55-2.68,27,27,0,0,1-1.62-2.33,8.24,8.24,0,0,0-2.09-2.33l-.59.75c1.31,1.22,1.74,3.13,2.9,4.94A9.37,9.37,0,0,0,611.7,217a18.83,18.83,0,0,0,2.69,1.62l1.34.66a6.54,6.54,0,0,0,1.72.61,3.76,3.76,0,0,0,1.16,0,4.86,4.86,0,0,0,1-.22,10.59,10.59,0,0,1,1.26-.36,2.73,2.73,0,0,1,1.69.45,12.14,12.14,0,0,1,2,1.5Z"/><path class="cls-3" d="M624.69,212.49l4.29,1.17,1.07.3.54.14a2.5,2.5,0,0,0,.88.13,1.72,1.72,0,0,0,1-.41c.21-.18.31-.29.45-.42l.81-.78q1.6-1.59,3.1-3.25l.75-.84a1.41,1.41,0,0,1,.7-.51,10.68,10.68,0,0,0,2.08-1l-.29-.53a11.17,11.17,0,0,1-2,.7,2.65,2.65,0,0,0-.63.24,2.84,2.84,0,0,0-.52.4l-.82.74q-1.65,1.47-3.38,2.84l-.87.67c-.14.1-.32.25-.4.3s-.09,0,0,0-.42-.17-.73-.3l-1-.41-4.14-1.64Z"/><path class="cls-3" d="M616.36,262a3.78,3.78,0,0,0-2.2-1,4.67,4.67,0,0,0-1.89.21,5.91,5.91,0,0,0-1.49.73c-.39.27-.7.54-1,.77a4.8,4.8,0,0,1-1.17.84,2.41,2.41,0,0,1-1.22.11,25.88,25.88,0,0,1-3.82-1.12,14,14,0,0,0-4.76-.69,11.24,11.24,0,0,0-2.39.4,9.29,9.29,0,0,1-1.79.33,6.11,6.11,0,0,1-3.33-.95c-2.14-1.25-3.66-3.6-5-6.07l-1.72.84c1.17,2.6,2.6,5.44,5.3,7.33a8.77,8.77,0,0,0,4.68,1.64,11,11,0,0,0,2.43-.24,8.39,8.39,0,0,1,1.84-.19,10.73,10.73,0,0,1,3.61.81,27.65,27.65,0,0,0,4.29,1.54,6.28,6.28,0,0,0,3-.1,8,8,0,0,0,2.46-1.35c.28-.21.53-.38.73-.5a1.27,1.27,0,0,1,.45-.17c.13,0,.23,0,.22,0a.4.4,0,0,1-.3-.12Z"/><path class="cls-6" d="M608.47,257.93c0,.19-.17.29-.1.15a1.43,1.43,0,0,1,.52-.45c.49-.31,1.66-.5,2.91-1.23a4.58,4.58,0,0,0,1.63-1.64,5.86,5.86,0,0,0,.67-1.93,18.64,18.64,0,0,0,.12-3.3,7.42,7.42,0,0,0-.26-1.76c-.17-.62-.4-1.08-.5-1.43a1.38,1.38,0,0,1,0-.92,5.48,5.48,0,0,1,.54-1.18,12.23,12.23,0,0,1,3.87-4.17l-.42-.74a13.67,13.67,0,0,0-4.87,4,7.2,7.2,0,0,0-.91,1.45,3.47,3.47,0,0,0-.26,2c.1.63.26,1.11.29,1.48a5.08,5.08,0,0,1,0,1.23,15.86,15.86,0,0,1-.47,2.68,2.46,2.46,0,0,1-.45.86,1.28,1.28,0,0,1-.56.37c-.53.23-1.42.25-2.78.69a5.49,5.49,0,0,0-2,1.2,3.93,3.93,0,0,0-1.21,2.87Z"/><path class="cls-3" d="M659.4,251.36a32.44,32.44,0,0,0,5.22,2.27,11,11,0,0,0,6.08.24c2.1-.58,3.49-1.9,4.92-2.72s3.14-1.3,4.48-.42l.46-.54a4,4,0,0,0-2.76-1,7.37,7.37,0,0,0-2.87.55c-1.76.7-3.29,1.63-4.72,1.73a8.16,8.16,0,0,1-4.38-1,28.82,28.82,0,0,1-4.18-2.75Z"/><path class="cls-3" d="M624.31,200.16a1.71,1.71,0,0,0-.3-.52,3.71,3.71,0,0,1,0-4.28c.22-.3.49-.56.68-.88a9.85,9.85,0,0,0,.61-2.07,4.54,4.54,0,0,1,2.95-2.78,7.51,7.51,0,0,1,4.15,0,2.52,2.52,0,0,1,1.87-1.1,13.58,13.58,0,0,1,4.29-.53,4.68,4.68,0,0,1,3.66,2,11.36,11.36,0,0,1,.87,2.7,3.26,3.26,0,0,0,1.63,2.21,10.69,10.69,0,0,0,2.19.29,3.17,3.17,0,0,1,2.53,3.15,2.92,2.92,0,0,1,2.77,1.48c1.18,1.88.75,4.37-.17,6.38a6.16,6.16,0,0,1-2.71,3.16c-2.17,1-4.66-.14-6.92-.95a.7.7,0,0,0-.45-.05c-.26.08-.32.41-.45.66-.39.73-1.48.68-2.25.35a5.61,5.61,0,0,1-2.73-2.58c-.37,1.09-1.93,1.12-3,.66s-2.31-1.66-2-2.92a2.29,2.29,0,0,1-3.62.66,1.56,1.56,0,0,1-1.92.56,3.12,3.12,0,0,1-1.49-1.53,6.74,6.74,0,0,1-.69-2c.14-.49.27-1,.41-1.47A1.28,1.28,0,0,0,624.31,200.16Z"/><path class="cls-3" d="M589.74,207.64a4,4,0,0,1,3.13-2.61,2.8,2.8,0,0,1,1.45.26,6.84,6.84,0,0,1-.67-3.3,7.61,7.61,0,0,1,2.62-5.27,4.38,4.38,0,0,1,2.78-1.22,2.27,2.27,0,0,1,2.26,1.74c-.23-2.22-.28-4.55,1-6.54a4.43,4.43,0,0,1,1.22-1.33c2.52-1.82,5.25-.33,7.17,1.48a7.17,7.17,0,0,1,.4-2.88,2.49,2.49,0,0,1,2.21-1.63,2.89,2.89,0,0,1,1.36.48,7.1,7.1,0,0,1,2.66,2.8,4.87,4.87,0,0,1,.88-2.58,1.27,1.27,0,0,1,.58-.52c.48-.18,1,.16,1.37.51a9.27,9.27,0,0,1,2,2.7v0a1.66,1.66,0,0,1,2.59-1.2,27.18,27.18,0,0,0,3.06,1.75c.22-.28,1.25.87,1.46.6.81.86.82.33,1.26,1.43a3.25,3.25,0,0,1-.37,3.35,3.86,3.86,0,0,1-2.39,1.08c-.39.06-.93-.13-1-.42-.13.89.33,1.92-.21,2.64a1.48,1.48,0,0,1-1,.53c.1.16.2.33.29.5a4.93,4.93,0,0,1,.63,3.54,2.55,2.55,0,0,1-2.73,1.94,9.19,9.19,0,0,0,.17,2.33,2.39,2.39,0,0,1-.65,2.15,2.8,2.8,0,0,1-1.09.43,3.47,3.47,0,0,1-1.53.13,1.34,1.34,0,0,1-.9-.63,1.49,1.49,0,0,1-1.1,1.54,2.28,2.28,0,0,1-2.2-.87,6.2,6.2,0,0,1-1-2.26c.12.4-.3.8-.72.82a2.06,2.06,0,0,1-1.16-.44c-1-.68-2.08-1.41-3.08-2.19a3.22,3.22,0,0,1-.2,2.13c-.38.62-1.43.84-1.81.21a10.44,10.44,0,0,1,.41,3.64,1.28,1.28,0,0,1-.15.61.92.92,0,0,1-1.2.2,2.2,2.2,0,0,1-.82-1,3.44,3.44,0,0,1-.84,2.24c-.61.54-1.85.35-1.94-.46a9.21,9.21,0,0,1-2.31,5.22,2.36,2.36,0,0,1-1.23.82,1.81,1.81,0,0,1-1.71-.76,5,5,0,0,1-.76-1.8,2.76,2.76,0,0,1-3.37,1.45c-1.61-.47-2.73-2-3.5-3.38a13.31,13.31,0,0,1-1.18-2.84A8.14,8.14,0,0,1,589.74,207.64Z"/><path class="cls-3" d="M389.79,342.61c.36-17.33-2.46-34.08-6.48-50s-9.26-31.19-14.23-46.28-9.61-30.08-12.62-45.41-4.31-31-2.29-46.46l-5-.89c-3.57,16-3.68,32.56-2,48.73s5.1,32.12,8.73,47.73,7.37,31,9.79,46.23,3.49,30.43,1.86,45Z"/><path class="cls-3" d="M352.05,185.82a3.9,3.9,0,0,1,1.8-1.39,4.25,4.25,0,0,1,1.15-.26,5.88,5.88,0,0,1,1.4.11,10.1,10.1,0,0,0,4.67,0,12,12,0,0,0,4.08-2,35.49,35.49,0,0,0,5.6-5.66,12.87,12.87,0,0,1,5.36-4c2.08-.68,4.58-.59,7.16-.67a21,21,0,0,0,4-.49A17.27,17.27,0,0,0,391,170a41.8,41.8,0,0,0,6.5-4.13,12.28,12.28,0,0,0,2.83-2.71,3.59,3.59,0,0,0,.27-3.91l-.42.26a3,3,0,0,1-.48,3.2,11.67,11.67,0,0,1-2.82,2.3,40.6,40.6,0,0,1-6.57,3.5,14.37,14.37,0,0,1-7,1.21c-2.45-.08-5.09-.46-7.92.2a15.79,15.79,0,0,0-7,4.38,32.56,32.56,0,0,1-5.4,4.72,7.92,7.92,0,0,1-2.78,1.13,5.86,5.86,0,0,1-2.82-.27,10.62,10.62,0,0,0-2.36-.35,8.59,8.59,0,0,0-2.58.34,8.94,8.94,0,0,0-4.36,2.83Z"/><path class="cls-3" d="M374.52,172.21c1.34,1.25,2.77,1.47,3.58,2a1.89,1.89,0,0,1,.83.85,10,10,0,0,0,1,1.91,4,4,0,0,0,2.29,1.34,7,7,0,0,0,2.27.07,29.26,29.26,0,0,0,3.89-.85c4.94-1.33,9.74-3.16,14.56-2.49l.27-1.72a22.31,22.31,0,0,0-7.91.29c-2.56.5-5,1.23-7.45,1.81a30.22,30.22,0,0,1-3.58.68,2.78,2.78,0,0,1-2.46-.63,9.23,9.23,0,0,1-.69-1.49,4.5,4.5,0,0,0-1.72-1.91c-1.34-.8-2.55-1.12-3-1.7Z"/><path class="cls-3" d="M353.16,201.31a3.81,3.81,0,0,0-.92-2.42,4.41,4.41,0,0,0-1.63-1.17,5.34,5.34,0,0,0-3.16-.26,18.7,18.7,0,0,1-2.4.67c-.17,0-.71-.29-1.17-1a11.91,11.91,0,0,1-1.21-2.62c-.72-2-1.25-4.24-2-6.54a19.74,19.74,0,0,0-3.57-6.5,10.34,10.34,0,0,1-2.79-5.39c-.4-2.08-.34-4.53-1.34-7a7.31,7.31,0,0,0-2.44-3.1,28.86,28.86,0,0,0-3.06-1.8,9.55,9.55,0,0,1-2.51-1.93,10,10,0,0,1-1-1.27,7.69,7.69,0,0,1-.39-.69l-.18-.36-.08-.19c0-.06,0-.13-.31-.1l-.68.25c-.22.16-.18.23-.15.3l.08.21.17.43a8.76,8.76,0,0,0,.39.82,10.47,10.47,0,0,0,1,1.54,11.13,11.13,0,0,0,2.73,2.45c2,1.27,3.79,2.35,4.33,4.24s.46,4.13.71,6.56a11.77,11.77,0,0,0,1,3.77,23.38,23.38,0,0,0,1.91,3.16c2.65,3.41,2.88,7.63,4.16,12.41a15.94,15.94,0,0,0,1.46,3.69,6.46,6.46,0,0,0,4,3.22,6.19,6.19,0,0,0,2.78-.07,15.31,15.31,0,0,1,1.53-.37c.17,0,.18,0,.21.05a.61.61,0,0,1-.26-.18,1.35,1.35,0,0,1-.32-.84Z"/><path class="cls-3" d="M338.7,185.53l-3.05-.94a24.38,24.38,0,0,1-2.46-.67c-1-.33-1.47-2.26-2.56-4.28a4.75,4.75,0,0,0-2.93-2.23,25.72,25.72,0,0,1-2.79-.66,10.07,10.07,0,0,1-4.43-3.14l-.84.6a11.4,11.4,0,0,0,4.61,4.11,23.86,23.86,0,0,0,2.83,1,2.44,2.44,0,0,1,1.46,1.42c.32.72.53,1.64.88,2.66a5.7,5.7,0,0,0,2.2,3.1,20,20,0,0,0,3.05,1.3l2.46,1.07Z"/><path class="cls-3" d="M384,149.41a33.26,33.26,0,0,0-1.12,5.6c-.16,1.4-.16,3,.83,4,1.15,1.18,3.13,1,4.61.25s2.73-1.89,4.26-2.51a15.17,15.17,0,0,0-3.4,7.51,12.06,12.06,0,0,0,4.76-1.39,10.07,10.07,0,0,0-.54,4,3.61,3.61,0,0,0,1.25,2.81c.88.61,2.4.22,2.52-.83a30.25,30.25,0,0,0-3,6.81,4.2,4.2,0,0,0-.19,2.54,3,3,0,0,0,2.64,1.79,7.18,7.18,0,0,0,3.26-.75,27.51,27.51,0,0,0,5.35-3c.45,1.49-.11,3.31.9,4.49s2.53,1,3.88.68a15.82,15.82,0,0,0,6.55-2.79,8.78,8.78,0,0,0,3.51-6,3.92,3.92,0,0,0-1.07-3.28c3-2.71,3-7.54,1.45-11.29a5,5,0,0,0-1.47-2.23,2.09,2.09,0,0,0-2.5-.15,19.69,19.69,0,0,0-.59-7.75,5.21,5.21,0,0,0-1.29-2.47c-1.69-1.55-4.39-.67-6.47.28L403,148.11a37.44,37.44,0,0,0-.28-8,2.06,2.06,0,0,0-.61-1.4,1.8,1.8,0,0,0-1.23-.26,7.92,7.92,0,0,0-6.58,4.34c.55-1.08-.31-2.45-1.44-2.89a6.24,6.24,0,0,0-3.58,0c-1.88.42-3.85,1-5.14,2.4s-1.51,4,0,5.11a1.31,1.31,0,0,0-1.21-.82,3.42,3.42,0,0,0,1.37,4.59"/><path class="cls-3" d="M-2.92,232.93c32.05-2.19,63.84-8,96-7.16,26.21.69,51.81,5.78,77.07,11.63a9.11,9.11,0,0,1,1.35-4,6.34,6.34,0,0,1,5.28-2.85c1.85.06,3.93,1,5.38,0a2.4,2.4,0,0,1,.76-.44,1.39,1.39,0,0,1,.91.15c3,1.43,2,5.78,4.76,7.59,1,.63,2.25.84,3.16,1.52a3.91,3.91,0,0,1,1.35,3.53q6.53,1.56,13,3.19a29.92,29.92,0,0,0-3-4.42,6.47,6.47,0,0,1,3,2,43.77,43.77,0,0,0-2.33-3.94,9.41,9.41,0,0,1,6.51,4.07,36,36,0,0,0-4.21-7.87,9.54,9.54,0,0,1,4.82,3,29.35,29.35,0,0,1,5.57,7.81c.37.76.7,1.52,1.05,2.28q9.08,2.39,18,5l-2.48-1.48a2.68,2.68,0,0,1-.33-1.76,1.89,1.89,0,0,1,1.4-1.57c.79-.18,1.75.5,1.47,1.15.16-.75.33-1.49.49-2.24a.69.69,0,0,1,.22-.42c.26-.19.66-.05,1,.12a4.33,4.33,0,0,1,2.13,3.17,2.74,2.74,0,0,1,3.18-1.13,1.71,1.71,0,0,1,.84.57,1.93,1.93,0,0,1,.26,1.13c0,1.08,0,2.16,0,3.24l1.5-1.38a1,1,0,0,1,.54-.31c.42-.06.72.33.89.67a13.17,13.17,0,0,1,1.19,4.08c17.57,5.79,34.39,12.76,49.57,21.91,10.21,6.16,19.56,13.24,30.2,18.93C356.32,314,391.73,318,426.16,321c.22-.26.44-.53.67-.79l2.2-2.54a24.23,24.23,0,0,1,5.82-5.36,14.6,14.6,0,0,1,3.27-1.38,3.33,3.33,0,0,1,1.59-.14c1.36.32,1.53,1.88,2.24,2.91s2.31,1.67,3.53,2.45a8.66,8.66,0,0,1,.88.64h0a31.13,31.13,0,0,0,3.41-1c.74-.35,1.34-.87,2.06-1.25,3-1.56,6.84-.23,9.63,1.52s5.44,4,8.87,4.45a6.72,6.72,0,0,1,2.12.42,2.3,2.3,0,0,1,.65.5c-.07-.17-.13-.34-.21-.5-1.44-2.85-3.91-5.25-5.37-8.09a10.63,10.63,0,0,1,6.6,5,24.45,24.45,0,0,1,2.54,7.42v0l.73.06A35.79,35.79,0,0,0,471.66,307c5,5.19,7,11.87,8.28,18.58l.38,0A34.5,34.5,0,0,1,487.25,302a37.93,37.93,0,0,1-1,7.23,68.14,68.14,0,0,0-1,16.86h.08c.21-7.79,4.56-15.48,11.73-20.37a37.58,37.58,0,0,0-5,5.95c-2.79,4.47-3.24,9.62-3,14.74h.09a15.21,15.21,0,0,1,1.87-7.32,19.33,19.33,0,0,1,10.22-8.52c-3.46,3.05-6.58,6.66-7.31,10.85a21,21,0,0,0-.13,4.75l0,.64,26.53,2.27a17.61,17.61,0,0,1,2.69-2.38c3.77-2.69,9.62-3.78,13.63-1.35.28-2.32,3.16-3.9,5.9-4s5.35.92,7.84,1.9c-2.34-2.64-.12-6.82,3.48-8.08s7.79-.3,11.21,1.28c.92-1.6,2.58-3.5,4.58-2.94a4.06,4.06,0,0,1,1.88,1.37,45.54,45.54,0,0,1,7.78,11.85c1.47-1.75,3.7-3.72,6.08-3a5,5,0,0,1,2.29,1.68,13.94,13.94,0,0,1,3.33,8,7.75,7.75,0,0,1,2.71-5.05,7.85,7.85,0,0,1,8.55-.81,17.23,17.23,0,0,1,2.18-4.51,14.6,14.6,0,0,1,7.23,3.21c-.25-2,2.1-3.77,4.47-3.78a7.48,7.48,0,0,1,5.79,3,4.06,4.06,0,0,1,2.67-3.38c1.57-.51,3.69.32,3.85,1.74a19.82,19.82,0,0,1,2.11-4,3.79,3.79,0,0,1,5.82-.11,20.09,20.09,0,0,1,1.29,1.82l0-.06c.85-2.62,5.19-2.82,6.46-.33a29.84,29.84,0,0,1,2.16,5.6c0-.48.82-.68,1.3-.44a2.07,2.07,0,0,1,.9,1.18c.74,1.83,1.4,3.68,2,5.56,1.47-.16,2.43-1.53,3.89-1.73,2.06-.29,3.4,1.77,3.95,3.48a39,39,0,0,1,1.5,6.61c10.13,1.11,20.21,2.37,30.22,3.85.17-1.13.33-2.27.53-3.38.69-3.85,2.43-8,6.53-9.77a6.46,6.46,0,0,1,3.73-.48c2.78.6,3.92,3.32,5.74,5.19a10.68,10.68,0,0,0,7.35,3c2.69,0,6-.64,7.57,1.24a4.56,4.56,0,0,1,.8,2.21c.47,2.65.93,5.31,1.39,8a347.17,347.17,0,0,1,52.62,15.3c23.26,9,44.62,20.8,65.86,32.56L1133.4,560.41H-15V233.57C-11,233.41-6.95,233.21-2.92,232.93Z"/><path class="cls-7" d="M1023.64,364.52c7-.77,13.25-4.94,17.91-10.19s8-11.57,11.11-17.85a74.93,74.93,0,0,1-12.68,7.44,27.13,27.13,0,0,1,4.27-8.51l-12.7,4.31a72.7,72.7,0,0,0,15.46-12.2,33.82,33.82,0,0,1-22.48,5c5.62-1.89,10.72-5.36,15.22-9.22,1.72-1.49,3.42-2.9,5.13-4.3a125.74,125.74,0,0,0,9.15-10.12,54.61,54.61,0,0,1-13.12-.77,67.59,67.59,0,0,0,10.61-3.31,33.9,33.9,0,0,0,12.56-9.59c2.11-3.17,3.3-5.19,3.3-5.19-9.1,5.63-17.57,5.26-29,2.79a37.73,37.73,0,0,0,22.42-12.57,20.83,20.83,0,0,1-13.36,1.41,75.63,75.63,0,0,0,14.12-9.21,25.17,25.17,0,0,1-19.94,1.68c9.12-3.56,15.76-10.82,21.18-19.17a21.37,21.37,0,0,1-11,.62,32.4,32.4,0,0,0,18-13c.55-1.06,1.08-2.12,1.61-3.17a12,12,0,0,1-13.86,5.51l5.69-4.3a9.2,9.2,0,0,1-7.11,1.51,34.7,34.7,0,0,0,10.57-11.23,38.51,38.51,0,0,1-21.9.37,46.06,46.06,0,0,0,33-32.38,46.09,46.09,0,0,0,33,32.38,38.51,38.51,0,0,1-21.9-.37,34.7,34.7,0,0,0,10.57,11.23,9.19,9.19,0,0,1-7.11-1.51l5.69,4.3a12,12,0,0,1-13.86-5.51c.53,1.05,1.06,2.11,1.61,3.17a32.4,32.4,0,0,0,18,13,21.37,21.37,0,0,1-11-.62c5.42,8.35,12.06,15.61,21.18,19.17a25.17,25.17,0,0,1-19.94-1.68,75.63,75.63,0,0,0,14.12,9.21,20.83,20.83,0,0,1-13.36-1.41,37.7,37.7,0,0,0,22.42,12.57c-11.47,2.47-19.94,2.84-29-2.79,0,0,1.19,2,3.3,5.19a33.9,33.9,0,0,0,12.56,9.59,67.59,67.59,0,0,0,10.61,3.31,54.61,54.61,0,0,1-13.12.77,125.74,125.74,0,0,0,9.15,10.12c1.7,1.4,3.41,2.81,5.13,4.3,4.5,3.86,9.6,7.33,15.22,9.22a33.82,33.82,0,0,1-22.48-5,72.7,72.7,0,0,0,15.46,12.2l-12.7-4.31a27.13,27.13,0,0,1,4.27,8.51,74.93,74.93,0,0,1-12.68-7.44c3.16,6.28,6.44,12.59,11.11,17.85s10.92,9.42,17.91,10.19a41.82,41.82,0,0,1-27.11-4,19,19,0,0,0,8.67,9.06c-1.7-.58-6.11-1.54-7.81-2.12.46,2.91-.28,5.21,4.11,9.13-1.52-.93-5.22-1.9-9.6-2.86a52.12,52.12,0,0,0,3.44,6.53,7.64,7.64,0,0,1-8.63-5.06l.5,7.38-3.78-5a6.53,6.53,0,0,1-.6,3.45c-.8-1.38-1.61-2.75-2.41-4.12a44.12,44.12,0,0,1-3.44,8.81c.15-4.06.2-8.46-2.2-11.74a12.77,12.77,0,0,1-6.28,8.78c.41-2.38.83-4.75,1.24-7.12a20.2,20.2,0,0,1-3.3,5.07c-.22-1.61-.36-3.23-.43-4.85a15.72,15.72,0,0,1-6.9,6.2,47.09,47.09,0,0,1-8.91,3.05,33.82,33.82,0,0,0,6.84-7.44,12.74,12.74,0,0,1-6.2,4.46,4.07,4.07,0,0,1,1.61-3.57,28.23,28.23,0,0,1-7,3.48c1.34-1.31,2.63-2.66,3.87-4.07-2.89,1.68-3.68,1.76-6.81,2.93-2,.74-6.66,2.65-8.26,1.27a31.62,31.62,0,0,0,6.93-7.07,17.68,17.68,0,0,0-3.82,1.45q.71-4.38,1.4-8.76l-5.1,1.75a19,19,0,0,0,8.67-9.06A41.82,41.82,0,0,1,1023.64,364.52Z"/><path class="cls-7" d="M997,373l-8.91,2.53a135.21,135.21,0,0,0,20.82-22.83c-1,.46-2,.85-3.09,1.21a47.73,47.73,0,0,1-6.53,1.67c3-.79,5.48-3,7.6-5.32l.4-.44-1.56.85a17.42,17.42,0,0,0,1.8-3.78l-10.24,3.69a69.33,69.33,0,0,0,11-12.22l-1.56.26-7.17,1.19a32.1,32.1,0,0,0,11.56-5.93,54.58,54.58,0,0,0,4.24-9.18l-5,2.87a5.43,5.43,0,0,1,0-2.8,24.63,24.63,0,0,1-7.79,2.38,14.4,14.4,0,0,0,4.75-2.44l1.2-.84a56.07,56.07,0,0,1-12.36.65,56,56,0,0,0,16.65-16.48c-3.1,1-6.38,1.84-9.58,1.28a19.55,19.55,0,0,0,11.11-7.7l-1.32.41c-.06-.78-.11-1.57-.16-2.36l-.45.32a13.44,13.44,0,0,1-1.83,1.16,12.56,12.56,0,0,1-2.38.87,38.06,38.06,0,0,1-6.69,1.23,23,23,0,0,0,6-3.27,13.84,13.84,0,0,0,1.2-1.1A20.26,20.26,0,0,1,998,299c8.6-3.88,15.39-9.88,19-16.79l-4.54,1.34.81-3.63a20.35,20.35,0,0,1-6.26,2.26c2.19-.83,3.71-2.83,4.89-4.86.22-.38.43-.77.64-1.15l-7.3,1.42c9.31-6.32,18.52-14.16,18.42-23.46h0c-.09,9.3,9.12,17.14,18.43,23.46l-7.81-1.52c.43,1,.87,2.09,1.3,3.14l-1.84-.71c.38,1.68.75,3.36,1.13,5.05l-2.19-.65a16.41,16.41,0,0,0,1.15,1.46,11.79,11.79,0,0,0,7.27,4,6.56,6.56,0,0,1-4,1.2c-.45,0-.91.05-1.36,0a43.79,43.79,0,0,0,13.61,9.4,19.91,19.91,0,0,1-12.77-.86l2,3.62-4-2.54c-.06.94-.13,1.88-.19,2.82l-2-.63a30.79,30.79,0,0,0,4.93,4.82,26.37,26.37,0,0,0,11.37,5.14,17.59,17.59,0,0,1-10.13-.54,17.27,17.27,0,0,1-3.06-1.48,56.83,56.83,0,0,0,15.8,15.18,56.23,56.23,0,0,1-10.3-.35,32.12,32.12,0,0,0,7.48,4.18,26.38,26.38,0,0,1-5.18-.22,8.82,8.82,0,0,1-4.63-2.15,13.46,13.46,0,0,1-1.38-1.64l-.67-.89h0a5.44,5.44,0,0,1,.47,4.13l-5-2.87c0,.06,0,.12.07.19.45.85.91,1.69,1.39,2.52a31.53,31.53,0,0,0,5.67,7.44,15.57,15.57,0,0,0,8.26,4.14,39.89,39.89,0,0,1-7.64-.74l-.91-.23a68.5,68.5,0,0,0,11.2,12.56l-10.24-3.69a17.46,17.46,0,0,0,1.81,3.78l-2.24-1.22a1.4,1.4,0,0,0,.35,1.65L1036,349.3c1,1.48,2,2.95,3.07,4.4.61.41,1.25.8,1.89,1.17a79.13,79.13,0,0,0,7.78,4,15.58,15.58,0,0,0,6.26,1.68,48.89,48.89,0,0,1-8.26,1c-.49,0-1,0-1.48,0a140.64,140.64,0,0,0,13.92,14l-8.92-2.53a7.26,7.26,0,0,0,.09,4.13l-6.11-3.73a6.85,6.85,0,0,1-.58,3.1,27.14,27.14,0,0,0-6.52-2.81c-5.63-1.21-9.21,1.06-13.52-3.84-4.31,4.9-7.89,2.63-13.51,3.84a27.22,27.22,0,0,0-6.53,2.81,7,7,0,0,1-.57-3.1l-6.11,3.73A7.35,7.35,0,0,0,997,373Z"/><path class="cls-3" d="M1205.37,433.73c-.44-21.49,3.06-42.26,8-62s11.49-38.68,17.65-57.4S1243,277,1246.71,258s5.34-38.4,2.83-57.61l6.26-1.11c4.42,19.78,4.57,40.38,2.47,60.44s-6.33,39.82-10.83,59.18-9.14,38.4-12.14,57.34S1231,414,1233,432Z"/><path class="cls-3" d="M1252.18,239.29a4.82,4.82,0,0,0-2.24-1.72,4.71,4.71,0,0,0-1.42-.32,6.73,6.73,0,0,0-1.73.13,12.63,12.63,0,0,1-5.8,0,14.7,14.7,0,0,1-5-2.47c-2.91-2.1-5-4.79-7-7s-4.1-4.18-6.65-5-5.68-.73-8.88-.84a24.68,24.68,0,0,1-4.92-.6,22.45,22.45,0,0,1-4.61-1.81,52.32,52.32,0,0,1-8.06-5.12,15.9,15.9,0,0,1-3.51-3.36,4.46,4.46,0,0,1-.33-4.85l.51.32a3.69,3.69,0,0,0,.61,4,14.65,14.65,0,0,0,3.49,2.84,50.64,50.64,0,0,0,8.15,4.35,17.72,17.72,0,0,0,8.67,1.5c3-.11,6.31-.57,9.82.25s6.42,3.21,8.72,5.42,4.35,4.46,6.69,5.86a9.77,9.77,0,0,0,3.45,1.4,7.24,7.24,0,0,0,3.5-.33,12.82,12.82,0,0,1,2.93-.43,10.68,10.68,0,0,1,3.19.42,11,11,0,0,1,5.41,3.51Z"/><path class="cls-3" d="M1224.31,222.41c-1.66,1.55-3.43,1.82-4.44,2.48a2.32,2.32,0,0,0-1,1.05,11.62,11.62,0,0,1-1.27,2.37,4.91,4.91,0,0,1-2.84,1.66,8.66,8.66,0,0,1-2.81.09,38.49,38.49,0,0,1-4.82-1.05c-6.13-1.65-12.08-3.92-18.06-3.08l-.34-2.15a27.39,27.39,0,0,1,9.82.37c3.17.62,6.22,1.52,9.24,2.24a37.37,37.37,0,0,0,4.44.84c1.39.14,2.62-.14,3-.78a12,12,0,0,0,.85-1.85,5.49,5.49,0,0,1,2.13-2.36c1.67-1,3.16-1.4,3.78-2.12Z"/><path class="cls-3" d="M1250.8,258.5a4.69,4.69,0,0,1,1.14-3,5.31,5.31,0,0,1,2-1.45,6.57,6.57,0,0,1,3.91-.33,21.85,21.85,0,0,0,3,.83c.21,0,.88-.35,1.45-1.23a14.56,14.56,0,0,0,1.5-3.25c.9-2.48,1.55-5.25,2.52-8.1a24.18,24.18,0,0,1,4.43-8.07c1.87-2.27,3.06-4,3.45-6.68s.42-5.61,1.66-8.66a9.17,9.17,0,0,1,3-3.84,36.11,36.11,0,0,1,3.79-2.23,12,12,0,0,0,3.13-2.4,12.29,12.29,0,0,0,1.2-1.57,9.09,9.09,0,0,0,.49-.86l.22-.45.11-.23c0-.07,0-.16.37-.12l.85.31c.28.19.22.28.19.36l-.1.27-.21.53c-.15.35-.32.69-.49,1a13.35,13.35,0,0,1-1.25,1.91,13.79,13.79,0,0,1-3.39,3c-2.53,1.58-4.69,2.91-5.37,5.26s-.56,5.12-.87,8.14a14.65,14.65,0,0,1-1.2,4.66,26.76,26.76,0,0,1-2.37,3.92c-3.28,4.24-3.57,9.46-5.16,15.39a19.65,19.65,0,0,1-1.81,4.58,8,8,0,0,1-5,4,7.49,7.49,0,0,1-3.45-.1c-.88-.21-1.51-.41-1.89-.45-.21,0-.23,0-.26.06a.67.67,0,0,0,.31-.22,1.65,1.65,0,0,0,.4-1Z"/><path class="cls-3" d="M1268.74,238.93l3.78-1.17a26.92,26.92,0,0,0,3-.83c1.25-.41,1.82-2.8,3.18-5.31a5.86,5.86,0,0,1,3.62-2.76,31.79,31.79,0,0,0,3.46-.82,12.37,12.37,0,0,0,5.5-3.89l1,.74a14.06,14.06,0,0,1-5.72,5.1,32.88,32.88,0,0,1-3.5,1.28,3,3,0,0,0-1.82,1.75c-.4.9-.65,2-1.09,3.31a7.07,7.07,0,0,1-2.73,3.84,24.09,24.09,0,0,1-3.78,1.6l-3.06,1.34Z"/><path class="cls-3" d="M1166.27,209.63a5.26,5.26,0,0,1,3-3.48c-2.28-4.9.28-10.81,4.08-14.64a6.89,6.89,0,0,1,3-2,2.81,2.81,0,0,1,3.16,1.12,26.27,26.27,0,0,1,4.76-9.23,6.83,6.83,0,0,1,2.87-2.36c2.88-1,5.74,1.45,7.81,3.71q2.52,2.78,5.06,5.54a49.23,49.23,0,0,1,4.5-9.68,2.75,2.75,0,0,1,1.47-1.4,2.45,2.45,0,0,1,1.66.31,10.56,10.56,0,0,1,5.82,8.76c-.1-1.61,1.66-2.85,3.28-2.81a8.4,8.4,0,0,1,4.38,1.92c2.09,1.49,4.23,3.2,5.08,5.63a5.16,5.16,0,0,1-1.64,5.78,1.68,1.68,0,0,1,.86.11,4.6,4.6,0,0,1-3,4.67,43.71,43.71,0,0,1-1.28,5.66c-.54,1.81-1.36,3.78-3.1,4.5-2,.85-4.37-.42-5.81-2.08s-2.38-3.74-3.93-5.3a20.26,20.26,0,0,1,.27,11,16.2,16.2,0,0,1-5.13-4.18,13.3,13.3,0,0,1-1.43,5.24,4.83,4.83,0,0,1-3,2.81,2.44,2.44,0,0,1-2.54-1.24,40.29,40.29,0,0,1,0,8.85,5.57,5.57,0,0,1-1.09,3.22,4,4,0,0,1-4.17.83,9.64,9.64,0,0,1-3.63-2.61,37.41,37.41,0,0,1-5-6.46c-1.32,1.59-1.59,4.12-3.44,5-1.65.82-3.61-.14-5.13-1.19a21.24,21.24,0,0,1-6.61-6.83A11.73,11.73,0,0,1,1166.27,209.63Z"/><path class="cls-3" d="M1217.08,182a28.93,28.93,0,0,1,3.46-5.37,5.26,5.26,0,0,1,3.14-2.24c1.3-.18,2.81,1,2.44,2.26a81.52,81.52,0,0,1,7.55-7.55,6.87,6.87,0,0,1,2.18-1.45c2-.66,4.15.54,5.29,2.25a14.3,14.3,0,0,1,1.78,5.87,11.58,11.58,0,0,1,21.39,8.73c2.91-4.27,8.28-6.14,13.4-6.87a6.81,6.81,0,0,1,3.93.27c2.32,1.1,2.84,4.26,2.25,6.76s-1.94,4.83-2.21,7.38c1.35-2.33,2.9-4.84,5.44-5.73s5.25.09,7.62,1.27a41.73,41.73,0,0,1,10.52,7.49c1.69,1.66,3.3,4.06,2.6,6.22a1.44,1.44,0,0,1,1.26.19c3.89,3.24,7.44,7.2,8.86,12.07s.22,10.74-3.88,13.71a3.75,3.75,0,0,1-2.43.88,1.73,1.73,0,0,1-1.65-1.7,34.61,34.61,0,0,1-5.12,7.86c-1.11,1.28-2.53,2.57-4.23,2.49a4.2,4.2,0,0,1-3.48-3.08,12.28,12.28,0,0,1-.21-4.91c-1.17,2.54-3.86,4-6.51,4.91a8.46,8.46,0,0,1-5.62.38c-1.8-.66-3.15-2.81-2.34-4.55-.93,1.94-3.26,2.73-5.38,3.12a6.81,6.81,0,0,1-3.72-.08c-1.93-.74-2.94-3-2.9-5.06a15.26,15.26,0,0,1,1.8-5.9,14.51,14.51,0,0,1-5.84-.61c-1.83-.73-3.41-2.47-3.31-4.44a41.34,41.34,0,0,1-8,6.6,2.86,2.86,0,0,1-1.91.63c-1-.17-1.53-1.28-1.73-2.27a9.34,9.34,0,0,1,.45-5.18c-1.49.93-1.67,3-2.83,4.37a4.7,4.7,0,0,1-5,1,9.56,9.56,0,0,1-4.18-3.39c-3.79-4.91-5.2-11.22-6.14-17.35l-.38,2.32a4.27,4.27,0,0,1-3.41,2.48,11.37,11.37,0,0,1-4.37-.38,7.23,7.23,0,0,1-3.44-1.53c-1.49-1.43-1.53-3.9-.66-5.78a15,15,0,0,1,4-4.66c-3.68-.26-8.08-1-9.49-4.42C1215.16,186.79,1216,184.2,1217.08,182Z"/><path class="cls-3" d="M1187.66,179.43a3.74,3.74,0,0,1,1-3,15.59,15.59,0,0,1,10.8-6c-2-.11-3.1-2.59-2.44-4.41s2.43-3,4.16-4a47,47,0,0,1,6.3-3c2.2-.84,4.93-1.45,6.75,0a7.76,7.76,0,0,1,5.33-6.94,8.23,8.23,0,0,1,8.62,2.45c-.61-.63.22-1.57,1-2a35.43,35.43,0,0,1,14-4.53,10.43,10.43,0,0,1,5.66.61c1.72.83,3,2.76,2.44,4.54a13.8,13.8,0,0,1,2.82-3.87,5,5,0,0,1,4.55-1.24,6.68,6.68,0,0,1,2.89,2.1,37.48,37.48,0,0,1,6.92,10.8c1.2-1.63,3-3.47,5-2.77a3.91,3.91,0,0,1,1.51,1.13,9.28,9.28,0,0,1,2.26,4.83,3.37,3.37,0,0,1,3.57,1.8,9.11,9.11,0,0,1,.82,4.07c.1,2.51.2,5,.31,7.52,1.71-2.11,5.39-1.93,7.43-.12s2.68,4.72,2.43,7.39a45.25,45.25,0,0,1-1.93,7.79l-83.34,1.9c-5.76-.61-12.14,1.71-17.1-1.17a2.86,2.86,0,0,1-1.29-1.26,3,3,0,0,1,.38-2.47,27.66,27.66,0,0,1,4.4-6.55C1191.17,181.69,1188.18,181.5,1187.66,179.43Z"/><path class="cls-3" d="M701.23,426.1c9-6.33,18.16-12.7,28.37-16.85,10-4.07,20.77-5.84,31.58-6.94a13.39,13.39,0,0,1,8-6.22,4.56,4.56,0,0,1,1.76-.18c1,.15,1.81.84,2.79,1,1.23.2,2.43-.46,3.67-.64-.09-.36-.17-.74-.28-1.11a1.22,1.22,0,0,1,.85-1.85l3.23-1.23a16.83,16.83,0,0,1,5.68-1.42,5.63,5.63,0,0,1,5,2.52,2.51,2.51,0,0,0,.7,1,1.56,1.56,0,0,0,.77.21c1.49.12,3.12-.34,4.38.44a4.51,4.51,0,0,1,1.6,2.26,20.27,20.27,0,0,1,.68,2.13L894.21,392c17.91-1.38,36.16-2.84,52.77-9.69,1.68-.7,3.34-1.46,5-2.25a9.23,9.23,0,0,0-3.28-2.77l-.21-.42a3.56,3.56,0,0,1,3.81-.38c.56.29,1.17.75,1.75.51l-3.24-2.14a.42.42,0,0,1-.25-.3c0-.21.25-.31.46-.34l3.36-.61a11.62,11.62,0,0,0-5.1-2.84c2.83-.19,5.86-.33,8.29,1.13a10.17,10.17,0,0,1,.94.68c-.1-.28-.19-.57-.29-.85a10.89,10.89,0,0,1-.05-9,3.28,3.28,0,0,1,.56-1.14,3.08,3.08,0,0,1,1.08-.73l5-2.43a3.74,3.74,0,0,1,1.9-.53c1.9.17,2.68,3,4.57,3.18a14,14,0,0,0,1.7-.16,3.48,3.48,0,0,1,3.22,2.76,5.91,5.91,0,0,1,.15,1.45c21.5-15.13,42-32.06,67.43-30.91,10.93.49,21.36,4.47,32.08,6.63,14.81,3,30.07,2.49,45.18,2,6.82-.23,13.75-.5,20.65-1.08l.32-1.14a9.73,9.73,0,0,1,.91-2.41c1.21-2.07,3.65-3,5.91-3.78a1.15,1.15,0,0,1,.77-.09,1.76,1.76,0,0,1,.57.41,2.9,2.9,0,0,0,2.14.43,29.85,29.85,0,0,1,2.25-5.78,5.06,5.06,0,0,1,1.23-1.72c1.1-.9,2.67-.86,4.09-.77,1.23.08,2.64.26,3.31,1.29.43.66.51,1.62,1.21,2s1.41-.09,2.11-.27c2.25-.57,4.34,1.34,5.7,3.23a26.76,26.76,0,0,1,1.56,2.41,71.83,71.83,0,0,0,17.08-8.59c12-8.33,21.59-21,35.66-25,7.48-2.12,15.09-1.47,22.77,0h0c1.18-3.65,2.44-7.38,4.87-10.35a23.92,23.92,0,0,1,4.86-4.28,48.18,48.18,0,0,1,12.7-6.27c-2.23,2.16-5.33,3.23-7.58,5.37a17.46,17.46,0,0,0-2.36,2.91,42.82,42.82,0,0,0-5.3,10.69,10.8,10.8,0,0,1,1.62-2.25c2.68-3,6.1-5.19,9.48-7.35,1.75-1.13,3.67-2.3,5.75-2.15a24.93,24.93,0,0,0-13.12,12,11.16,11.16,0,0,1,2.07-2c3.82-3.09,8.25-5.79,13.15-6.08-1.2,2.1-3.82,2.9-5.57,4.57s-2.48,4-3.58,6.07a19.52,19.52,0,0,1-1.62,2.51c3,.64,6,1.2,9,1.57,13.46,1.67,27.44-.46,41.12-1.49v258.1H618.21v-59C637.43,471.17,669.82,448.11,701.23,426.1Z"/><path class="cls-7" d="M310.78,507.34,299,509.93a159.28,159.28,0,0,0,27.59-23.35c-1.33.47-2.7.87-4.1,1.23a75.19,75.19,0,0,1-8.65,1.72c4-.82,7.27-3.07,10.08-5.44l.53-.46-2.07.87a16.57,16.57,0,0,0,2.39-3.86l-13.57,3.77a80.9,80.9,0,0,0,14.54-12.5l-2.07.27-9.5,1.21a48.11,48.11,0,0,0,15.33-6.06,51.43,51.43,0,0,0,5.61-9.39l-6.61,2.93a4.29,4.29,0,0,1,0-2.85,40.39,40.39,0,0,1-10.32,2.43,21.5,21.5,0,0,0,6.29-2.5l1.6-.85a96.23,96.23,0,0,1-16.39.66c9.27-4.7,16.8-10.48,22.06-16.85-4.1,1-8.44,1.88-12.69,1.3a27,27,0,0,0,14.72-7.87l-1.75.42-.21-2.42-.6.33a21.58,21.58,0,0,1-2.41,1.19,20.46,20.46,0,0,1-3.16.88,65.69,65.69,0,0,1-8.88,1.26,33.73,33.73,0,0,0,8-3.34,15.17,15.17,0,0,0,1.59-1.13,34.25,34.25,0,0,1-14.15.11c11.4-4,20.39-10.1,25.14-17.17l-6,1.37c.35-1.24.71-2.48,1.07-3.72a32,32,0,0,1-8.29,2.32,12.79,12.79,0,0,0,6.48-5c.29-.39.58-.78.85-1.18l-9.68,1.46c12.34-6.47,24.55-14.49,24.42-24h0c-.13,9.51,12.08,17.53,24.42,24l-10.35-1.56,1.73,3.22-2.44-.73q.75,2.58,1.49,5.16l-2.9-.66a16.61,16.61,0,0,0,1.53,1.49,17.24,17.24,0,0,0,9.62,4.09c-1.41,1-3.45,1.13-5.34,1.22-.6,0-1.21.06-1.81,0a60.85,60.85,0,0,0,18,9.61,33.75,33.75,0,0,1-16.92-.87c.86,1.23,1.73,2.46,2.59,3.7l-5.26-2.6c-.08,1-.17,1.92-.25,2.89l-2.72-.65a38.36,38.36,0,0,0,6.54,4.93,40.54,40.54,0,0,0,15.06,5.26,29.8,29.8,0,0,1-13.42-.56,26.79,26.79,0,0,1-4.05-1.51,70.32,70.32,0,0,0,20.93,15.53,95.58,95.58,0,0,1-13.65-.36,46.91,46.91,0,0,0,9.92,4.27,44.83,44.83,0,0,1-6.86-.22,13.5,13.5,0,0,1-6.15-2.2,15.45,15.45,0,0,1-1.83-1.68l-.88-.91h-.06a4.45,4.45,0,0,1,.64,4.22l-6.61-2.93.09.19c.59.87,1.21,1.74,1.85,2.59a34.87,34.87,0,0,0,7.51,7.6,23.27,23.27,0,0,0,10.95,4.23,66.85,66.85,0,0,1-10.13-.75c-.4-.07-.81-.15-1.21-.24A80.41,80.41,0,0,0,381,484.41l-13.57-3.77a16.29,16.29,0,0,0,2.4,3.86l-3-1.25a1.25,1.25,0,0,0,.47,1.69l-4.83-1.86c1.3,1.51,2.66,3,4.06,4.49.82.42,1.66.82,2.51,1.2,3.33,1.5,6.78,2.86,10.31,4.07a25.6,25.6,0,0,0,8.29,1.72,83,83,0,0,1-10.94,1c-.65,0-1.3,0-2,0a168.87,168.87,0,0,0,18.44,14.36l-11.81-2.59a5.83,5.83,0,0,0,.11,4.23l-8.1-3.82a5.76,5.76,0,0,1-.76,3.18,41.82,41.82,0,0,0-8.65-2.88c-7.45-1.24-12.2,1.09-17.91-3.92-5.71,5-10.46,2.68-17.91,3.92a41.82,41.82,0,0,0-8.65,2.88,5.76,5.76,0,0,1-.76-3.18l-8.1,3.82A5.88,5.88,0,0,0,310.78,507.34Z"/><path class="cls-7" d="M57.18,480.76l-27.43,7.8A415,415,0,0,0,93.8,418.3,92.35,92.35,0,0,1,84.29,422a143.36,143.36,0,0,1-20.09,5.16c9.33-2.46,16.89-9.23,23.39-16.36l1.23-1.37L84,412.07a53.11,53.11,0,0,0,5.55-11.63l-31.5,11.37A212.77,212.77,0,0,0,91.83,374.2L87,375l-22,3.64a99.14,99.14,0,0,0,35.58-18.23,169.88,169.88,0,0,0,13-28.26L98.24,341a16.51,16.51,0,0,1-.12-8.6,76.14,76.14,0,0,1-24,7.32c5.37-1.22,10-4.4,14.59-7.51l3.72-2.57a172.69,172.69,0,0,1-38,2c21.53-14.12,39-31.51,51.22-50.68-9.52,3.15-19.6,5.65-29.47,3.93a60.18,60.18,0,0,0,34.18-23.69l-4.07,1.26-.48-7.26c-.46.33-.92.66-1.39,1a46.33,46.33,0,0,1-5.61,3.58,39.37,39.37,0,0,1-7.33,2.66,118.16,118.16,0,0,1-20.6,3.77c6.57-2.59,13-5.61,18.55-10a40.48,40.48,0,0,0,3.68-3.38,62.28,62.28,0,0,1-32.85.32c26.46-11.92,47.33-30.38,58.37-51.65l-14,4.12,2.49-11.17a62.13,62.13,0,0,1-19.24,7c6.74-2.54,11.4-8.72,15-14.94.68-1.17,1.34-2.36,2-3.56l-22.47,4.4c28.64-19.46,57-43.58,56.68-72.18h0c-.3,28.6,28.05,52.72,56.68,72.18l-24-4.7q2,4.83,4,9.67L170.14,190q1.74,7.75,3.47,15.53l-6.74-2a49.53,49.53,0,0,0,3.54,4.49c5.8,6.48,13.71,11.34,22.35,12.31-3.29,2.92-8,3.4-12.41,3.67-1.39.09-2.79.17-4.18.13A134.54,134.54,0,0,0,218,253.08c-12.74,3.49-27.61,2.49-39.27-2.63l6,11.13-12.21-7.82c-.19,2.9-.39,5.79-.58,8.69l-6.32-2a94.65,94.65,0,0,0,15.18,14.83,81,81,0,0,0,35,15.83,53.82,53.82,0,0,1-31.15-1.68,53.22,53.22,0,0,1-9.4-4.54c12,17.6,28.57,33.56,48.59,46.7a173.6,173.6,0,0,1-31.68-1.07,98.9,98.9,0,0,0,23,12.84c-5.32.13-10.68.26-15.93-.66s-10.42-2.95-14.26-6.63a40.11,40.11,0,0,1-4.24-5c-.69-.91-1.37-1.83-2.06-2.75l-.12,0A16.74,16.74,0,0,1,180,341l-15.34-8.83.21.58c1.39,2.62,2.81,5.22,4.3,7.78,4.84,8.31,10.35,16.35,17.44,22.87s15.86,11.45,25.4,12.73c-7.88-.24-15.82-.5-23.5-2.26-.94-.21-1.88-.46-2.82-.72a212.32,212.32,0,0,0,34.48,38.66l-31.5-11.37a53.16,53.16,0,0,0,5.56,11.63l-6.9-3.75a4.36,4.36,0,0,0,1.08,5.08l-11.22-5.62c3,4.55,6.18,9.05,9.43,13.52,1.9,1.27,3.86,2.46,5.83,3.61a240.49,240.49,0,0,0,23.93,12.23c6.12,2.71,12.56,5.21,19.25,5.17a148.52,148.52,0,0,1-25.4,3c-1.51.05-3,.06-4.54.05a429.3,429.3,0,0,0,42.81,43.19l-27.44-7.8a22.66,22.66,0,0,0,.26,12.72L202.54,482a21.37,21.37,0,0,1-1.75,9.56,82.94,82.94,0,0,0-20.09-8.66c-17.3-3.71-28.31,3.27-41.57-11.8-13.25,15.07-24.27,8.09-41.57,11.8a82.69,82.69,0,0,0-20.08,8.66A21.24,21.24,0,0,1,75.72,482l-18.8,11.49A22.48,22.48,0,0,0,57.18,480.76Z"/><path class="cls-7" d="M1314.72,349c-10-.12-20.22,8.72-30.22,8.64a50.35,50.35,0,0,1,2.75-11.23,77,77,0,0,0-13,3.2l3.67-6.21a87.1,87.1,0,0,0-13.31,7.05,40.19,40.19,0,0,0,4.41-9.9l-13.26,4.05q5.28-8.37,11.4-16.29a90.48,90.48,0,0,1-11,8.69,76.65,76.65,0,0,0-8.07,5.73,27.55,27.55,0,0,0-6.43,8.37,49.52,49.52,0,0,0-1.64-8.35,4.13,4.13,0,0,0-1.14-2.06,5.41,5.41,0,0,0-2.76-.92c-8.32-1.21-18.1-2-24,3.43-3.38,3.14-4.82,7.92-9,10.16-1.45.78-3.13,1.19-4.43,2.15a9.86,9.86,0,0,0-2.55,3.27,39.18,39.18,0,0,0-30.14-8.14,12.47,12.47,0,0,1,6.79,2.08,131.59,131.59,0,0,1-21.47.56l11.08,3.27-15.24,1.12c-5,.37-10.17.79-14.44,3.13a43.9,43.9,0,0,1,11,3l-4.28.54c-22.43,3-44.73,7.29-67,11.54.4-.86.81-1.71,1.22-2.55q6.15-12.42,12.28-24.83a60,60,0,0,0-12.4,12.57,90.43,90.43,0,0,1,6.39-18.17,23.68,23.68,0,0,0-9.46,8.21A54.4,54.4,0,0,0,1065,362c-.42,1.05-.83,2.1-1.23,3.16a138.74,138.74,0,0,1,4.16-22.26,15.64,15.64,0,0,0-8.54,8.27c-1.66,3.56-2.24,7.44-2.81,11.27-.31,2.1-.63,4.19-.94,6.28a75,75,0,0,1-.46-15.2,27.94,27.94,0,0,0-4,13.78c0,.11,0,.23,0,.34q-2.27-22.75-3.2-45.6c-3.92,10.63-2.74,21.76-1.06,33a76,76,0,0,0-11.22-22.57,39,39,0,0,1,3.9,10.93q2.74,11.19,5,22.45c.43,2.11.84,4.23,1.15,6.36-4.77-13.64-14-26.18-24.14-37.42a91.38,91.38,0,0,1,17.64,33.67,103.84,103.84,0,0,0-11-16.81c-1.8-2.25-3.92-4.57-6.9-5.29,1.89,5.1,4.76,9.86,7,14.84a70.72,70.72,0,0,1,4,11.11c-8.23-10.27-19.95-18.72-31.82-25.81a282,282,0,0,1,27.15,32.38c1.08,1.51,2.15,3,3.16,4.61-27.18,4.55-54.45,7.87-82,7.64.79-1.91,1.59-3.82,2.36-5.73a46.9,46.9,0,0,1-10.26,2.2l3.11-5A44.12,44.12,0,0,1,929.52,386l3-4a82,82,0,0,0-14.46,4.33,43.47,43.47,0,0,1,10.4-11.79c-6.52,1.48-13,3.33-18.78,6.44a38.4,38.4,0,0,0-4.78,3.06c-.05-.4-.11-.79-.19-1.18a13.91,13.91,0,0,0-7.35-9.1,16.87,16.87,0,0,0-12.47-.95c-2.12.69-4.26,1.83-6.48,1.46-1.14-.19-2.18-.77-3.33-.89a7.21,7.21,0,0,0-4.39,1.37,31.38,31.38,0,0,0-7.21,6.24c-18.46-3.36-36.92-6.85-55.54-9.25-43.55-5.59-90.73-4.45-127.82,16.82-15.23,8.74-28.1,20.51-43.4,29.15a135.74,135.74,0,0,1-30.59,12.47c1.12-3.53,2.29-7,3.58-10.53-3.66,1.94-7.44,3.71-11.31,5.3l1.77-5.46a137.86,137.86,0,0,1-18.13,9.24L589,421a90.85,90.85,0,0,0-18,6.19A70.35,70.35,0,0,0,576.3,417a56,56,0,0,0-26.41,16.13l-3.75-3.63a13.64,13.64,0,0,0-4.43-3.23c-1-.38-2-.55-3-1-3.11-1.32-4.77-5-8.17-5.43-4.43-.62-7.69,4.63-12.17,4.44-1,0-1.92-.35-2.9-.35-2.72,0-4.68,2.27-6.18,4.31q-3.59,4.88-7.18,9.76c-10.08-.05-20.17,0-30.19.32,2.34-1.36,4.74-2.66,7.2-3.84a25.63,25.63,0,0,0-13.15.81,42.71,42.71,0,0,1,7.87-2.86,31.11,31.11,0,0,0-13,2,30.17,30.17,0,0,1,5.15-5.33,52.92,52.92,0,0,0-10.07,2.39,24.21,24.21,0,0,1,12.33-7.44c-6.41.75-12.07,4.32-16.25,8.75a43.36,43.36,0,0,0-4.26,5.34,44.73,44.73,0,0,0-23.22-11.1l11.78,7.31a29.53,29.53,0,0,0-14.35-.38,32.28,32.28,0,0,1,6.78,1.32L416.82,437l7.65.7L411.41,441c3.14-.3,6.27.59,9.22,1.6,1,.32,1.9.66,2.84,1-4.72,1-9.4,2.15-14,3.52-27.62,8.15-52.52,23.38-81,28.7-17.59,3.29-35.76,2.62-53.72,1.95C236,476.31,79.22,451.22-15,503.13v57.28l1455.29-4.26L1425,309C1381.38,308.5,1358.29,349.55,1314.72,349Z"/><path class="cls-8" d="M710.74,73.9s25.34,20.39,55.59,30c32,10.19,61.39,23.63,87.07,39.9,3.53,2.23,6.32,4.11,7.91,5.39,5.5,4.45,29.33,13.24,45.24,20.86,12.1,5.79,31.14,15.87,31.14,15.87s-43.36-19-70.44-19.1l-20.36-15.34L848.55,164l-11.36-10.62s-25.42-26.63-40-30.94-12.57,12.54-12.57,12.54-27.69-20.86-40.24-24.21-30.29-11.23-30.29-11.23l-5-1.77c-18.85,2.72-34.39,10.89-51.28,17.1l-105.91,39Z"/><path class="cls-7" d="M1246.74,540.8c18.55-2.06,35.17-13.12,47.56-27.08s21.11-30.72,29.5-47.39a198.57,198.57,0,0,1-33.67,19.75,72.06,72.06,0,0,1,11.34-22.59l-33.72,11.45a194,194,0,0,0,41-32.4,89.91,89.91,0,0,1-59.69,13.31c14.92-5,28.47-14.24,40.4-24.51,4.57-3.94,9.11-7.69,13.64-11.42a334.56,334.56,0,0,0,24.29-26.86c-11.5,1.09-23.34-.33-34.85-2.06,9.55-2.41,19.16-4.84,28.18-8.79a90.09,90.09,0,0,0,33.38-25.45c5.59-8.42,8.76-13.78,8.76-13.78-24.19,14.94-46.69,14-77.14,7.39A100.14,100.14,0,0,0,1345.32,317a55.16,55.16,0,0,1-35.48,3.74,200.71,200.71,0,0,0,37.5-24.46,66.82,66.82,0,0,1-52.95,4.46c24.22-9.46,41.85-28.72,56.24-50.9a56.49,56.49,0,0,1-29.18,1.63,86.07,86.07,0,0,0,47.88-34.56q2.18-4.22,4.28-8.41c-6.85,12.59-23.21,19.08-36.83,14.62l15.13-11.41a24.48,24.48,0,0,1-18.88,4,92.3,92.3,0,0,0,28-29.84,101.93,101.93,0,0,1-58.14,1c41.79-10.1,76.79-44.4,87.72-86,10.94,41.57,34.54,82.16,76.33,92.26-18.93,5.33-21,10.57-39.78,4.61,7,11.87,9.66,10.28,21.09,18a24.48,24.48,0,0,1-18.88-4l15.13,11.41c-13.62,4.46-30-2-36.83-14.62q2.1,4.19,4.28,8.41a86.07,86.07,0,0,0,47.88,34.56,56.49,56.49,0,0,1-29.18-1.63c14.39,22.18,32,41.44,56.24,50.9a66.82,66.82,0,0,1-53-4.46,200.71,200.71,0,0,0,37.5,24.46A55.16,55.16,0,0,1,1436,317a100.11,100.11,0,0,0,59.55,33.38c-30.45,6.58-53,7.55-77.14-7.39,0,0,3.17,5.36,8.76,13.78a90.09,90.09,0,0,0,33.38,25.45c9,4,18.63,6.38,28.18,8.79-11.51,1.73-23.35,3.15-34.85,2.06a334.56,334.56,0,0,0,24.29,26.86c4.53,3.73,9.07,7.48,13.64,11.42,11.93,10.27,25.48,19.47,40.4,24.51a89.91,89.91,0,0,1-59.69-13.31,194,194,0,0,0,41,32.4l-33.72-11.45a72.06,72.06,0,0,1,11.34,22.59,198.57,198.57,0,0,1-33.67-19.75c8.39,16.67,17.11,33.44,29.5,47.39s29,25,47.56,27.08a110.93,110.93,0,0,1-72-10.66,50.43,50.43,0,0,0,23,24.07c-4.52-1.55-16.24-4.1-20.76-5.64,1.24,7.75-.74,13.84,10.93,24.24-4-2.45-13.86-5-25.51-7.58a137.06,137.06,0,0,0,9.14,17.33c-9.5,2.09-20.09-4.12-22.91-13.43q.66,9.79,1.31,19.59l-10-13.17a17.31,17.31,0,0,1-1.58,9.16q-3.21-5.46-6.4-10.93a120.13,120.13,0,0,1-9.13,23.41c.39-10.79.52-22.48-5.85-31.19a33.9,33.9,0,0,1-16.69,23.31q1.66-9.46,3.31-18.92a53.89,53.89,0,0,1-8.78,13.49q-.87-6.42-1.13-12.89c-4,7.3-10.88,12.73-18.35,16.47s-15.58,5.92-23.64,8.09a88.85,88.85,0,0,0,18.16-19.76,33.68,33.68,0,0,1-16.47,11.85,10.89,10.89,0,0,1,4.28-9.49,74,74,0,0,1-18.5,9.25q5.33-5.21,10.26-10.79c-7.67,4.45-9.78,4.67-18.08,7.77-5.26,2-17.7,7-22,3.36A83.43,83.43,0,0,0,1315.68,569a46.47,46.47,0,0,0-10.15,3.83q1.88-11.61,3.73-23.24l-13.56,4.64a50.43,50.43,0,0,0,23-24.07A110.93,110.93,0,0,1,1246.74,540.8Z"/><path class="cls-3" d="M740.78,359.05a10,10,0,0,0,6.15-3.51,27.74,27.74,0,0,0,3.82-6.13,25,25,0,0,1-4.36,2.55,9.67,9.67,0,0,1,1.47-2.92l-4.36,1.48a25,25,0,0,0,5.31-4.19,11.68,11.68,0,0,1-7.73,1.72,16,16,0,0,0,5.23-3.17c.6-.51,1.18-1,1.77-1.48a42.15,42.15,0,0,0,3.14-3.48,19,19,0,0,1-4.51-.26,24.14,24.14,0,0,0,3.65-1.14,11.64,11.64,0,0,0,4.32-3.3c.72-1.08,1.13-1.78,1.13-1.78-3.13,1.93-6,1.81-10,1a13,13,0,0,0,7.71-4.32,7.21,7.21,0,0,1-4.6.48,25.53,25.53,0,0,0,4.86-3.17,8.64,8.64,0,0,1-6.86.58c3.14-1.22,5.42-3.71,7.28-6.58a7.42,7.42,0,0,1-3.77.21,11.08,11.08,0,0,0,6.19-4.48c.19-.36.38-.72.56-1.09a4.16,4.16,0,0,1-4.77,1.9l2-1.48A3.16,3.16,0,0,1,752,317a12.06,12.06,0,0,0,3.63-3.86,13.22,13.22,0,0,1-7.53.12,15.83,15.83,0,0,0,11.36-11.12,15.8,15.8,0,0,0,11.35,11.12,13.22,13.22,0,0,1-7.53-.12,12.2,12.2,0,0,0,3.64,3.86,3.18,3.18,0,0,1-2.45-.52l2,1.48a4.16,4.16,0,0,1-4.77-1.9c.18.37.37.73.56,1.09a11.08,11.08,0,0,0,6.19,4.48,7.43,7.43,0,0,1-3.77-.21c1.86,2.87,4.14,5.36,7.28,6.58a8.64,8.64,0,0,1-6.86-.58,25.85,25.85,0,0,0,4.86,3.17,7.21,7.21,0,0,1-4.6-.48A13,13,0,0,0,773,334.4c-3.94.85-6.85,1-10-1,0,0,.41.7,1.13,1.78a11.64,11.64,0,0,0,4.32,3.3,24.14,24.14,0,0,0,3.65,1.14,19,19,0,0,1-4.51.26,42.15,42.15,0,0,0,3.14,3.48c.59.48,1.18,1,1.77,1.48a16.06,16.06,0,0,0,5.23,3.17,11.68,11.68,0,0,1-7.73-1.72,25,25,0,0,0,5.31,4.19L771,349a9.23,9.23,0,0,1,1.47,2.92,25.36,25.36,0,0,1-4.36-2.55,28.11,28.11,0,0,0,3.82,6.13,10,10,0,0,0,6.15,3.51,14.38,14.38,0,0,1-9.31-1.39,6.5,6.5,0,0,0,3,3.12c-.59-.2-2.1-.53-2.69-.73.16,1-.1,1.79,1.41,3.14a13.94,13.94,0,0,0-3.3-1,17.8,17.8,0,0,0,1.19,2.24,2.63,2.63,0,0,1-3-1.74c.06.85.11,1.69.17,2.54l-1.3-1.71a2.31,2.31,0,0,1-.2,1.19l-.83-1.42a15.48,15.48,0,0,1-1.18,3,6.3,6.3,0,0,0-.76-4,4.4,4.4,0,0,1-2.16,3c.14-.81.29-1.63.43-2.44a6.88,6.88,0,0,1-1.14,1.74c-.07-.55-.12-1.11-.14-1.67a5.4,5.4,0,0,1-2.38,2.13,15.58,15.58,0,0,1-3.06,1.05,11.44,11.44,0,0,0,2.35-2.56,4.33,4.33,0,0,1-2.13,1.54,1.42,1.42,0,0,1,.55-1.23,9.57,9.57,0,0,1-2.39,1.2c.46-.45.9-.92,1.33-1.4a12.16,12.16,0,0,1-2.34,1c-.68.25-2.29.91-2.84.43a11,11,0,0,0,2.38-2.43,5.9,5.9,0,0,0-1.31.5l.48-3-1.76.6a6.56,6.56,0,0,0,3-3.12A14.41,14.41,0,0,1,740.78,359.05Z"/><path class="cls-7" d="M845.1,418.6c6-.67,11.45-4.27,15.48-8.81s6.87-10,9.6-15.43a64.34,64.34,0,0,1-11,6.43,23.52,23.52,0,0,1,3.69-7.35l-11,3.72a62.72,62.72,0,0,0,13.36-10.54A29.26,29.26,0,0,1,845.87,391,40.4,40.4,0,0,0,859,383c1.49-1.28,3-2.5,4.44-3.71a108.21,108.21,0,0,0,7.91-8.74,47.52,47.52,0,0,1-11.34-.67A59.77,59.77,0,0,0,869.2,367a29.37,29.37,0,0,0,10.86-8.29c1.82-2.74,2.85-4.48,2.85-4.48-7.87,4.86-15.19,4.54-25.1,2.4a32.6,32.6,0,0,0,19.38-10.86A18,18,0,0,1,865.64,347a65.15,65.15,0,0,0,12.2-8,21.76,21.76,0,0,1-17.23,1.46c7.88-3.08,13.62-9.35,18.3-16.57a18.21,18.21,0,0,1-9.49.53A28,28,0,0,0,885,313.18c.47-.91.94-1.82,1.39-2.73a10.41,10.41,0,0,1-12,4.76l4.92-3.72a8,8,0,0,1-6.14,1.31,30.16,30.16,0,0,0,9.13-9.71,33.24,33.24,0,0,1-18.93.32,39.83,39.83,0,0,0,28.55-28,39.83,39.83,0,0,0,28.55,28,33.21,33.21,0,0,1-18.92-.32,30.16,30.16,0,0,0,9.13,9.71,8,8,0,0,1-6.14-1.31l4.92,3.72a10.42,10.42,0,0,1-12-4.76c.46.91.92,1.82,1.4,2.73a28,28,0,0,0,15.58,11.25,18.25,18.25,0,0,1-9.5-.53c4.69,7.22,10.42,13.49,18.31,16.57A21.78,21.78,0,0,1,906,339a65.55,65.55,0,0,0,12.21,8,18,18,0,0,1-11.55-1.22,32.6,32.6,0,0,0,19.38,10.86c-9.91,2.14-17.23,2.46-25.1-2.4,0,0,1,1.74,2.85,4.48A29.37,29.37,0,0,0,914.69,367a59.43,59.43,0,0,0,9.17,2.86,47.52,47.52,0,0,1-11.34.67,108.21,108.21,0,0,0,7.91,8.74c1.47,1.21,3,2.43,4.44,3.71A40.46,40.46,0,0,0,938,391a29.24,29.24,0,0,1-19.42-4.33A62.47,62.47,0,0,0,932,397.16l-11-3.72a23.31,23.31,0,0,1,3.69,7.35,64.73,64.73,0,0,1-11-6.43c2.74,5.43,5.57,10.88,9.6,15.43s9.45,8.14,15.48,8.81a36.07,36.07,0,0,1-23.42-3.47,16.36,16.36,0,0,0,7.49,7.83c-1.47-.5-5.28-1.33-6.76-1.83.41,2.52-.24,4.5,3.56,7.89-1.32-.8-4.51-1.64-8.3-2.47a44.59,44.59,0,0,0,3,5.64,6.59,6.59,0,0,1-7.45-4.37l.42,6.38L904,429.91a5.66,5.66,0,0,1-.52,3l-2.08-3.56a39.22,39.22,0,0,1-3,7.62c.13-3.51.17-7.32-1.9-10.15a11.06,11.06,0,0,1-5.43,7.59c.36-2.06.71-4.11,1.07-6.16a17.19,17.19,0,0,1-2.86,4.39c-.18-1.39-.31-2.79-.36-4.2a13.56,13.56,0,0,1-6,5.36,40.7,40.7,0,0,1-7.7,2.64,29.13,29.13,0,0,0,5.91-6.43,10.91,10.91,0,0,1-5.36,3.85,3.58,3.58,0,0,1,1.39-3.09,23.73,23.73,0,0,1-6,3c1.16-1.12,2.27-2.3,3.34-3.51a28.13,28.13,0,0,1-5.88,2.53c-1.71.64-5.76,2.29-7.14,1.1a27.34,27.34,0,0,0,6-6.11,14.81,14.81,0,0,0-3.3,1.25c.4-2.52.81-5,1.21-7.57L861,423a16.36,16.36,0,0,0,7.49-7.83A36.1,36.1,0,0,1,845.1,418.6Z"/><path class="cls-7" d="M813.57,413.16l-9.12,2.59a138.19,138.19,0,0,0,21.3-23.36,32.85,32.85,0,0,1-3.16,1.24,48.25,48.25,0,0,1-6.69,1.71c3.11-.81,5.62-3.07,7.78-5.44l.41-.45-1.6.86a17.29,17.29,0,0,0,1.85-3.86l-10.47,3.78a70.94,70.94,0,0,0,11.22-12.51l-1.59.27-7.34,1.21A32.82,32.82,0,0,0,828,373.14a56.78,56.78,0,0,0,4.33-9.4l-5.1,2.94a5.44,5.44,0,0,1-.05-2.86,25.36,25.36,0,0,1-8,2.43,14.62,14.62,0,0,0,4.85-2.49l1.24-.86a58.22,58.22,0,0,1-12.66.67,57.34,57.34,0,0,0,17-16.86c-3.17,1.05-6.52,1.88-9.81,1.31a20,20,0,0,0,11.37-7.88l-1.35.42c0-.81-.11-1.61-.16-2.42l-.46.33a16,16,0,0,1-1.87,1.19,12.9,12.9,0,0,1-2.44.88,39.72,39.72,0,0,1-6.85,1.26,23.31,23.31,0,0,0,6.17-3.34,11.83,11.83,0,0,0,1.22-1.13,20.55,20.55,0,0,1-10.92.11c8.8-4,15.74-10.1,19.41-17.17l-4.64,1.36c.27-1.23.55-2.47.83-3.71a20.66,20.66,0,0,1-6.4,2.32c2.24-.85,3.79-2.9,5-5,.22-.39.44-.79.65-1.19L822,315.55c9.53-6.47,18.95-14.5,18.85-24h0c-.1,9.51,9.33,17.54,18.85,24l-8-1.57c.45,1.07.89,2.15,1.34,3.22l-1.88-.73q.57,2.58,1.15,5.16l-2.24-.66a16.79,16.79,0,0,0,1.17,1.5,12,12,0,0,0,7.44,4.09,6.71,6.71,0,0,1-4.13,1.22,12.91,12.91,0,0,1-1.39,0,44.53,44.53,0,0,0,13.92,9.62,20.38,20.38,0,0,1-13.06-.87l2,3.7-4.06-2.6-.19,2.89-2.11-.65a32.26,32.26,0,0,0,5.05,4.93,27,27,0,0,0,11.63,5.26,17.86,17.86,0,0,1-10.36-.56,17.35,17.35,0,0,1-3.13-1.51A58.2,58.2,0,0,0,869,363.57a58.76,58.76,0,0,1-10.53-.36,33.36,33.36,0,0,0,7.65,4.27,27.61,27.61,0,0,1-5.3-.22,9,9,0,0,1-4.74-2.21,13.25,13.25,0,0,1-1.41-1.67c-.23-.31-.46-.61-.68-.92h-.05a5.53,5.53,0,0,1,.49,4.22l-5.1-2.94c0,.07,0,.13.07.2.46.87.93,1.73,1.43,2.58a32,32,0,0,0,5.8,7.61,15.8,15.8,0,0,0,8.45,4.23,40.17,40.17,0,0,1-7.82-.75c-.31-.07-.63-.15-.94-.24a70.72,70.72,0,0,0,11.47,12.86l-10.48-3.78a18.21,18.21,0,0,0,1.85,3.86l-2.29-1.24a1.45,1.45,0,0,0,.36,1.69l-3.73-1.87c1,1.51,2,3,3.13,4.49.63.43,1.28.82,1.94,1.2a76.44,76.44,0,0,0,8,4.07,15.9,15.9,0,0,0,6.4,1.72,49,49,0,0,1-8.45,1c-.5,0-1,0-1.51,0a142.8,142.8,0,0,0,14.24,14.36l-9.12-2.59a7.52,7.52,0,0,0,.08,4.23l-6.25-3.82a7.07,7.07,0,0,1-.58,3.18,27.7,27.7,0,0,0-6.68-2.89c-5.76-1.23-9.42,1.09-13.83-3.92-4.41,5-8.07,2.69-13.82,3.92a27.53,27.53,0,0,0-6.68,2.89,7.07,7.07,0,0,1-.58-3.18l-6.26,3.82A7.43,7.43,0,0,0,813.57,413.16Z"/></g></svg>