<?xml version="1.0" encoding="utf-8"?>
<!-- Generator: Adobe Illustrator 22.1.0, SVG Export Plug-In . SVG Version: 6.00 Build 0)  -->
<svg version="1.1" id="Слой_1" xmlns="http://www.w3.org/2000/svg" xmlns:xlink="http://www.w3.org/1999/xlink" x="0px" y="0px"
	 viewBox="0 0 126.5 100" style="enable-background:new 0 0 126.5 100;" xml:space="preserve">
<style type="text/css">
	.st0{fill:#56BFBD;}
	.st1{fill:#FFFFFF;}
</style>
<title>Звонок</title>
<g id="Слой_2_1_">
	<g id="Слой_1-2">
		<path class="st0" d="M62.8,26.8H51.3V15.4c0-1.4-1.2-2.6-2.6-2.6l0,0l0,0c-1.4,0-2.6,1.2-2.6,2.6c0,0,0,0,0,0v11.4H34.7
			c-1.4,0-2.6,1.2-2.6,2.6c0,0,0,0,0,0l0,0c0,1.4,1.2,2.6,2.6,2.6c0,0,0,0,0,0h11.4v11.4c0,1.4,1.2,2.6,2.6,2.6c0,0,0,0,0,0l0,0
			c1.4,0,2.6-1.2,2.6-2.6l0,0V32.1h11.4c1.4,0,2.6-1.2,2.6-2.6c0,0,0,0,0,0l0,0C65.4,28,64.2,26.8,62.8,26.8z"/>
		<path class="st1" d="M57.2,79.8c0-0.4-0.1-0.7-0.4-1c-3.1-4.1-3.1-9.9,0-14c0.2-0.3,0.4-0.6,0.4-1v-0.1c0-0.9-0.8-1.7-1.8-1.7
			c-0.5,0-1,0.3-1.3,0.7C50,68.1,50,75.6,54.1,81c0.6,0.8,1.7,0.9,2.4,0.3c0.4-0.3,0.7-0.8,0.7-1.3V79.8z"/>
		<path class="st1" d="M48.1,83.9c0-0.4-0.2-0.9-0.5-1.2c-5.9-6.1-5.9-15.7,0-21.7c0.3-0.3,0.5-0.7,0.5-1.2v-0.1
			c0-0.9-0.7-1.7-1.7-1.7c-0.5,0-0.9,0.2-1.2,0.5c-7.3,7.4-7.3,19.3,0,26.7c0.7,0.7,1.7,0.7,2.4,0c0.3-0.3,0.5-0.7,0.5-1.2V83.9z"/>
		<path class="st1" d="M109.1,79.8c0-0.4,0.1-0.7,0.4-1c3.1-4.1,3.1-9.9,0-14c-0.2-0.3-0.4-0.6-0.4-1v-0.1c0-0.9,0.8-1.7,1.7-1.7
			c0.5,0,1,0.3,1.3,0.7c4.1,5.4,4.1,12.9,0,18.3c-0.6,0.8-1.6,0.9-2.4,0.3c-0.4-0.3-0.7-0.8-0.7-1.3V79.8z"/>
		<path class="st1" d="M118.1,83.9c0-0.4,0.2-0.9,0.5-1.2c5.9-6.1,5.9-15.7,0-21.7c-0.3-0.3-0.5-0.7-0.5-1.2v-0.1
			c0-0.9,0.7-1.7,1.7-1.7c0.5,0,0.9,0.2,1.2,0.5c7.3,7.4,7.3,19.3,0,26.7c-0.7,0.7-1.7,0.7-2.4,0C118.3,84.8,118.1,84.4,118.1,83.9
			L118.1,83.9z"/>
		<path class="st1" d="M106.6,88.5c-2.5-3.7-3.8-8.1-3.8-12.6V63.1c0-9.7-7.1-17.9-16.7-19.4c-0.4,0-5.7,0-6,0
			c-9.6,1.6-16.6,9.9-16.6,19.6v12.6c0,4.5-1.3,8.9-3.8,12.6L56,94.1c-0.2,0.4-0.1,0.9,0.2,1.1c0.1,0.1,0.3,0.1,0.4,0.1h19.8
			c1.3,3.7,5.3,5.6,9,4.3c2-0.7,3.6-2.3,4.3-4.3h19.8c0.4,0,0.8-0.3,0.8-0.8c0-0.2,0-0.3-0.1-0.4L106.6,88.5z M64,90.6
			c2.8-4.4,4.2-9.5,4.2-14.7V63.3c0-8.3,6.6-15,14.8-15.1l0,0c8.2,0,15,6.6,15,14.9c0,0,0,0,0,0v12.8c0,5.2,1.5,10.3,4.2,14.7H64z"
			/>
		<path class="st1" d="M3.3,0h33.1c1.7-0.1,3.2,1.2,3.3,2.9l0,0c-0.1,1.7-1.6,3-3.3,2.9H3.3C1.6,6,0.1,4.7,0,2.9l0,0
			C0.1,1.2,1.6-0.1,3.3,0z"/>
		<path class="st1" d="M3.3,13.3h33.1c1.7-0.1,3.2,1.2,3.3,2.9l0,0c-0.1,1.7-1.6,3-3.3,2.9H3.3c-1.7,0.1-3.2-1.2-3.3-2.9l0,0
			C0.1,14.5,1.6,13.2,3.3,13.3z"/>
		<path class="st1" d="M3.3,26.5h19.9c1.7-0.1,3.2,1.2,3.3,2.9l0,0c-0.1,1.7-1.6,3-3.3,2.9H3.3c-1.7,0.1-3.2-1.2-3.3-2.9l0,0
			C0.1,27.7,1.6,26.4,3.3,26.5z"/>
	</g>
</g>
</svg>
