<svg width="229" height="64" viewBox="0 0 229 64" fill="none" xmlns="http://www.w3.org/2000/svg">
<path d="M213.881 0H15.1265C14.5444 0 13.9698 0 13.3896 0.00376294C12.9045 0.00752587 12.4213 0.0169332 11.9325 0.0244591C10.8766 0.0507996 9.8076 0.11477 8.75352 0.306679C7.69198 0.494826 6.70506 0.814675 5.73867 1.3095C4.78906 1.80056 3.92155 2.43838 3.17156 3.19473C2.41039 3.95296 1.78167 4.83161 1.30034 5.78928C0.805951 6.76199 0.494391 7.76294 0.307828 8.83349C0.117534 9.89276 0.0503719 10.9652 0.0242531 12.0376C0.00932813 12.5287 0.00746251 13.0198 0 13.5108C0 14.0903 0 14.6717 0 15.2568V48.7432C0 49.334 0 49.9116 0 50.4929C0.00746251 50.9897 0.00932813 51.4713 0.0242531 51.968C0.0522375 53.0405 0.117534 54.111 0.307828 55.1703C0.492525 56.2427 0.80595 57.2474 1.29848 58.2164C1.77981 59.1703 2.40852 60.047 3.16783 60.7996C3.91781 61.5635 4.78533 62.1994 5.73493 62.6849C6.70133 63.1853 7.68825 63.5014 8.74979 63.6933C9.80387 63.8833 10.8729 63.9473 11.9288 63.9755C12.4195 63.9868 12.9008 63.9925 13.3859 63.9925C13.9661 63.9962 14.5407 63.9962 15.1228 63.9962H213.877C214.448 63.9962 215.026 63.9962 215.597 63.9925C216.081 63.9925 216.577 63.9868 217.06 63.9755C218.123 63.9454 219.189 63.8833 220.233 63.6933C221.297 63.4995 222.284 63.1834 223.261 62.6849C224.209 62.1994 225.077 61.5635 225.827 60.7996C226.582 60.0489 227.211 59.1703 227.702 58.2164C228.188 57.2455 228.504 56.2408 228.683 55.1703C228.879 54.111 228.94 53.0386 228.978 51.968C228.983 51.4713 228.983 50.9897 228.983 50.4929C228.996 49.9116 228.996 49.334 228.996 48.7432V15.2568C228.996 14.6717 228.996 14.0903 228.983 13.5108C228.983 13.0198 228.983 12.5287 228.978 12.0376C228.94 10.9652 228.879 9.89464 228.683 8.83537C228.504 7.76294 228.187 6.76388 227.702 5.78928C227.213 4.83161 226.582 3.95296 225.827 3.19473C225.077 2.4365 224.209 1.79868 223.261 1.3095C222.286 0.814675 221.297 0.492944 220.233 0.306679C219.189 0.116651 218.123 0.0507996 217.06 0.0244591C216.577 0.0169332 216.081 0.00752587 215.597 0.00376294C215.03 0 214.452 0 213.881 0Z" fill="black"/>
<path d="M13.397 62.6001C12.9138 62.6001 12.4418 62.5944 11.9624 62.5831C11.0762 62.5587 10.024 62.5079 8.99603 62.3216C8.02777 62.1447 7.16772 61.8569 6.36737 61.4448C5.5409 61.0215 4.79651 60.474 4.151 59.8174C3.4943 59.1683 2.95327 58.4213 2.53164 57.5822C2.1212 56.775 1.83949 55.9077 1.66972 54.9312C1.4757 53.855 1.42719 52.7619 1.4048 51.9321C1.39548 51.5953 1.38242 50.4721 1.38242 50.4721V13.5107C1.38242 13.5107 1.39548 12.4044 1.4048 12.0789C1.42533 11.2397 1.4757 10.1485 1.66786 9.08357C1.83763 8.10145 2.11934 7.23597 2.52978 6.42506C2.95514 5.58592 3.49617 4.83522 4.14354 4.18799C4.80024 3.52572 5.54649 2.97633 6.36923 2.55112C7.18265 2.13531 8.0427 1.84933 8.9923 1.68188C10.0613 1.48809 11.1434 1.44105 11.968 1.41847L13.3989 1.39966H215.594L217.041 1.42035C217.855 1.44105 218.937 1.48997 219.989 1.68C220.944 1.84933 221.81 2.13531 222.64 2.55676C223.453 2.97633 224.198 3.52572 224.847 4.18235C225.496 4.83146 226.039 5.58781 226.47 6.42882C226.879 7.24726 227.159 8.11274 227.319 9.06664C227.504 10.0751 227.562 11.1118 227.595 12.0864C227.599 12.5398 227.599 13.0271 227.599 13.5107C227.612 14.1109 227.612 14.6809 227.612 15.2567V48.743C227.612 49.3244 227.612 49.8907 227.599 50.4627C227.599 50.9839 227.599 51.4599 227.593 51.9509C227.562 52.8936 227.504 53.9284 227.323 54.9161C227.159 55.8983 226.879 56.7637 226.466 57.5878C226.039 58.4194 225.494 59.1701 224.855 59.8042C224.2 60.4721 223.455 61.0177 222.634 61.4411C221.812 61.8625 220.972 62.1429 219.989 62.3216C218.972 62.5079 217.92 62.5568 217.023 62.5831C216.558 62.5944 216.071 62.6001 215.599 62.6001L213.879 62.6038L13.397 62.6001Z" fill="white"/>
<path fill-rule="evenodd" clip-rule="evenodd" d="M32.0309 49.7951C31.0086 49.7951 25.0367 46.5401 19.4473 41.21C15.0127 36.9804 11.8038 30.7622 11.8038 25.1629C11.8038 20.0942 16.0201 14.2034 22.8278 14.2034C29.462 14.2034 30.9209 17.8045 32.0328 17.8045C32.9208 17.8045 34.6838 14.2034 41.2378 14.2034C48.4316 14.2034 52.2618 20.6794 52.2618 25.1629C52.2618 30.7603 49.2936 36.7509 44.6183 41.21C39.1707 46.4028 33.0533 49.7951 32.0309 49.7951Z" fill="url(#paint0_linear)"/>
<path d="M64.394 23.607H63.0059L60.4594 14.0792H61.9836L63.7186 21.3756H63.81L65.7801 14.0792H67.142L69.1252 21.3756H69.2166L70.9442 14.0792H72.4702L69.9162 23.607H68.5338L66.5096 16.6136H66.4182L64.394 23.607Z" fill="black"/>
<path d="M73.2464 20.0077C73.2464 17.6897 74.5299 16.2767 76.612 16.2767C78.6884 16.2767 79.972 17.6897 79.972 20.0077C79.972 22.3388 78.694 23.7443 76.612 23.7443C74.5243 23.7462 73.2464 22.3388 73.2464 20.0077ZM78.5242 20.0077C78.5242 18.4498 77.8302 17.5392 76.612 17.5392C75.3881 17.5392 74.7016 18.4498 74.7016 20.0077C74.7016 21.5787 75.3881 22.4837 76.612 22.4837C77.8302 22.4837 78.5242 21.5731 78.5242 20.0077Z" fill="black"/>
<path d="M81.8767 16.4159H83.233V17.5184H83.3375C83.5409 16.8129 84.3338 16.2974 85.2629 16.2974C85.4718 16.2974 85.7405 16.3181 85.8916 16.3576V17.7574C85.774 17.7179 85.3543 17.6708 85.1061 17.6708C84.039 17.6708 83.2853 18.3519 83.2853 19.3604V23.6069H81.8767V16.4159Z" fill="black"/>
<path d="M91.869 16.4159H93.5313L90.5985 19.4996L93.7291 23.6069H91.9996L89.5519 20.4366L88.9307 21.0312V23.6069H87.524V13.6088H88.9307V19.4131H89.0426L91.869 16.4159Z" fill="black"/>
<path d="M97.5629 16.2767C99.1674 16.2767 100.214 17.0293 100.352 18.2974H99.0032C98.8726 17.7687 98.3614 17.4338 97.5629 17.4338C96.7775 17.4338 96.1805 17.8101 96.1805 18.3708C96.1805 18.7998 96.5406 19.0707 97.313 19.2495L98.4976 19.526C99.8521 19.8421 100.488 20.431 100.488 21.4865C100.488 22.8393 99.2383 23.7443 97.535 23.7443C95.8391 23.7443 94.7328 22.971 94.6078 21.6972H96.0163C96.1936 22.2523 96.716 22.5947 97.5685 22.5947C98.4454 22.5947 99.0685 22.1996 99.0685 21.6239C99.0685 21.1949 98.7346 20.9183 98.02 20.7452L96.7757 20.4555C95.4212 20.1319 94.7925 19.5166 94.7925 18.4479C94.7944 17.1742 95.9529 16.2767 97.5629 16.2767Z" fill="black"/>
<path d="M113.602 23.6069H112.141L110.669 18.3106H110.555L109.089 23.605H107.641L105.677 16.4141H107.104L108.382 21.9023H108.486L109.953 16.4141H111.301L112.768 21.9023H112.88L114.15 16.4141H115.559L113.602 23.6069Z" fill="black"/>
<path d="M117.049 14.2898C117.049 13.795 117.436 13.4187 117.96 13.4187C118.482 13.4187 118.868 13.795 118.868 14.2898C118.868 14.779 118.482 15.1553 117.96 15.1553C117.436 15.1553 117.049 14.779 117.049 14.2898ZM117.258 16.4159H118.659V23.6068H117.258V16.4159Z" fill="black"/>
<path d="M122.84 14.6267V16.4499H124.387V17.6446H122.84V21.3417C122.84 22.0943 123.148 22.4235 123.85 22.4235C124.064 22.4235 124.191 22.4103 124.387 22.3896V23.5712C124.157 23.6107 123.894 23.6446 123.62 23.6446C122.055 23.6446 121.434 23.0895 121.434 21.7029V17.6446H120.301V16.4499H121.434V14.6267H122.84Z" fill="black"/>
<path d="M126.32 13.6088H127.713V17.5711H127.825C128.174 16.7659 128.926 16.2823 129.999 16.2823C131.517 16.2823 132.454 17.2532 132.454 18.9634V23.605H131.045V19.3134C131.045 18.1638 130.516 17.5843 129.521 17.5843C128.368 17.5843 127.726 18.3181 127.726 19.4074V23.6069H126.32V13.6088Z" fill="black"/>
<path d="M73.1643 44.508H65.6495L63.8455 49.8814H60.6608L67.7801 29.9962H71.086L78.2052 49.8814H74.9665L73.1643 44.508ZM66.4275 42.0282H72.3844L69.4461 33.3057H69.364L66.4275 42.0282Z" fill="black"/>
<path d="M93.5649 42.634C93.5649 47.1401 91.1731 50.0338 87.5669 50.0338C85.5166 50.0338 83.8916 49.11 83.0446 47.4976H82.9756V54.6773H80.0242V35.3866H82.8804V37.7986H82.9345C83.7536 36.2408 85.5035 35.2361 87.5128 35.2361C91.1601 35.2342 93.5649 38.1411 93.5649 42.634ZM90.5314 42.634C90.5314 39.6989 89.0277 37.7704 86.733 37.7704C84.4793 37.7704 82.9625 39.7403 82.9625 42.634C82.9625 45.5559 84.4793 47.5127 86.733 47.5127C89.0277 47.5127 90.5314 45.5973 90.5314 42.634Z" fill="black"/>
<path d="M109.374 42.634C109.374 47.1401 106.982 50.0338 103.376 50.0338C101.326 50.0338 99.7009 49.11 98.8539 47.4976H98.7849V54.6773H95.8335V35.3866H98.6898V37.7986H98.7439C99.5629 36.2408 101.313 35.2361 103.322 35.2361C106.969 35.2342 109.374 38.1411 109.374 42.634ZM106.341 42.634C106.341 39.6989 104.837 37.7704 102.542 37.7704C100.289 37.7704 98.7719 39.7403 98.7719 42.634C98.7719 45.5559 100.289 47.5127 102.542 47.5127C104.837 47.5127 106.341 45.5973 106.341 42.634Z" fill="black"/>
<path d="M111.751 29.998H114.702V49.8833H111.751V29.998Z" fill="black"/>
<path d="M130.06 45.6256C129.665 48.2577 127.124 50.0621 123.872 50.0621C119.691 50.0621 117.094 47.238 117.094 42.7037C117.094 38.1561 119.704 35.2079 123.749 35.2079C127.724 35.2079 130.224 37.9642 130.224 42.3593V43.3791H120.074V43.5578C120.074 46.0376 121.618 47.6651 123.939 47.6651C125.579 47.6651 126.864 46.8805 127.26 45.6256H130.06ZM120.089 41.2982H127.275C127.208 39.0799 125.799 37.618 123.751 37.618C121.713 37.618 120.238 39.1063 120.089 41.2982Z" fill="black"/>
<path d="M151.72 49.8833V41.078H141.594V49.8833H138.532V29.998H141.594V38.4044H151.72V29.998H154.782V49.8833H151.72Z" fill="black"/>
<path d="M170.373 45.6256C169.975 48.2577 167.434 50.0621 164.183 50.0621C160.002 50.0621 157.405 47.238 157.405 42.7037C157.405 38.1561 160.013 35.2079 164.058 35.2079C168.035 35.2079 170.537 37.9642 170.537 42.3593V43.3791H160.384V43.5578C160.384 46.0376 161.927 47.6651 164.252 47.6651C165.891 47.6651 167.173 46.8805 167.571 45.6256H170.373ZM160.395 41.2982H167.585C167.516 39.0799 166.11 37.618 164.058 37.618C162.022 37.618 160.546 39.1063 160.395 41.2982Z" fill="black"/>
<path d="M172.242 45.7629C172.242 43.2267 174.169 41.6971 177.585 41.4901L181.52 41.27V40.1674C181.52 38.555 180.47 37.6463 178.679 37.6463C177.039 37.6463 175.891 38.4308 175.66 39.6858H172.899C172.983 37.0668 175.401 35.2079 178.762 35.2079C182.191 35.2079 184.462 37.095 184.462 39.9492V49.8852H181.632V47.5014H181.563C180.729 49.1138 178.91 50.1336 177.026 50.1336C174.208 50.1317 172.242 48.3669 172.242 45.7629ZM181.52 44.4534V43.3377L177.981 43.5578C176.22 43.6688 175.221 44.4402 175.221 45.6801C175.221 46.9482 176.261 47.7742 177.845 47.7742C179.908 47.7742 181.52 46.3405 181.52 44.4534Z" fill="black"/>
<path d="M187.421 29.998H190.372V49.8833H187.421V29.998Z" fill="black"/>
<path d="M197.234 31.9548V35.3866H199.967V37.7422H197.234V45.7347C197.234 46.9746 197.781 47.5541 198.984 47.5541C199.282 47.5541 199.762 47.5127 199.954 47.4845V49.8269C199.626 49.9097 198.971 49.9642 198.314 49.9642C195.402 49.9642 194.269 48.8617 194.269 46.0508V37.7422H192.178V35.3866H194.269V31.9548H197.234Z" fill="black"/>
<path d="M202.497 29.998H205.418V37.8532H205.487C206.348 36.1166 207.838 35.221 210.038 35.221C213.193 35.221 215.079 37.3433 215.079 40.6227V49.8833H212.114V41.2154C212.114 39.0799 211.047 37.7836 208.969 37.7836C206.782 37.7836 205.445 39.3 205.445 41.6011V49.8833H202.493V29.998H202.497Z" fill="black"/>
<defs>
<linearGradient id="paint0_linear" x1="32.0309" y1="14.2036" x2="32.0309" y2="49.7957" gradientUnits="userSpaceOnUse">
<stop stop-color="#FF61AD"/>
<stop offset="1" stop-color="#FF2616"/>
</linearGradient>
</defs>
</svg>
