<svg xmlns="http://www.w3.org/2000/svg" viewBox="0 0 91.03 100"><defs><style>.cls-1{fill:#fff;}.cls-2{fill:#56bfbd;}</style></defs><title>Луна</title><g id="Слой_2" data-name="Слой 2"><g id="Слой_1-2" data-name="Слой 1"><path class="cls-1" d="M45.76,99.63A51,51,0,0,1,10.7,91a51.83,51.83,0,0,1-10-8.94,3,3,0,0,1,3.06-4.82A46.41,46.41,0,0,0,53.42,4.76,3,3,0,0,1,56.81.17,52,52,0,0,1,68.72,6.22h0A51.54,51.54,0,0,1,82.44,77.14a51,51,0,0,1-33,21.91C48.23,99.29,47,99.48,45.76,99.63ZM9,83.41a46.51,46.51,0,0,0,39.5,10.77A46.4,46.4,0,0,0,65.91,10.32h0a48.53,48.53,0,0,0-4.85-2.9,51.38,51.38,0,0,1-52,76Z"/><path class="cls-2" d="M22.14,32.07,10.58,39.48,20,42.1a2.53,2.53,0,0,1,1.58,1,1.87,1.87,0,0,1,.2,1.54,1.8,1.8,0,0,1-.94,1.17,2.65,2.65,0,0,1-1.88,0l-13-3.62A3.19,3.19,0,0,1,4,41.06a2.18,2.18,0,0,1-.23-1.83,2.15,2.15,0,0,1,.83-1.11c.43-.33,1.3-.92,2.61-1.75S9.89,34.69,11,34l3.15-2c1-.63,1.78-1.16,2.43-1.6s1.17-.82,1.58-1.15l-7.16-2a7.49,7.49,0,0,1-2.16-.89c-.46-.32-.58-.85-.37-1.6a1.73,1.73,0,0,1,.94-1.17,2.57,2.57,0,0,1,1.77,0l11.05,3.08a5.2,5.2,0,0,1,2.23,1.1,1.76,1.76,0,0,1,.37,1.84,2.36,2.36,0,0,1-.38.76,3.45,3.45,0,0,1-.54.58c-.18.14-.42.31-.71.5Z"/><path class="cls-2" d="M37.56,43.93,29,49.4l7,1.94a1.87,1.87,0,0,1,1.16.75,1.41,1.41,0,0,1,.15,1.14,1.33,1.33,0,0,1-.7.86,2,2,0,0,1-1.39,0l-9.63-2.68a2.34,2.34,0,0,1-1.39-.86A1.61,1.61,0,0,1,24,49.22a1.58,1.58,0,0,1,.61-.82c.32-.25,1-.68,1.93-1.3l2.78-1.76,2.33-1.48c.72-.46,1.31-.85,1.79-1.18s.87-.61,1.17-.85l-5.28-1.47a5.6,5.6,0,0,1-1.6-.65c-.34-.24-.43-.63-.28-1.19a1.3,1.3,0,0,1,.7-.86,1.9,1.9,0,0,1,1.3,0l8.17,2.27a3.85,3.85,0,0,1,1.64.82,1.29,1.29,0,0,1,.28,1.36,1.76,1.76,0,0,1-.29.56,2.09,2.09,0,0,1-.4.43c-.13.1-.3.22-.52.36S37.88,43.74,37.56,43.93Z"/></g></g></svg>