<svg width="65" height="15" viewBox="0 0 65 15" fill="none" xmlns="http://www.w3.org/2000/svg">
<path d="M8.06607 14H4.67984L0.1525 0.612793H3.31607L6.35904 10.8457H6.52604L9.51334 0.612793H12.5285L8.06607 14ZM18.9517 14H16.15V0.612793H18.9517V14ZM23.5288 0.603516H28.7983C30.7899 0.603516 32.333 1.1818 33.4277 2.33838C34.5286 3.48877 35.0791 5.1123 35.0791 7.20898C35.0791 9.37988 34.5317 11.056 33.437 12.2373C32.3485 13.4124 30.8022 14 28.7983 14H23.5288V0.603516ZM26.3306 2.99707V11.6064H28.353C29.5962 11.6064 30.5518 11.2354 31.2197 10.4932C31.8877 9.74479 32.2217 8.66553 32.2217 7.25537C32.2217 5.90706 31.8815 4.86182 31.2012 4.11963C30.5208 3.37126 29.5715 2.99707 28.353 2.99707H26.3306ZM47.9223 11.6064V14H39.0531V0.612793H47.9223V3.00635H41.8549V6.13281H47.579V8.3501H41.8549V11.6064H47.9223ZM58.0565 0.269531C60.0357 0.269531 61.6004 0.900391 62.7508 2.16211C63.9074 3.42383 64.4857 5.13704 64.4857 7.30176C64.4857 9.47266 63.9074 11.189 62.7508 12.4507C61.6004 13.7124 60.0357 14.3433 58.0565 14.3433C56.0711 14.3433 54.5002 13.7124 53.3436 12.4507C52.187 11.189 51.6087 9.47266 51.6087 7.30176C51.6087 5.13704 52.1901 3.42383 53.3529 2.16211C54.5156 0.900391 56.0835 0.269531 58.0565 0.269531ZM60.6541 3.97119C60.0109 3.14242 59.145 2.72803 58.0565 2.72803C56.9679 2.72803 56.099 3.14242 55.4496 3.97119C54.8001 4.79378 54.4754 5.90397 54.4754 7.30176C54.4754 8.69954 54.797 9.81283 55.4403 10.6416C56.0897 11.4704 56.9618 11.8848 58.0565 11.8848C59.145 11.8848 60.0109 11.4704 60.6541 10.6416C61.3036 9.81283 61.6283 8.69954 61.6283 7.30176C61.6283 5.90397 61.3036 4.79378 60.6541 3.97119Z" fill="white"/>
</svg>
