<svg width="66" height="15" viewBox="0 0 66 15" fill="none" xmlns="http://www.w3.org/2000/svg">
<path d="M8.96059 5.60645L6.58754 14H4.08266L0.725235 1.31738H3.485L5.46254 10.2559H5.60316L7.91469 1.31738H10.1559L12.5114 10.2559H12.652L14.612 1.31738H17.3541L13.9879 14H11.5006L9.10121 5.60645H8.96059ZM26.5784 14L25.6204 10.9766H21.1644L20.1888 14H17.5257L21.929 1.31738H25.0491L29.4525 14H26.5784ZM23.3265 3.9541L21.7357 8.92871H25.0579L23.4847 3.9541H23.3265ZM35.7939 14H33.1396V3.58496H29.334V1.31738H39.5996V3.58496H35.7939V14ZM46.7145 14.3252C44.8747 14.3252 43.4216 13.7305 42.3552 12.541C41.2946 11.3457 40.7643 9.7168 40.7643 7.6543C40.7643 5.5918 41.2946 3.96582 42.3552 2.77637C43.4216 1.58691 44.8747 0.992188 46.7145 0.992188C48.2145 0.992188 49.4802 1.44043 50.5114 2.33691C51.5485 3.22754 52.1169 4.36426 52.2165 5.74707H49.6325C49.5036 5.01465 49.1725 4.42871 48.6393 3.98926C48.112 3.5498 47.4704 3.33008 46.7145 3.33008C45.7184 3.33008 44.9304 3.7168 44.3503 4.49023C43.7702 5.26367 43.4802 6.31836 43.4802 7.6543C43.4802 8.99023 43.7702 10.0479 44.3503 10.8271C44.9304 11.6006 45.7214 11.9873 46.7233 11.9873C47.485 11.9873 48.1296 11.7793 48.6569 11.3633C49.1843 10.9473 49.5124 10.3906 49.6413 9.69336H52.2253C52.1139 11.0645 51.5485 12.1807 50.529 13.042C49.5153 13.8975 48.2438 14.3252 46.7145 14.3252ZM65.5101 14H62.8558V8.7002H57.1429V14H54.4886V1.31738H57.1429V6.43262H62.8558V1.31738H65.5101V14Z" fill="white"/>
</svg>
